<?xml version="1.0" encoding="iso-8859-1"?>
<!-- Generator: Adobe Illustrator 19.0.0, SVG Export Plug-In . SVG Version: 6.00 Build 0)  -->
<svg version="1.1" id="Layer_1" xmlns="http://www.w3.org/2000/svg" xmlns:xlink="http://www.w3.org/1999/xlink" x="0px" y="0px"
	 viewBox="0 0 503.6 503.6" style="enable-background:new 0 0 503.6 503.6;" xml:space="preserve">
<polygon style="fill:#4BF9F4;" points="459.4,373.2 251.4,495.6 43.4,373.2 43.4,130 251.4,7.6 459.4,130 "/>
<polyline style="fill:#2DCBE0;" points="462.6,373.2 251.4,495.6 40.2,373.2 "/>
<polyline style="fill:#B3FFFB;" points="43.4,371.6 43.4,130 253,7.6 465,129.2 "/>
<path style="fill:#2F5068;" d="M251.4,503.6c-1.6,0-2.4,0-4-0.8L37.8,380.4c-2.4-1.6-2.4-4-2.4-7.2V130c0-3.2,0-5.6,2.4-7.2
	L248.2,1.2c2.4-1.6,4.8-1.6,8,0l209.6,121.6c2.4,1.6,2.4,4,2.4,7.2v244c0,3.2,0,5.6-2.4,7.2L254.6,502
	C253.8,502.8,253,503.6,251.4,503.6z M51.4,369.2l200,117.6l200-117.6V134l-200-116.8L51.4,134V369.2z"/>
<polygon style="fill:#FFB6D0;" points="251.4,15.6 41.8,371.6 461,371.6 "/>
<polygon style="fill:#EA789B;" points="251.4,15.6 135.4,371.6 461,371.6 "/>
<path style="fill:#2F5068;" d="M457.8,379.6H47.4c-3.2,0-8-1.6-9.6-4s-0.8-9.6,0-12l206.4-352c3.2-4.8,11.2-4.8,13.6,0l207.2,352
	c1.6,2.4,0.8,9.6-0.8,12C463.4,378.8,461,379.6,457.8,379.6z M56.2,363.6h391.2l-196-332.8L56.2,363.6z"/>
<polygon style="fill:#4BF9F4;" points="355.4,313.2 251.4,372.4 147.4,313.2 147.4,194.8 251.4,135.6 355.4,194.8 "/>
<polyline style="fill:#2DCBE0;" points="355.4,195.6 355.4,313.2 253,372.4 "/>
<polyline style="fill:#B3FFFB;" points="147.4,315.6 147.4,194.8 249.8,137.2 "/>
<path style="fill:#2F5068;" d="M251.4,380.4c-1.6,0-2.4,0-4-0.8l-103.2-59.2c-2.4-1.6-4.8-4.8-4.8-7.2V194.8c0-3.2,2.4-5.6,4.8-7.2
	l103.2-59.2c2.4-1.6,5.6-1.6,8,0l103.2,59.2c2.4,1.6,4.8,4,4.8,7.2v118.4c0,3.2-2.4,5.6-4.8,7.2l-103.2,59.2
	C254.6,379.6,253,380.4,251.4,380.4z M155.4,308.4l96,54.4l96-54.4V199.6l-96-54.4l-96,54.4V308.4z"/>
<circle style="fill:#FFB6D0;" cx="251.4" cy="254" r="55.2"/>
<path style="fill:#EA789B;" d="M251.4,198.8c30.4,0,55.2,24.8,55.2,55.2s-24.8,55.2-55.2,55.2"/>
<g>
	<path style="fill:#2F5068;" d="M251.4,317.2c-35.2,0-63.2-28.8-63.2-63.2s28.8-63.2,63.2-63.2s63.2,28.8,63.2,63.2
		S286.6,317.2,251.4,317.2z M251.4,206.8c-26.4,0-47.2,21.6-47.2,47.2c0,26.4,21.6,47.2,47.2,47.2c25.6,0,47.2-21.6,47.2-47.2
		C298.6,227.6,277.8,206.8,251.4,206.8z"/>
	<path style="fill:#2F5068;" d="M251.4,258.8c-1.6,0-2.4,0-4-0.8l-208-120c-4-2.4-4-8-1.6-12c2.4-3.2,5.6-4,8.8-2.4L251.4,242
		l203.2-117.6c4-2.4,9.6-1.6,11.2,2.4c2.4,4,0.8,9.6-3.2,11.2l-208,120C253.8,258.8,253,258.8,251.4,258.8z"/>
</g>
<path style="fill:#2F5068;" d="M251.4,497.2c-4.8,0-8-3.2-8-8V250c0-4.8,3.2-8,8-8c4.8,0,8,3.2,8,8v239.2
	C259.4,493.2,256.2,497.2,251.4,497.2z"/>
<g>
</g>
<g>
</g>
<g>
</g>
<g>
</g>
<g>
</g>
<g>
</g>
<g>
</g>
<g>
</g>
<g>
</g>
<g>
</g>
<g>
</g>
<g>
</g>
<g>
</g>
<g>
</g>
<g>
</g>
</svg>
