<?xml version="1.0" encoding="iso-8859-1"?>
<!-- Generator: Adobe Illustrator 19.0.0, SVG Export Plug-In . SVG Version: 6.00 Build 0)  -->
<svg version="1.1" id="Layer_1" xmlns="http://www.w3.org/2000/svg" xmlns:xlink="http://www.w3.org/1999/xlink" x="0px" y="0px"
	 viewBox="0 0 504 504" style="enable-background:new 0 0 504 504;" xml:space="preserve">
<g>
	<path style="fill:#C3D7DD;" d="M367.6,462.4c-2.4,0-4-1.6-4-4v-16c0-2.4,1.6-4,4-4s4,1.6,4,4v16C371.6,460.8,370,462.4,367.6,462.4
		z M352.4,458.4c-0.8,0-1.6,0-2.4-0.8l-13.6-8c-1.6-0.8-2.4-3.2-1.6-5.6c0.8-1.6,3.2-2.4,5.6-1.6l13.6,8c1.6,0.8,2.4,3.2,1.6,5.6
		C355.6,457.6,354,458.4,352.4,458.4z M325.2,442.4c-0.8,0-1.6,0-2.4-0.8l-13.6-8c-1.6-0.8-2.4-3.2-1.6-5.6c0.8-1.6,3.2-2.4,5.6-1.6
		l13.6,8c1.6,0.8,2.4,3.2,1.6,5.6C327.6,441.6,326.8,442.4,325.2,442.4z M367.6,430.4c-2.4,0-4-1.6-4-4v-16c0-2.4,1.6-4,4-4
		s4,1.6,4,4v16C371.6,428.8,370,430.4,367.6,430.4z M298,426.4c-0.8,0-1.6,0-2.4-0.8l-13.6-8c-1.6-0.8-2.4-3.2-1.6-5.6
		c0.8-1.6,3.2-2.4,5.6-1.6l13.6,8c1.6,0.8,2.4,3.2,1.6,5.6C300.4,425.6,298.8,426.4,298,426.4z M270,410.4c-0.8,0-1.6,0-2.4-0.8
		l-13.6-8c-1.6-0.8-2.4-3.2-1.6-5.6c0.8-1.6,4-2.4,5.6-1.6l13.6,8c1.6,0.8,2.4,3.2,1.6,5.6C272.4,409.6,271.6,410.4,270,410.4z
		 M367.6,398.4c-2.4,0-4-1.6-4-4v-16c0-2.4,1.6-4,4-4s4,1.6,4,4v16C371.6,396.8,370,398.4,367.6,398.4z M242.8,393.6
		c-0.8,0-1.6,0-2.4-0.8l-13.6-8c-1.6-0.8-2.4-3.2-1.6-5.6c0.8-1.6,3.2-2.4,5.6-1.6l13.6,8c1.6,0.8,2.4,3.2,1.6,5.6
		C245.2,392.8,243.6,393.6,242.8,393.6z M214.8,377.6c-0.8,0-1.6,0-2.4-0.8l-13.6-8c-1.6-0.8-2.4-3.2-1.6-5.6
		c0.8-1.6,3.2-2.4,5.6-1.6l13.6,8c1.6,0.8,2.4,3.2,1.6,5.6C217.2,376.8,216.4,377.6,214.8,377.6z M367.6,366.4c-2.4,0-4-1.6-4-4v-16
		c0-2.4,1.6-4,4-4s4,1.6,4,4v16C371.6,364.8,370,366.4,367.6,366.4z M187.6,361.6c-0.8,0-1.6,0-2.4-0.8l-13.6-8
		c-1.6-0.8-2.4-3.2-1.6-5.6c0.8-1.6,3.2-2.4,5.6-1.6l13.6,8c1.6,0.8,2.4,3.2,1.6,5.6C190,360.8,188.4,361.6,187.6,361.6z
		 M159.6,344.8c-0.8,0-1.6,0-2.4-0.8l-13.6-8c-1.6-0.8-2.4-3.2-1.6-5.6c0.8-1.6,3.2-2.4,5.6-1.6l13.6,8c1.6,0.8,2.4,3.2,1.6,5.6
		C162,344.8,161.2,344.8,159.6,344.8z M367.6,334.4c-2.4,0-4-1.6-4-4v-16c0-2.4,1.6-4,4-4s4,1.6,4,4v16
		C371.6,332.8,370,334.4,367.6,334.4z M132.4,328.8c-0.8,0-1.6,0-2.4-0.8l-13.6-8c-1.6-0.8-2.4-3.2-1.6-5.6c0.8-1.6,4-2.4,5.6-1.6
		l13.6,8c1.6,0.8,2.4,3.2,1.6,5.6C134.8,328,133.2,328.8,132.4,328.8z M104.4,312.8c-0.8,0-1.6,0-2.4-0.8l-13.6-8
		c-1.6-0.8-2.4-3.2-1.6-5.6c0.8-1.6,3.2-2.4,5.6-1.6l13.6,8c1.6,0.8,2.4,3.2,1.6,5.6C106.8,312,106,312.8,104.4,312.8z M367.6,302.4
		c-2.4,0-4-1.6-4-4v-16c0-2.4,1.6-4,4-4s4,1.6,4,4v16C371.6,300.8,370,302.4,367.6,302.4z M77.2,296.8c-0.8,0-1.6,0-2.4-0.8l-13.6-8
		c-2.4-1.6-2.4-4-1.6-5.6c0.8-1.6,4-2.4,5.6-1.6l13.6,8c1.6,0.8,2.4,3.2,1.6,5.6C79.6,296,78,296.8,77.2,296.8z M49.2,280
		c-0.8,0-1.6,0-2.4-0.8l-13.6-8c-1.6-0.8-2.4-3.2-1.6-5.6c0.8-1.6,3.2-2.4,5.6-1.6l13.6,8c1.6,0.8,2.4,3.2,1.6,5.6
		C52.4,280,50.8,280,49.2,280z M367.6,270.4c-2.4,0-4-1.6-4-4v-16c0-2.4,1.6-4,4-4s4,1.6,4,4v16C371.6,268.8,370,270.4,367.6,270.4z
		 M22,264c-0.8,0-1.6,0-2.4-0.8l-13.6-8c-1.6-0.8-2.4-3.2-1.6-5.6c0.8-1.6,3.2-2.4,5.6-1.6l13.6,8c1.6,0.8,2.4,3.2,1.6,5.6
		C24.4,263.2,22.8,264,22,264z M19.6,248.8c-1.6,0-2.4-0.8-3.2-1.6c-0.8-1.6-0.8-4,1.6-5.6l13.6-8c1.6-0.8,4-0.8,5.6,1.6
		c0.8,1.6,0.8,4-1.6,5.6l-13.6,8C21.2,248.8,20.4,248.8,19.6,248.8z M367.6,238.4c-2.4,0-4-1.6-4-4v-16c0-2.4,1.6-4,4-4s4,1.6,4,4
		v16C371.6,236.8,370,238.4,367.6,238.4z M47.6,232.8c-1.6,0-2.4-0.8-3.2-1.6c-0.8-1.6-0.8-4,1.6-5.6l13.6-8c1.6-0.8,4-0.8,5.6,1.6
		c0.8,1.6,0.8,4-1.6,5.6l-13.6,8C48.4,232.8,47.6,232.8,47.6,232.8z M74.8,216.8c-1.6,0-2.4-0.8-3.2-1.6c-0.8-1.6-0.8-4,1.6-5.6
		l13.6-8c1.6-0.8,4-0.8,5.6,1.6c0.8,1.6,0.8,4-1.6,5.6l-13.6,8C76.4,216.8,75.6,216.8,74.8,216.8z M367.6,206.4c-2.4,0-4-1.6-4-4
		v-16c0-2.4,1.6-4,4-4s4,1.6,4,4v16C371.6,204.8,370,206.4,367.6,206.4z M102,200.8c-1.6,0-2.4-0.8-3.2-1.6c-0.8-1.6-0.8-4,1.6-5.6
		l13.6-8c1.6-0.8,4-0.8,5.6,1.6c0.8,1.6,0.8,4-1.6,5.6l-13.6,8C103.6,200,102.8,200.8,102,200.8z M130,184c-1.6,0-2.4-0.8-3.2-1.6
		c-0.8-1.6-0.8-4,1.6-5.6l13.6-8c1.6-0.8,4-0.8,5.6,1.6c0.8,1.6,0.8,4-1.6,5.6l-13.6,8C131.6,184,130.8,184,130,184z M367.6,174.4
		c-2.4,0-4-1.6-4-4v-16c0-2.4,1.6-4,4-4s4,1.6,4,4v16C371.6,172.8,370,174.4,367.6,174.4z M157.2,168c-1.6,0-2.4-0.8-3.2-1.6
		c-0.8-1.6-0.8-4,1.6-5.6l13.6-8c1.6-0.8,4-0.8,5.6,1.6c0.8,1.6,0.8,4-1.6,5.6l-13.6,8C158.8,168,158,168,157.2,168z M185.2,152
		c-1.6,0-2.4-0.8-3.2-1.6c-0.8-1.6-0.8-4,1.6-5.6l13.6-8c1.6-0.8,4-0.8,5.6,1.6c0.8,1.6,0.8,4-1.6,5.6l-13.6,8
		C186.8,152,186,152,185.2,152z M367.6,142.4c-2.4,0-4-1.6-4-4v-16c0-2.4,1.6-4,4-4s4,1.6,4,4v16C371.6,140.8,370,142.4,367.6,142.4
		z M212.4,136c-1.6,0-2.4-0.8-3.2-1.6c-0.8-1.6-0.8-4,1.6-5.6l13.6-8c1.6-0.8,4-0.8,5.6,1.6c0.8,1.6,0.8,4-1.6,5.6l-13.6,8
		C214,135.2,213.2,136,212.4,136z M240.4,119.2c-1.6,0-2.4-0.8-3.2-1.6c-0.8-1.6-0.8-4,1.6-5.6l13.6-8c1.6-0.8,4-0.8,5.6,1.6
		c0.8,1.6,0.8,4-1.6,5.6l-13.6,8C242,119.2,241.2,119.2,240.4,119.2z M367.6,110.4c-2.4,0-4-1.6-4-4v-16c0-2.4,1.6-4,4-4s4,1.6,4,4
		v16C371.6,108.8,370,110.4,367.6,110.4z M267.6,103.2c-1.6,0-2.4-0.8-3.2-1.6c-0.8-1.6-0.8-4,1.6-5.6l13.6-8c1.6-0.8,4-0.8,5.6,1.6
		s0.8,4-1.6,5.6l-13.6,8C269.2,103.2,268.4,103.2,267.6,103.2z M295.6,87.2c-1.6,0-2.4-0.8-3.2-1.6c-0.8-1.6-0.8-4,1.6-5.6l13.6-8
		c1.6-0.8,4-0.8,5.6,1.6c0.8,1.6,0.8,4-1.6,5.6l-13.6,8C297.2,86.4,296.4,87.2,295.6,87.2z M367.6,78.4c-2.4,0-4-1.6-4-4v-16
		c0-2.4,1.6-4,4-4s4,2.4,4,4v16C371.6,76.8,370,78.4,367.6,78.4z M322.8,70.4c-1.6,0-2.4-0.8-3.2-1.6c-0.8-1.6-0.8-4,1.6-5.6l13.6-8
		c1.6-0.8,4-0.8,5.6,1.6c0.8,1.6,0.8,4-1.6,5.6l-13.6,8C324.4,70.4,323.6,70.4,322.8,70.4z M350.8,54.4c-1.6,0-2.4-0.8-3.2-1.6
		c-0.8-1.6-0.8-4,1.6-5.6l13.6-8c1.6-0.8,2.4-0.8,4,0s2.4,2.4,2.4,3.2c0,1.6-0.8,3.2-2.4,4L354,53.6
		C352.4,54.4,351.6,54.4,350.8,54.4z"/>
	<path style="fill:#C3D7DD;" d="M138.8,465.6c-0.8,0-1.6,0-1.6-0.8c-1.6-0.8-2.4-2.4-2.4-3.2c0-1.6,0.8-3.2,2.4-4l12.8-7.2
		c1.6-0.8,4-0.8,5.6,1.6c0.8,1.6,0.8,4-1.6,5.6l-13.6,8C140.4,465.6,139.6,465.6,138.8,465.6z M166,449.6c-1.6,0-2.4-0.8-3.2-1.6
		c-0.8-1.6-0.8-4,1.6-5.6l13.6-8c1.6-0.8,4-0.8,5.6,1.6c0.8,1.6,0.8,4-1.6,5.6l-13.6,8C167.6,448.8,166.8,449.6,166,449.6z
		 M135.6,449.6c-2.4,0-4-1.6-4-4v-16c0-2.4,1.6-4,4-4s4,1.6,4,4v16C139.6,447.2,138,449.6,135.6,449.6z M194,432.8
		c-1.6,0-2.4-0.8-3.2-1.6c-0.8-1.6-0.8-4,1.6-5.6l13.6-8c1.6-0.8,4-0.8,5.6,1.6c0.8,1.6,0.8,4-1.6,5.6l-13.6,8
		C195.6,432.8,194.8,432.8,194,432.8z M135.6,417.6c-2.4,0-4-1.6-4-4v-16c0-2.4,1.6-4,4-4s4,1.6,4,4v16
		C139.6,415.2,138,417.6,135.6,417.6z M221.2,416.8c-1.6,0-2.4-0.8-3.2-1.6c-0.8-1.6-0.8-4,1.6-5.6l13.6-8c1.6-0.8,4-0.8,5.6,1.6
		c0.8,1.6,0.8,4-1.6,5.6l-13.6,8C222.8,416.8,222,416.8,221.2,416.8z M249.2,400.8c-1.6,0-2.4-0.8-3.2-1.6c-0.8-1.6-0.8-4,1.6-5.6
		l13.6-8c1.6-0.8,4-0.8,5.6,1.6c0.8,1.6,0.8,4-1.6,5.6l-13.6,8C250.8,400.8,250,400.8,249.2,400.8z M135.6,385.6c-2.4,0-4-1.6-4-4
		v-16c0-2.4,1.6-4,4-4s4,1.6,4,4v16C139.6,383.2,138,385.6,135.6,385.6z M276.4,384.8c-1.6,0-2.4-0.8-3.2-1.6
		c-0.8-1.6-0.8-4,1.6-5.6l13.6-8c1.6-0.8,4-0.8,5.6,1.6s0.8,4-1.6,5.6l-13.6,8C278,384,277.2,384.8,276.4,384.8z M304.4,368
		c-1.6,0-2.4-0.8-3.2-1.6c-0.8-1.6-0.8-4,1.6-5.6l13.6-8c1.6-0.8,4-0.8,5.6,1.6c0.8,1.6,0.8,4-1.6,5.6l-13.6,8
		C306,368,305.2,368,304.4,368z M135.6,353.6c-2.4,0-4-1.6-4-4v-16c0-2.4,1.6-4,4-4s4,1.6,4,4v16C139.6,351.2,138,353.6,135.6,353.6
		z M331.6,352c-1.6,0-2.4-0.8-3.2-1.6c-0.8-1.6-0.8-4,1.6-5.6l13.6-8c1.6-0.8,4-0.8,5.6,1.6c0.8,1.6,0.8,4-1.6,5.6l-13.6,8
		C333.2,352,332.4,352,331.6,352z M359.6,336c-1.6,0-2.4-0.8-3.2-1.6c-0.8-1.6-0.8-4,1.6-5.6l13.6-8c1.6-0.8,4-0.8,5.6,1.6
		c0.8,1.6,0.8,4-1.6,5.6l-13.6,8C361.2,336,360.4,336,359.6,336z M135.6,321.6c-2.4,0-4-1.6-4-4v-16c0-2.4,1.6-4,4-4s4,1.6,4,4v16
		C139.6,319.2,138,321.6,135.6,321.6z M386.8,320c-1.6,0-2.4-0.8-3.2-1.6c-0.8-1.6-0.8-4,1.6-5.6l13.6-8c1.6-0.8,4-0.8,5.6,1.6
		c0.8,1.6,0.8,4-1.6,5.6l-13.6,8C388.4,319.2,387.6,320,386.8,320z M414.8,303.2c-1.6,0-2.4-0.8-3.2-1.6c-0.8-1.6-0.8-4,1.6-5.6
		l13.6-8c1.6-0.8,4-0.8,5.6,1.6c0.8,1.6,0.8,4-1.6,5.6l-13.6,8C415.6,303.2,415.6,303.2,414.8,303.2z M135.6,289.6c-2.4,0-4-1.6-4-4
		v-16c0-2.4,1.6-4,4-4s4,1.6,4,4v16C139.6,287.2,138,289.6,135.6,289.6z M442,287.2c-1.6,0-2.4-0.8-3.2-1.6c-0.8-1.6-0.8-4,1.6-5.6
		l13.6-8c1.6-0.8,4-0.8,5.6,1.6s0.8,4-1.6,5.6l-13.6,8C443.6,287.2,442.8,287.2,442,287.2z M470,271.2c-1.6,0-2.4-0.8-3.2-1.6
		c-0.8-1.6-0.8-4,1.6-5.6l13.6-8c1.6-0.8,4-0.8,5.6,1.6c0.8,1.6,0.8,4-1.6,5.6l-13.6,8C470.8,270.4,470.8,271.2,470,271.2z
		 M135.6,257.6c-2.4,0-4-1.6-4-4v-16c0-2.4,1.6-4,4-4s4,1.6,4,4v16C139.6,255.2,138,257.6,135.6,257.6z M495.6,256
		c-0.8,0-1.6,0-2.4-0.8l-13.6-8c-1.6-0.8-2.4-3.2-1.6-5.6c0.8-1.6,3.2-2.4,5.6-1.6l13.6,8c1.6,0.8,2.4,3.2,1.6,5.6
		C498,255.2,496.4,256,495.6,256z M467.6,240c-0.8,0-1.6,0-2.4-0.8l-13.6-8c-1.6-0.8-2.4-3.2-1.6-5.6c0.8-1.6,3.2-2.4,5.6-1.6
		l13.6,8c1.6,0.8,2.4,3.2,1.6,5.6C470,239.2,469.2,240,467.6,240z M135.6,225.6c-2.4,0-4-1.6-4-4v-16c0-2.4,1.6-4,4-4s4,1.6,4,4v16
		C139.6,223.2,138,225.6,135.6,225.6z M440.4,223.2c-0.8,0-1.6,0-2.4-0.8l-13.6-8c-1.6-0.8-2.4-3.2-1.6-5.6c0.8-1.6,3.2-2.4,5.6-1.6
		l13.6,8c1.6,0.8,2.4,3.2,1.6,5.6S441.2,223.2,440.4,223.2z M412.4,207.2c-0.8,0-1.6,0-2.4-0.8l-13.6-8c-1.6-0.8-2.4-3.2-1.6-5.6
		c0.8-1.6,3.2-2.4,5.6-1.6l13.6,8c1.6,0.8,2.4,3.2,1.6,5.6C415.6,206.4,414,207.2,412.4,207.2z M135.6,193.6c-2.4,0-4-1.6-4-4v-16
		c0-2.4,1.6-4,4-4s4,1.6,4,4v16C139.6,191.2,138,193.6,135.6,193.6z M385.2,191.2c-0.8,0-1.6,0-2.4-0.8l-13.6-8
		c-1.6-0.8-2.4-3.2-1.6-5.6c0.8-1.6,3.2-2.4,5.6-1.6l13.6,8c1.6,0.8,2.4,3.2,1.6,5.6C387.6,190.4,386,191.2,385.2,191.2z
		 M357.2,175.2c-0.8,0-1.6,0-2.4-0.8l-13.6-8c-1.6-0.8-2.4-3.2-1.6-5.6s3.2-2.4,5.6-1.6l13.6,8c1.6,0.8,2.4,3.2,1.6,5.6
		C360.4,174.4,358.8,175.2,357.2,175.2z M135.6,161.6c-2.4,0-4-1.6-4-4v-16c0-2.4,1.6-4,4-4s4,1.6,4,4v16
		C139.6,159.2,138,161.6,135.6,161.6z M330,158.4c-0.8,0-1.6,0-2.4-0.8l-13.6-8c-1.6-0.8-2.4-3.2-1.6-5.6c0.8-1.6,3.2-2.4,5.6-1.6
		l13.6,8c1.6,0.8,2.4,3.2,1.6,5.6C332.4,157.6,330.8,158.4,330,158.4z M302,142.4c-0.8,0-1.6,0-2.4-0.8l-13.6-8
		c-1.6-0.8-2.4-3.2-1.6-5.6c0.8-1.6,4-2.4,5.6-1.6l13.6,8c1.6,0.8,2.4,3.2,1.6,5.6C305.2,141.6,303.6,142.4,302,142.4z M135.6,129.6
		c-2.4,0-4-1.6-4-4v-16c0-2.4,1.6-4,4-4s4,1.6,4,4v16C139.6,127.2,138,129.6,135.6,129.6z M274.8,126.4c-0.8,0-1.6,0-2.4-0.8
		l-13.6-8c-1.6-0.8-2.4-3.2-1.6-5.6c0.8-1.6,3.2-2.4,5.6-1.6l13.6,8c1.6,0.8,2.4,3.2,1.6,5.6C277.2,125.6,275.6,126.4,274.8,126.4z
		 M246.8,110.4c-0.8,0-1.6,0-2.4-0.8l-13.6-8c-1.6-0.8-2.4-3.2-1.6-5.6c0.8-1.6,3.2-2.4,5.6-1.6l13.6,8c1.6,0.8,2.4,3.2,1.6,5.6
		C250,109.6,248.4,110.4,246.8,110.4z M135.6,97.6c-2.4,0-4-1.6-4-4v-16c0-2.4,1.6-4,4-4s4,1.6,4,4v16
		C139.6,95.2,138,97.6,135.6,97.6z M219.6,93.6c-0.8,0-1.6,0-2.4-0.8l-13.6-8c-1.6-0.8-2.4-3.2-1.6-5.6c0.8-1.6,3.2-2.4,5.6-1.6
		l13.6,8c1.6,0.8,2.4,3.2,1.6,5.6C222,92.8,220.4,93.6,219.6,93.6z M191.6,77.6c-0.8,0-1.6,0-2.4-0.8l-13.6-8
		c-1.6-0.8-2.4-3.2-1.6-5.6c0.8-1.6,3.2-2.4,5.6-1.6l13.6,8c2.4,1.6,3.2,4,2.4,6.4C194.8,76.8,193.2,77.6,191.6,77.6z M135.6,65.6
		c-2.4,0-4-1.6-4-4v-16c0-2.4,1.6-4,4-4s4,1.6,4,4v16C139.6,63.2,138,65.6,135.6,65.6z M164.4,61.6c-0.8,0-1.6,0-2.4-0.8l-13.6-8
		c-1.6-0.8-2.4-3.2-1.6-5.6c0.8-1.6,4-2.4,5.6-1.6l13.6,8c1.6,0.8,2.4,3.2,1.6,5.6C166.8,60.8,165.2,61.6,164.4,61.6z"/>
</g>
<g>
	<path style="fill:#FF9700;" d="M373.2,468H130c-3.2,0-5.6,0-7.2-2.4L1.2,255.2c-1.6-2.4-1.6-4.8,0-8L122.8,38.4
		c1.6-2.4,4-2.4,7.2-2.4h244c3.2,0,5.6,0,7.2,2.4l121.6,210.4c1.6,2.4,1.6,4.8,0,8L380.4,465.6C378.8,468,376.4,468,373.2,468z
		 M134,452h234.4L486,252L369.2,52H134L17.2,252L134,452z"/>
	<path style="fill:#FF9700;" d="M364.4,324H138.8c-3.2,0-5.6-0.8-7.2-4c-1.6-2.4-1.6-5.6,0-8l112.8-191.2c3.2-4.8,11.2-4.8,13.6,0
		L370.8,312c1.6,2.4,1.6,4.8,0,8C370,323.2,366.8,324,364.4,324z M153.2,308H350l-98.4-167.2L153.2,308z"/>
	<path style="fill:#FF9700;" d="M251.6,316c-34.4,0-62.4-28-62.4-62.4s28-62.4,62.4-62.4s62.4,28,62.4,62.4S286,316,251.6,316z
		 M251.6,207.2c-25.6,0-46.4,20.8-46.4,46.4S226,300,251.6,300s46.4-20.8,46.4-46.4S277.2,207.2,251.6,207.2z"/>
</g>
<g>
</g>
<g>
</g>
<g>
</g>
<g>
</g>
<g>
</g>
<g>
</g>
<g>
</g>
<g>
</g>
<g>
</g>
<g>
</g>
<g>
</g>
<g>
</g>
<g>
</g>
<g>
</g>
<g>
</g>
</svg>
