<?xml version="1.0" encoding="iso-8859-1"?>
<!-- Generator: Adobe Illustrator 19.0.0, SVG Export Plug-In . SVG Version: 6.00 Build 0)  -->
<svg version="1.1" id="Layer_1" xmlns="http://www.w3.org/2000/svg" xmlns:xlink="http://www.w3.org/1999/xlink" x="0px" y="0px"
	 viewBox="0 0 504 504" style="enable-background:new 0 0 504 504;" xml:space="preserve">
<g>
	<path style="fill:#C3D7DD;" d="M407.2,340h-16c-2.4,0-4-1.6-4-4s1.6-4,4-4h16c2.4,0,4,1.6,4,4S409.6,340,407.2,340z M375.2,340h-16
		c-2.4,0-4-1.6-4-4s1.6-4,4-4h16c2.4,0,4,1.6,4,4S377.6,340,375.2,340z M343.2,340h-16c-2.4,0-4-1.6-4-4s1.6-4,4-4h16
		c2.4,0,4,1.6,4,4S345.6,340,343.2,340z M311.2,340h-16c-2.4,0-4-1.6-4-4s1.6-4,4-4h16c2.4,0,4,1.6,4,4S313.6,340,311.2,340z
		 M279.2,340h-16c-2.4,0-4-1.6-4-4s1.6-4,4-4h16c2.4,0,4,1.6,4,4S281.6,340,279.2,340z M247.2,340h-16c-2.4,0-4-1.6-4-4s1.6-4,4-4
		h16c2.4,0,4,1.6,4,4S249.6,340,247.2,340z M215.2,340h-16c-2.4,0-4-1.6-4-4s1.6-4,4-4h16c2.4,0,4,1.6,4,4S217.6,340,215.2,340z
		 M183.2,340h-16c-2.4,0-4-1.6-4-4s1.6-4,4-4h16c2.4,0,4,1.6,4,4S185.6,340,183.2,340z M151.2,340h-16c-2.4,0-4-1.6-4-4s1.6-4,4-4
		h16c2.4,0,4,1.6,4,4S153.6,340,151.2,340z M119.2,340h-16c-2.4,0-4-1.6-4-4s1.6-4,4-4h16c2.4,0,4,1.6,4,4S121.6,340,119.2,340z
		 M97.6,336.8c-0.8,0-1.6,0-2.4-0.8c-1.6-0.8-2.4-3.2-1.6-5.6l8-13.6c0.8-1.6,3.2-2.4,5.6-1.6c1.6,0.8,2.4,3.2,1.6,5.6l-8,13.6
		C100.8,336,99.2,336.8,97.6,336.8z M402.4,331.2c-1.6,0-2.4-0.8-3.2-1.6l-8-13.6c-0.8-1.6-0.8-4,1.6-5.6c1.6-0.8,4-0.8,5.6,1.6
		l8,13.6c0.8,1.6,0.8,4-1.6,5.6C404,331.2,403.2,331.2,402.4,331.2z M114.4,308.8c-0.8,0-1.6,0-2.4-0.8c-1.6-0.8-2.4-3.2-1.6-5.6
		l8-13.6c0.8-1.6,3.2-2.4,5.6-1.6c1.6,0.8,2.4,3.2,1.6,5.6l-8,13.6C116.8,308.8,115.2,308.8,114.4,308.8z M386.4,303.2
		c-1.6,0-2.4-0.8-3.2-1.6l-8-13.6c-0.8-1.6-0.8-4,1.6-5.6c1.6-0.8,4-0.8,5.6,1.6l8,13.6c0.8,1.6,0.8,4-1.6,5.6
		C388,303.2,387.2,303.2,386.4,303.2z M130.4,281.6c-0.8,0-1.6,0-2.4-0.8c-1.6-0.8-2.4-3.2-1.6-5.6l8-13.6c0.8-1.6,3.2-2.4,5.6-1.6
		c1.6,0.8,2.4,3.2,1.6,5.6l-8,13.6C132.8,280.8,132,281.6,130.4,281.6z M370.4,276c-1.6,0-2.4-0.8-3.2-1.6l-8-13.6
		c-0.8-1.6-0.8-4,1.6-5.6c1.6-0.8,4-0.8,5.6,1.6l8,13.6c0.8,1.6,0.8,4-1.6,5.6C372,276,371.2,276,370.4,276z M146.4,253.6
		c-0.8,0-1.6,0-2.4-0.8c-1.6-0.8-2.4-3.2-1.6-5.6l8-13.6c0.8-1.6,3.2-2.4,5.6-1.6c1.6,0.8,2.4,3.2,1.6,5.6l-8,13.6
		C149.6,253.6,148,253.6,146.4,253.6z M354.4,248c-1.6,0-2.4-0.8-3.2-1.6l-8-13.6c-0.8-1.6-0.8-4,1.6-5.6c1.6-0.8,4-0.8,5.6,1.6
		l8,13.6c0.8,1.6,0.8,4-1.6,5.6C355.2,248,354.4,248,354.4,248z M163.2,226.4c-0.8,0-1.6,0-2.4-0.8c-1.6-0.8-2.4-3.2-1.6-5.6l8-13.6
		c0.8-1.6,3.2-2.4,5.6-1.6c1.6,0.8,2.4,3.2,1.6,5.6l-8,13.6C165.6,225.6,164,226.4,163.2,226.4z M337.6,220.8
		c-1.6,0-2.4-0.8-3.2-1.6l-8-13.6c-0.8-1.6-0.8-4,1.6-5.6c1.6-0.8,4-0.8,5.6,1.6l8,13.6c0.8,1.6,0.8,4-1.6,5.6
		C339.2,220.8,338.4,220.8,337.6,220.8z M179.2,199.2c-0.8,0-1.6,0-2.4-0.8c-1.6-0.8-2.4-3.2-1.6-5.6l8-13.6
		c0.8-1.6,3.2-2.4,5.6-1.6c1.6,0.8,2.4,3.2,1.6,5.6l-8,13.6C181.6,198.4,180,199.2,179.2,199.2z M321.6,192.8
		c-1.6,0-2.4-0.8-3.2-1.6l-8-13.6c-0.8-1.6-0.8-4,1.6-5.6c1.6-0.8,4-0.8,5.6,1.6l8,13.6c0.8,1.6,0.8,4-1.6,5.6
		C323.2,192.8,322.4,192.8,321.6,192.8z M195.2,171.2c-0.8,0-1.6,0-2.4-0.8c-1.6-0.8-2.4-3.2-1.6-5.6l8-13.6
		c0.8-1.6,3.2-2.4,5.6-1.6c1.6,0.8,2.4,3.2,1.6,5.6l-8,13.6C197.6,170.4,196.8,171.2,195.2,171.2z M305.6,165.6
		c-1.6,0-2.4-0.8-3.2-1.6l-8-13.6c-0.8-1.6-0.8-4,1.6-5.6c1.6-0.8,4-0.8,5.6,1.6l8,13.6c0.8,1.6,0.8,4-1.6,5.6
		C307.2,165.6,306.4,165.6,305.6,165.6z M211.2,144c-0.8,0-1.6,0-2.4-0.8c-1.6-0.8-2.4-3.2-1.6-5.6l8-13.6c0.8-1.6,3.2-2.4,5.6-1.6
		c1.6,0.8,2.4,3.2,1.6,5.6l-8,13.6C214.4,143.2,212.8,144,211.2,144z M289.6,137.6c-1.6,0-2.4-0.8-3.2-1.6l-8-13.6
		c-0.8-1.6-0.8-4,1.6-5.6c1.6-0.8,4-0.8,5.6,1.6l8,13.6c0.8,1.6,0.8,4-1.6,5.6C290.4,137.6,289.6,137.6,289.6,137.6z M228,116
		c-0.8,0-1.6,0-2.4-0.8c-1.6-0.8-2.4-3.2-1.6-5.6l8-13.6c0.8-1.6,4-2.4,5.6-1.6s2.4,3.2,1.6,5.6l-8,13.6
		C230.4,115.2,228.8,116,228,116z M272.8,110.4c-1.6,0-2.4-0.8-3.2-1.6l-8-13.6c-0.8-1.6-0.8-4,1.6-5.6s4-0.8,5.6,1.6l8,13.6
		c0.8,1.6,0.8,4-1.6,5.6C274.4,110.4,273.6,110.4,272.8,110.4z M244,88.8c-0.8,0-1.6,0-2.4-0.8c-1.6-0.8-2.4-3.2-1.6-5.6l8-13.6
		c1.6-2.4,5.6-2.4,7.2,0l4.8,8c0.8,1.6,0.8,4-1.6,5.6c-1.6,0.8-4,0.8-5.6-1.6l-0.8-2.4l-4.8,8C246.4,88,245.6,88.8,244,88.8z"/>
	<path style="fill:#C3D7DD;" d="M252,435.2c-1.6,0-2.4-0.8-3.2-1.6l-4.8-8c-0.8-1.6-0.8-4,1.6-5.6c1.6-0.8,4-0.8,5.6,1.6l1.6,2.4
		l4.8-8c0.8-1.6,3.2-2.4,5.6-1.6c1.6,0.8,2.4,3.2,1.6,5.6l-8,13.6C254.4,434.4,253.6,435.2,252,435.2z M239.2,412.8
		c-1.6,0-2.4-0.8-3.2-1.6l-8-13.6c-0.8-1.6-0.8-4,1.6-5.6c1.6-0.8,4-0.8,5.6,1.6l8,13.6c0.8,1.6,0.8,4-1.6,5.6
		C240.8,412.8,240,412.8,239.2,412.8z M268,407.2c-0.8,0-1.6,0-2.4-0.8c-1.6-0.8-2.4-3.2-1.6-5.6l8-13.6c0.8-1.6,3.2-2.4,5.6-1.6
		c1.6,0.8,2.4,3.2,1.6,5.6l-8,13.6C271.2,406.4,269.6,407.2,268,407.2z M223.2,385.6c-1.6,0-2.4-0.8-3.2-1.6l-8-13.6
		c-0.8-1.6-0.8-4,1.6-5.6c1.6-0.8,4-0.8,5.6,1.6l8,13.6c0.8,1.6,0.8,4-1.6,5.6C224,384.8,223.2,385.6,223.2,385.6z M284.8,380
		c-0.8,0-1.6,0-2.4-0.8c-1.6-0.8-2.4-3.2-1.6-5.6l8-13.6c0.8-1.6,4-2.4,5.6-1.6s2.4,3.2,1.6,5.6l-8,13.6
		C287.2,379.2,285.6,380,284.8,380z M206.4,357.6c-1.6,0-2.4-0.8-3.2-1.6l-8-13.6c-0.8-1.6-0.8-4,1.6-5.6c1.6-0.8,4-0.8,5.6,1.6
		l8,13.6c0.8,1.6,0.8,4-1.6,5.6C208,357.6,207.2,357.6,206.4,357.6z M300.8,352c-0.8,0-1.6,0-2.4-0.8c-1.6-0.8-2.4-3.2-1.6-5.6
		l8-13.6c0.8-1.6,4-2.4,5.6-1.6s2.4,3.2,1.6,5.6l-8,13.6C303.2,351.2,302.4,352,300.8,352z M190.4,330.4c-1.6,0-2.4-0.8-3.2-1.6
		l-8-13.6c-0.8-1.6-0.8-4,1.6-5.6c1.6-0.8,4-0.8,5.6,1.6l8,13.6c0.8,1.6,0.8,4-1.6,5.6C192,329.6,191.2,330.4,190.4,330.4z
		 M316.8,324.8c-0.8,0-1.6,0-2.4-0.8c-1.6-0.8-2.4-3.2-1.6-5.6l8-13.6c0.8-1.6,3.2-2.4,5.6-1.6c1.6,0.8,2.4,3.2,1.6,5.6l-8,13.6
		C319.2,324,318.4,324.8,316.8,324.8z M174.4,302.4c-1.6,0-2.4-0.8-3.2-1.6l-8-13.6c-0.8-1.6-0.8-4,1.6-5.6c1.6-0.8,4-0.8,5.6,1.6
		l8,13.6c0.8,1.6,0.8,4-1.6,5.6C176,302.4,175.2,302.4,174.4,302.4z M332.8,296.8c-0.8,0-1.6,0-2.4-0.8c-1.6-0.8-2.4-3.2-1.6-5.6
		l8-13.6c0.8-1.6,3.2-2.4,5.6-1.6c1.6,0.8,2.4,3.2,1.6,5.6l-8,13.6C336,296,334.4,296.8,332.8,296.8z M158.4,275.2
		c-1.6,0-2.4-0.8-3.2-1.6l-8-13.6c-0.8-1.6-0.8-4,1.6-5.6c1.6-0.8,4-0.8,5.6,1.6l8,13.6c0.8,1.6,0.8,4-1.6,5.6
		C159.2,275.2,158.4,275.2,158.4,275.2z M349.6,269.6c-0.8,0-1.6,0-2.4-0.8c-1.6-0.8-2.4-3.2-1.6-5.6l8-13.6
		c0.8-1.6,3.2-2.4,5.6-1.6c1.6,0.8,2.4,3.2,1.6,5.6l-8,13.6C352,268.8,350.4,269.6,349.6,269.6z M141.6,247.2
		c-1.6,0-2.4-0.8-3.2-1.6l-8-13.6c-0.8-1.6-0.8-4,1.6-5.6c1.6-0.8,4-0.8,5.6,1.6l8,13.6c0.8,1.6,0.8,4-1.6,5.6
		C143.2,247.2,142.4,247.2,141.6,247.2z M365.6,241.6c-0.8,0-1.6,0-2.4-0.8c-1.6-0.8-2.4-3.2-1.6-5.6l8-13.6
		c0.8-1.6,3.2-2.4,5.6-1.6c1.6,0.8,2.4,3.2,1.6,5.6l-8,13.6C368,240.8,367.2,241.6,365.6,241.6z M125.6,220c-1.6,0-2.4-0.8-3.2-1.6
		l-8-13.6c-0.8-1.6-0.8-4,1.6-5.6c1.6-0.8,4-0.8,5.6,1.6l8,13.6c0.8,1.6,0.8,4-1.6,5.6C127.2,220,126.4,220,125.6,220z M381.6,214.4
		c-0.8,0-1.6,0-2.4-0.8c-1.6-0.8-2.4-3.2-1.6-5.6l8-13.6c0.8-1.6,3.2-2.4,5.6-1.6c1.6,0.8,2.4,3.2,1.6,5.6l-8,13.6
		C384.8,213.6,383.2,214.4,381.6,214.4z M109.6,192c-1.6,0-2.4-0.8-3.2-1.6l-8-13.6c-0.8-1.6-0.8-4,1.6-5.6c1.6-0.8,4-0.8,5.6,1.6
		l8,13.6c0.8,1.6,0.8,4-1.6,5.6C110.4,192,110.4,192,109.6,192z M397.6,186.4c-0.8,0-1.6,0-2.4-0.8c-1.6-0.8-2.4-3.2-1.6-5.6l8-13.6
		c0.8-1.6,3.2-2.4,5.6-1.6c1.6,0.8,2.4,3.2,1.6,5.6l-8,13.6C400.8,185.6,399.2,186.4,397.6,186.4z M400.8,164h-16c-2.4,0-4-1.6-4-4
		s1.6-4,4-4h16c2.4,0,4,1.6,4,4S403.2,164,400.8,164z M368.8,164h-16c-2.4,0-4-1.6-4-4s1.6-4,4-4h16c2.4,0,4,1.6,4,4
		S371.2,164,368.8,164z M336.8,164h-16c-2.4,0-4-1.6-4-4s1.6-4,4-4h16c2.4,0,4,1.6,4,4S339.2,164,336.8,164z M304.8,164h-16
		c-2.4,0-4-1.6-4-4s1.6-4,4-4h16c2.4,0,4,1.6,4,4S307.2,164,304.8,164z M272.8,164h-16c-2.4,0-4-1.6-4-4s1.6-4,4-4h16
		c2.4,0,4,1.6,4,4S275.2,164,272.8,164z M240.8,164h-16c-2.4,0-4-1.6-4-4s1.6-4,4-4h16c2.4,0,4,1.6,4,4S243.2,164,240.8,164z
		 M208.8,164h-16c-2.4,0-4-1.6-4-4s1.6-4,4-4h16c2.4,0,4,1.6,4,4S211.2,164,208.8,164z M176.8,164h-16c-2.4,0-4-1.6-4-4s1.6-4,4-4
		h16c2.4,0,4,1.6,4,4S179.2,164,176.8,164z M144.8,164h-16c-2.4,0-4-1.6-4-4s1.6-4,4-4h16c2.4,0,4,1.6,4,4S147.2,164,144.8,164z
		 M112.8,164h-16c-2.4,0-4-1.6-4-4s1.6-4,4-4h16c2.4,0,4,1.6,4,4S115.2,164,112.8,164z"/>
</g>
<g>
	<path style="fill:#21CCE8;" d="M252,504C112.8,504,0,391.2,0,252S112.8,0,252,0s252,112.8,252,252S391.2,504,252,504z M252,16
		C121.6,16,16,121.6,16,252s105.6,236,236,236s236-105.6,236-236S382.4,16,252,16z"/>
	<path style="fill:#21CCE8;" d="M409.6,436H94.4c-3.2,0-5.6,0-7.2-2.4s-1.6-4.8,0-7.2l157.6-268c3.2-4.8,11.2-4.8,13.6,0l157.6,268
		c1.6,2.4,1.6,4,0,6.4C415.2,436,412.8,436,409.6,436z M108,420h288L252,176L108,420z"/>
	<path style="fill:#21CCE8;" d="M252,347.2c-3.2,0-5.6-1.6-7.2-4L87.2,74.4c-1.6-2.4-1.6-7.2,0-9.6c1.6-1.6,4-4.8,7.2-4.8h315.2
		c3.2,0,5.6,3.2,7.2,5.6s1.6,6.4,0,8.8l-157.6,268C257.6,344.8,255.2,347.2,252,347.2z M108,76l144,244L396,76H108z"/>
	<path style="fill:#21CCE8;" d="M298.4,260c-4.8,0-8-3.2-8-8c0-7.2-16.8-22.4-38.4-22.4s-38.4,15.2-38.4,22.4c0,4.8-3.2,8-8,8
		s-8-3.2-8-8c0-17.6,24-38.4,54.4-38.4s54.4,20.8,54.4,38.4C306.4,256.8,302.4,260,298.4,260z"/>
	<path style="fill:#21CCE8;" d="M252,290.4c-30.4,0-54.4-20.8-54.4-38.4c0-4.8,3.2-8,8-8s8,3.2,8,8c0,7.2,16.8,22.4,38.4,22.4
		s38.4-15.2,38.4-22.4c0-4.8,3.2-8,8-8s8,3.2,8,8C306.4,269.6,282.4,290.4,252,290.4z"/>
	<path style="fill:#21CCE8;" d="M252,276c-13.6,0-24-10.4-24-24s10.4-24,24-24s24,10.4,24,24S265.6,276,252,276z M252,244
		c-4.8,0-8,3.2-8,8c0,4.8,3.2,8,8,8c4.8,0,8-3.2,8-8C260,247.2,256.8,244,252,244z"/>
</g>
<g>
</g>
<g>
</g>
<g>
</g>
<g>
</g>
<g>
</g>
<g>
</g>
<g>
</g>
<g>
</g>
<g>
</g>
<g>
</g>
<g>
</g>
<g>
</g>
<g>
</g>
<g>
</g>
<g>
</g>
</svg>
