<?xml version="1.0" encoding="iso-8859-1"?>
<!-- Generator: Adobe Illustrator 19.0.0, SVG Export Plug-In . SVG Version: 6.00 Build 0)  -->
<svg version="1.1" id="Layer_1" xmlns="http://www.w3.org/2000/svg" xmlns:xlink="http://www.w3.org/1999/xlink" x="0px" y="0px"
	 viewBox="0 0 496 496" style="enable-background:new 0 0 496 496;" xml:space="preserve">
<circle style="fill:#00A2E2;" cx="248" cy="248" r="240"/>
<path style="fill:#0090E0;" d="M488,248c0,132.8-107.2,240-240,240"/>
<path style="fill:#1DCAFF;" d="M8,248C8,115.2,115.2,8,248,8"/>
<path style="fill:#2F5068;" d="M248,496C111.2,496,0,384.8,0,248S111.2,0,248,0s248,111.2,248,248S384.8,496,248,496z M248,16
	C120,16,16,120,16,248s104,232,232,232s232-104,232-232S376,16,248,16z"/>
<polygon style="fill:#EA789B;" points="248,9.6 41.6,360 454.4,360 "/>
<polygon style="fill:#D14E7D;" points="180.8,360 454.4,360 317.6,127.2 "/>
<g>
	<path style="fill:#2F5068;" d="M454.4,368H41.6c-3.2,0-5.6,0-7.2-2.4c-1.6-2.4-1.6-4.8,0-7.2L241.6,8c3.2-4.8,10.4-4.8,13.6,0
		l206.4,350.4c1.6,2.4,1.6,4,0,6.4C459.2,368,456.8,368,454.4,368z M56,352h384L248,24.8L56,352z"/>
	<path style="fill:#2F5068;" d="M248,493.6c-2.4,0-5.6-1.6-6.4-4L35.2,139.2c-1.6-2.4-1.6-4.8,0-7.2c1.6-3.2,4-4,6.4-4h412
		c3.2,0,5.6,0.8,7.2,3.2s1.6,5.6,0,8L254.4,489.6C253.6,492,250.4,493.6,248,493.6z M56,144l192,327.2L440,144H56z"/>
</g>
<g>
</g>
<g>
</g>
<g>
</g>
<g>
</g>
<g>
</g>
<g>
</g>
<g>
</g>
<g>
</g>
<g>
</g>
<g>
</g>
<g>
</g>
<g>
</g>
<g>
</g>
<g>
</g>
<g>
</g>
</svg>
