<?xml version="1.0" encoding="iso-8859-1"?>
<!-- Generator: Adobe Illustrator 19.0.0, SVG Export Plug-In . SVG Version: 6.00 Build 0)  -->
<svg version="1.1" id="Layer_1" xmlns="http://www.w3.org/2000/svg" xmlns:xlink="http://www.w3.org/1999/xlink" x="0px" y="0px"
	 viewBox="0 0 504.509 504.509" style="enable-background:new 0 0 504.509 504.509;" xml:space="preserve">
<path style="fill:#C3D7DD;" d="M252.509,197.957c-2.4,0-4-1.6-4-4v-8c0-1.6,0.8-2.4,1.6-3.2l7.2-4c1.6-0.8,4-0.8,5.6,1.6
	c0.8,1.6,0.8,4-1.6,5.6l-4.8,2.4v5.6C256.509,195.557,254.909,197.957,252.509,197.957z"/>
<path id="SVGCleanerId_0" style="fill:#C3D7DD;" d="M272.509,177.957c-1.6,0-2.4-0.8-3.2-1.6c-0.8-1.6-0.8-4,1.6-5.6l13.6-8
	c1.6-0.8,4-0.8,5.6,1.6c0.8,1.6,0.8,4-1.6,5.6l-13.6,8C274.109,177.957,273.309,177.957,272.509,177.957z M299.709,161.957
	c-1.6,0-2.4-0.8-3.2-1.6c-0.8-1.6-0.8-4,1.6-5.6l13.6-8c1.6-0.8,4-0.8,5.6,1.6c0.8,1.6,0.8,4-1.6,5.6l-13.6,8
	C301.309,161.957,300.509,161.957,299.709,161.957z M326.909,146.757c-1.6,0-2.4-0.8-3.2-1.6c-0.8-1.6-0.8-4,1.6-5.6l13.6-8
	c1.6-0.8,4-0.8,5.6,1.6c0.8,1.6,0.8,4-1.6,5.6l-13.6,8C328.509,146.757,327.709,146.757,326.909,146.757z M354.109,130.757
	c-1.6,0-2.4-0.8-3.2-1.6c-0.8-1.6-0.8-4,1.6-5.6l13.6-8c1.6-0.8,4-0.8,5.6,1.6c0.8,1.6,0.8,4-1.6,5.6l-13.6,8
	C355.709,130.757,354.909,130.757,354.109,130.757z M381.309,115.557c-1.6,0-2.4-0.8-3.2-1.6c-0.8-1.6-0.8-4,1.6-5.6l13.6-8
	c1.6-0.8,4-0.8,5.6,1.6c0.8,1.6,0.8,4-1.6,5.6l-13.6,8C382.909,114.757,382.109,115.557,381.309,115.557z M408.509,99.557
	c-1.6,0-2.4-0.8-3.2-1.6c-0.8-1.6-0.8-4,1.6-5.6l13.6-8c1.6-0.8,4-0.8,5.6,1.6c0.8,1.6,0.8,4-1.6,5.6l-13.6,8
	C409.309,99.557,409.309,99.557,408.509,99.557z M435.709,84.357c-1.6,0-2.4-0.8-3.2-1.6c-0.8-1.6-0.8-4,1.6-5.6l13.6-8
	c0.8-1.6,3.2-0.8,4.8,0.8c0.8,1.6,0.8,4-1.6,5.6l-13.6,8C436.509,83.557,435.709,84.357,435.709,84.357z M462.109,68.357
	c-1.6,0-2.4-0.8-3.2-1.6c-0.8-1.6-0.8-4,1.6-5.6l13.6-8c1.6-0.8,4-0.8,5.6,1.6c0.8,1.6,0.8,4-1.6,5.6l-13.6,8
	C463.709,68.357,462.909,68.357,462.109,68.357z"/>
<g>
	<path style="fill:#C3D7DD;" d="M492.509,55.557c-0.8,0-1.6,0-2.4-0.8s-1.6-1.6-1.6-2.4c-0.8,0-1.6-0.8-2.4-1.6
		c-0.8-1.6-0.8-4,1.6-5.6l7.2-4c1.6-0.8,3.2-0.8,4.8,0.8c0.8,1.6,0.8,3.2,0,4.8l-4,7.2
		C494.909,54.757,494.109,55.557,492.509,55.557z"/>
	<path style="fill:#C3D7DD;" d="M264.509,443.557c-0.8,0-1.6,0-2.4-0.8c-1.6-0.8-2.4-3.2-1.6-5.6l8-13.6c0.8-1.6,3.2-2.4,5.6-1.6
		c1.6,0.8,2.4,3.2,1.6,5.6l-8,13.6C266.909,442.757,266.109,443.557,264.509,443.557z M280.509,415.557c-0.8,0-1.6,0-2.4-0.8
		c-1.6-0.8-2.4-3.2-1.6-5.6l8-13.6c0.8-1.6,3.2-2.4,5.6-1.6c1.6,0.8,2.4,3.2,1.6,5.6l-8,13.6
		C283.709,414.757,282.109,415.557,280.509,415.557z M297.309,387.557c-0.8,0-1.6,0-2.4-0.8c-1.6-0.8-2.4-3.2-1.6-5.6l8-13.6
		c0.8-1.6,3.2-2.4,5.6-1.6c1.6,0.8,2.4,3.2,1.6,5.6l-8,13.6C299.709,386.757,298.109,387.557,297.309,387.557z M313.309,360.357
		c-0.8,0-1.6,0-2.4-0.8c-1.6-0.8-2.4-3.2-1.6-5.6l8-13.6c0.8-1.6,3.2-2.4,5.6-1.6c1.6,0.8,2.4,3.2,1.6,5.6l-8,13.6
		C315.709,359.557,314.909,360.357,313.309,360.357z M329.309,332.357c-0.8,0-1.6,0-2.4-0.8c-1.6-0.8-2.4-3.2-1.6-5.6l8-13.6
		c0.8-1.6,3.2-2.4,5.6-1.6c1.6,0.8,2.4,3.2,1.6,5.6l-8,13.6C332.509,331.557,330.909,332.357,329.309,332.357z M346.109,305.157
		c-0.8,0-1.6,0-2.4-0.8c-1.6-0.8-2.4-3.2-1.6-5.6l8-13.6c0.8-1.6,3.2-2.4,5.6-1.6c1.6,0.8,2.4,3.2,1.6,5.6l-8,13.6
		C348.509,304.357,346.909,305.157,346.109,305.157z M362.109,277.157c-0.8,0-1.6,0-2.4-0.8c-1.6-0.8-2.4-3.2-1.6-5.6l8-13.6
		c0.8-1.6,3.2-2.4,5.6-1.6c1.6,0.8,2.4,3.2,1.6,5.6l-8,13.6C364.509,276.357,363.709,277.157,362.109,277.157z M378.109,249.157
		c-0.8,0-1.6,0-2.4-0.8c-1.6-0.8-2.4-3.2-1.6-5.6l8-13.6c0.8-1.6,3.2-2.4,5.6-1.6c1.6,0.8,2.4,3.2,1.6,5.6l-8,13.6
		C381.309,248.357,379.709,249.157,378.109,249.157z M394.909,221.957c-0.8,0-1.6,0-2.4-0.8c-1.6-0.8-2.4-3.2-1.6-5.6l8-13.6
		c0.8-1.6,3.2-2.4,5.6-1.6c1.6,0.8,2.4,3.2,1.6,5.6l-8,13.6C397.309,221.157,396.509,221.957,394.909,221.957z M410.909,193.957
		c-0.8,0-1.6,0-2.4-0.8c-1.6-0.8-2.4-3.2-1.6-5.6l8-13.6c0.8-1.6,3.2-2.4,5.6-1.6c1.6,0.8,2.4,3.2,1.6,5.6l-8,13.6
		C414.109,193.157,412.509,193.957,410.909,193.957z M427.709,165.957c-0.8,0-1.6,0-2.4-0.8c-1.6-0.8-2.4-3.2-1.6-5.6l8-13.6
		c0.8-1.6,3.2-2.4,5.6-1.6c1.6,0.8,2.4,3.2,1.6,5.6l-8,13.6C430.109,165.957,428.509,165.957,427.709,165.957z M443.709,138.757
		c-0.8,0-1.6,0-1.6-0.8c-1.6-0.8-2.4-3.2-1.6-5.6l8-13.6c0.8-1.6,3.2-2.4,5.6-1.6c1.6,0.8,2.4,3.2,1.6,5.6l-8,13.6
		C446.109,137.957,445.309,138.757,443.709,138.757z M459.709,110.757c-0.8,0-1.6,0-2.4-0.8c-1.6-0.8-2.4-3.2-1.6-5.6l8-13.6
		c0.8-1.6,3.2-2.4,5.6-1.6c1.6,0.8,2.4,3.2,1.6,5.6l-8,13.6C462.909,109.957,461.309,110.757,459.709,110.757z M476.509,83.557
		c-0.8,0-1.6,0-2.4-0.8c-1.6-0.8-2.4-3.2-1.6-5.6l8-13.6c0.8-1.6,3.2-2.4,5.6-1.6c1.6,0.8,2.4,3.2,1.6,5.6l-8,13.6
		C478.909,82.757,477.309,83.557,476.509,83.557z"/>
	<path style="fill:#C3D7DD;" d="M252.509,463.557h-0.8c-1.6-0.8-3.2-2.4-3.2-4v-8c0-2.4,1.6-4,4-4c0.8,0,2.4,0.8,3.2,1.6
		c0.8,0,2.4,0,3.2,0c1.6,0.8,2.4,3.2,1.6,5.6l-4,7.2C254.909,462.757,254.109,463.557,252.509,463.557z"/>
</g>
<path id="SVGCleanerId_1" style="fill:#C3D7DD;" d="M252.509,440.357c-2.4,0-4-1.6-4-4v-15.2c0-2.4,1.6-4,4-4s4,1.6,4,4v15.2
	C256.509,438.757,254.909,440.357,252.509,440.357z M252.509,409.957c-2.4,0-4-1.6-4-4v-15.2c0-2.4,1.6-4,4-4s4,1.6,4,4v15.2
	C256.509,408.357,254.909,409.957,252.509,409.957z M252.509,379.557c-2.4,0-4-1.6-4-4v-15.2c0-2.4,1.6-4,4-4s4,1.6,4,4v15.2
	C256.509,377.957,254.909,379.557,252.509,379.557z M252.509,349.957c-2.4,0-4-1.6-4-4v-15.2c0-2.4,1.6-4,4-4s4,1.6,4,4v15.2
	C256.509,347.557,254.909,349.957,252.509,349.957z M252.509,318.757c-2.4,0-4-1.6-4-4v-14.4c0-2.4,1.6-4,4-4s4,1.6,4,4v15.2
	C256.509,317.157,254.909,318.757,252.509,318.757z M252.509,289.157c-2.4,0-4-1.6-4-4v-15.2c0-2.4,1.6-4,4-4s4,1.6,4,4v15.2
	C256.509,286.757,254.909,289.157,252.509,289.157z M252.509,258.757c-2.4,0-4-1.6-4-4v-15.2c0-2.4,1.6-4,4-4s4,1.6,4,4v15.2
	C256.509,256.357,254.909,258.757,252.509,258.757z M252.509,228.357c-2.4,0-4-1.6-4-4v-15.2c0-2.4,1.6-4,4-4s4,1.6,4,4v15.2
	C256.509,225.957,254.909,228.357,252.509,228.357z"/>
<path style="fill:#C3D7DD;" d="M252.509,197.957c-2.4,0-4-1.6-4-4v-5.6l-4.8-3.2c-1.6-0.8-2.4-3.2-1.6-5.6c0.8-1.6,3.2-2.4,5.6-1.6
	l7.2,4c1.6,0.8,1.6,2.4,1.6,3.2v8C256.509,195.557,254.909,197.957,252.509,197.957z"/>
<path id="SVGCleanerId_2" style="fill:#C3D7DD;" d="M231.709,177.957c-0.8,0-1.6,0-1.6-0.8l-13.6-8c-1.6-0.8-2.4-3.2-1.6-5.6
	c0.8-1.6,3.2-2.4,5.6-1.6l13.6,8c1.6,0.8,2.4,3.2,1.6,5.6C234.909,177.157,233.309,177.957,231.709,177.957z M205.309,161.957
	c-0.8,0-1.6,0-1.6-0.8l-13.6-8c-1.6-0.8-2.4-3.2-1.6-5.6c0.8-1.6,3.2-2.4,5.6-1.6l13.6,8c1.6,0.8,2.4,3.2,1.6,5.6
	C207.709,161.157,206.109,161.957,205.309,161.957z M178.109,146.757c-0.8,0-1.6,0-1.6-0.8l-13.6-8c-1.6-0.8-2.4-3.2-1.6-5.6
	c0.8-1.6,3.2-2.4,5.6-1.6l13.6,8c1.6,0.8,2.4,3.2,1.6,5.6C180.509,145.957,178.909,146.757,178.109,146.757z M150.909,130.757
	c-0.8,0-1.6,0-1.6-0.8l-13.6-8c-1.6-0.8-2.4-3.2-1.6-5.6c0.8-1.6,3.2-2.4,5.6-1.6l13.6,8c1.6,0.8,2.4,3.2,1.6,5.6
	C153.309,129.957,152.509,130.757,150.909,130.757z M123.709,115.557c-0.8,0-1.6,0-1.6-0.8l-13.6-8c-1.6-0.8-2.4-3.2-1.6-5.6
	c0.8-1.6,3.2-2.4,5.6-1.6l13.6,8c1.6,0.8,2.4,3.2,1.6,5.6C126.109,114.757,125.309,115.557,123.709,115.557z M96.509,99.557
	c-0.8,0-1.6,0-1.6-0.8l-13.6-8c-1.6-0.8-2.4-3.2-1.6-5.6c0.8-1.6,3.2-2.4,5.6-1.6l13.6,8c1.6,0.8,2.4,3.2,1.6,5.6
	C98.909,98.757,98.109,99.557,96.509,99.557z M69.309,84.357c-0.8,0-1.6,0-1.6-0.8l-13.6-8c-2.4-0.8-2.4-3.2-1.6-5.6
	c0.8-1.6,3.2-2.4,5.6-0.8l13.6,8c1.6,0.8,2.4,3.2,1.6,5.6C72.509,83.557,70.909,84.357,69.309,84.357z M42.109,68.357
	c0,0-0.8,0-1.6-0.8l-13.6-7.2c-1.6-1.6-2.4-4-1.6-5.6c0.8-2.4,4-2.4,5.6-1.6l13.6,8c1.6,0.8,2.4,3.2,1.6,5.6
	C45.309,67.557,43.709,68.357,42.109,68.357z"/>
<g>
	<path style="fill:#C3D7DD;" d="M12.509,55.557c-1.6,0-2.4-0.8-3.2-1.6l-4-7.2c-1.6-1.6-0.8-3.2,0-4.8c1.6-1.6,3.2-1.6,4.8-0.8
		l7.2,4c1.6,0.8,2.4,3.2,1.6,5.6c-0.8,0.8-1.6,1.6-2.4,1.6c0,0.8-0.8,1.6-1.6,2.4C14.109,55.557,13.309,55.557,12.509,55.557z"/>
	<path style="fill:#C3D7DD;" d="M240.509,443.557c-1.6,0-2.4-0.8-3.2-1.6l-8-13.6c-0.8-1.6-0.8-4,1.6-5.6c1.6-0.8,4-0.8,5.6,1.6
		l8,13.6c0.8,1.6,0.8,4-1.6,5.6C241.309,442.757,241.309,443.557,240.509,443.557z M223.709,415.557c-1.6,0-2.4-0.8-3.2-1.6l-8-13.6
		c-0.8-1.6-0.8-4,1.6-5.6c1.6-0.8,4-0.8,5.6,1.6l8,13.6c0.8,1.6,0.8,4-1.6,5.6C225.309,415.557,224.509,415.557,223.709,415.557z
		 M207.709,387.557c-1.6,0-2.4-0.8-3.2-1.6l-8-13.6c-0.8-1.6-0.8-4,1.6-5.6c1.6-0.8,4-0.8,5.6,1.6l8,13.6c0.8,1.6,0.8,4-1.6,5.6
		C209.309,387.557,208.509,387.557,207.709,387.557z M191.709,360.357c-1.6,0-2.4-0.8-3.2-1.6l-8-13.6c-0.8-1.6-0.8-4,1.6-5.6
		c1.6-0.8,4-0.8,5.6,1.6l8,13.6c0.8,1.6,0.8,4-1.6,5.6C192.509,359.557,192.509,360.357,191.709,360.357z M174.909,332.357
		c-1.6,0-2.4-0.8-3.2-1.6l-8-13.6c-0.8-1.6-0.8-4,1.6-5.6c1.6-0.8,4-0.8,5.6,1.6l8,13.6c0.8,1.6,0.8,4-1.6,5.6
		C176.509,332.357,175.709,332.357,174.909,332.357z M158.909,305.157c-1.6,0-2.4-0.8-3.2-1.6l-8-13.6c-0.8-1.6-0.8-4,1.6-5.6
		c1.6-0.8,4-0.8,5.6,1.6l8,13.6c0.8,1.6,0.8,4-1.6,5.6C160.509,304.357,159.709,305.157,158.909,305.157z M142.909,277.157
		c-1.6,0-2.4-0.8-3.2-1.6l-8-13.6c-0.8-1.6-0.8-4,1.6-5.6c1.6-0.8,4-0.8,5.6,1.6l8,13.6c0.8,1.6,0.8,4-1.6,5.6
		C143.709,277.157,143.709,277.157,142.909,277.157z M126.109,249.157c-1.6,0-2.4-0.8-3.2-1.6l-8-13.6c-0.8-1.6-0.8-4,1.6-5.6
		c1.6-0.8,4-0.8,5.6,1.6l8,13.6c0.8,1.6,0.8,4-1.6,5.6C127.709,249.157,126.909,249.157,126.109,249.157z M110.109,221.957
		c-1.6,0-2.4-0.8-3.2-1.6l-8-13.6c-0.8-1.6-0.8-4,1.6-5.6c1.6-0.8,4-0.8,5.6,1.6l8,13.6c0.8,1.6,0.8,4-1.6,5.6
		C111.709,221.157,110.909,221.957,110.109,221.957z M94.109,193.957c-1.6,0-2.4-0.8-3.2-1.6l-8-13.6c-0.8-1.6-0.8-4,1.6-5.6
		c1.6-0.8,4-0.8,5.6,1.6l8,13.6c0.8,1.6,0.8,4-1.6,5.6C94.909,193.957,94.909,193.957,94.109,193.957z M77.309,165.957
		c-1.6,0-2.4-0.8-3.2-1.6l-8-13.6c-0.8-1.6-0.8-4,1.6-5.6c1.6-0.8,4-0.8,5.6,1.6l8,13.6c0.8,1.6,0.8,4-1.6,5.6
		C78.909,165.957,78.109,165.957,77.309,165.957z M61.309,138.757c-1.6,0-2.4-0.8-3.2-1.6l-8-13.6c-0.8-1.6-0.8-4,1.6-5.6
		c1.6-0.8,4-0.8,5.6,1.6l8,13.6c0.8,1.6,0.8,4-1.6,5.6C62.909,138.757,62.109,138.757,61.309,138.757z M45.309,110.757
		c-1.6,0-2.4-0.8-3.2-1.6l-8-13.6c-0.8-1.6-0.8-4,1.6-5.6c1.6-0.8,4-0.8,5.6,1.6l8,13.6c0.8,1.6,0.8,4-1.6,5.6
		C46.109,110.757,45.309,110.757,45.309,110.757z M28.509,83.557c-1.6,0-2.4-0.8-3.2-1.6l-8-13.6c-1.6-2.4-0.8-4.8,1.6-6.4
		c1.6-0.8,4,0,4.8,1.6l8,13.6c0.8,1.6,0.8,4-1.6,5.6C30.109,82.757,29.309,83.557,28.509,83.557z"/>
	<path style="fill:#C3D7DD;" d="M252.509,463.557c-1.6,0-2.4-0.8-3.2-1.6l-4-7.2c-0.8-1.6-0.8-4,1.6-5.6c0.8-0.8,2.4-0.8,3.2,0
		c0.8-0.8,1.6-1.6,3.2-1.6c2.4,0,4,1.6,4,4v8c0,1.6-0.8,3.2-3.2,4C253.309,463.557,252.509,463.557,252.509,463.557z"/>
</g>
<g>
	<path id="SVGCleanerId_1_1_" style="fill:#C3D7DD;" d="M252.509,440.357c-2.4,0-4-1.6-4-4v-15.2c0-2.4,1.6-4,4-4s4,1.6,4,4v15.2
		C256.509,438.757,254.909,440.357,252.509,440.357z M252.509,409.957c-2.4,0-4-1.6-4-4v-15.2c0-2.4,1.6-4,4-4s4,1.6,4,4v15.2
		C256.509,408.357,254.909,409.957,252.509,409.957z M252.509,379.557c-2.4,0-4-1.6-4-4v-15.2c0-2.4,1.6-4,4-4s4,1.6,4,4v15.2
		C256.509,377.957,254.909,379.557,252.509,379.557z M252.509,349.957c-2.4,0-4-1.6-4-4v-15.2c0-2.4,1.6-4,4-4s4,1.6,4,4v15.2
		C256.509,347.557,254.909,349.957,252.509,349.957z M252.509,318.757c-2.4,0-4-1.6-4-4v-14.4c0-2.4,1.6-4,4-4s4,1.6,4,4v15.2
		C256.509,317.157,254.909,318.757,252.509,318.757z M252.509,289.157c-2.4,0-4-1.6-4-4v-15.2c0-2.4,1.6-4,4-4s4,1.6,4,4v15.2
		C256.509,286.757,254.909,289.157,252.509,289.157z M252.509,258.757c-2.4,0-4-1.6-4-4v-15.2c0-2.4,1.6-4,4-4s4,1.6,4,4v15.2
		C256.509,256.357,254.909,258.757,252.509,258.757z M252.509,228.357c-2.4,0-4-1.6-4-4v-15.2c0-2.4,1.6-4,4-4s4,1.6,4,4v15.2
		C256.509,225.957,254.909,228.357,252.509,228.357z"/>
</g>
<path style="fill:#C3D7DD;" d="M489.309,52.357c-1.6,0-2.4-0.8-3.2-1.6c-0.8-0.8-0.8-2.4,0-3.2c-0.8-0.8-1.6-1.6-1.6-2.4
	c0-2.4,1.6-4,4-4h8c1.6,0,3.2,1.6,4,3.2s0,3.2-1.6,4.8l-7.2,3.2C490.909,52.357,490.109,52.357,489.309,52.357z"/>
<g>
	<path id="SVGCleanerId_0_1_" style="fill:#C3D7DD;" d="M272.509,177.957c-1.6,0-2.4-0.8-3.2-1.6c-0.8-1.6-0.8-4,1.6-5.6l13.6-8
		c1.6-0.8,4-0.8,5.6,1.6c0.8,1.6,0.8,4-1.6,5.6l-13.6,8C274.109,177.957,273.309,177.957,272.509,177.957z M299.709,161.957
		c-1.6,0-2.4-0.8-3.2-1.6c-0.8-1.6-0.8-4,1.6-5.6l13.6-8c1.6-0.8,4-0.8,5.6,1.6c0.8,1.6,0.8,4-1.6,5.6l-13.6,8
		C301.309,161.957,300.509,161.957,299.709,161.957z M326.909,146.757c-1.6,0-2.4-0.8-3.2-1.6c-0.8-1.6-0.8-4,1.6-5.6l13.6-8
		c1.6-0.8,4-0.8,5.6,1.6c0.8,1.6,0.8,4-1.6,5.6l-13.6,8C328.509,146.757,327.709,146.757,326.909,146.757z M354.109,130.757
		c-1.6,0-2.4-0.8-3.2-1.6c-0.8-1.6-0.8-4,1.6-5.6l13.6-8c1.6-0.8,4-0.8,5.6,1.6c0.8,1.6,0.8,4-1.6,5.6l-13.6,8
		C355.709,130.757,354.909,130.757,354.109,130.757z M381.309,115.557c-1.6,0-2.4-0.8-3.2-1.6c-0.8-1.6-0.8-4,1.6-5.6l13.6-8
		c1.6-0.8,4-0.8,5.6,1.6c0.8,1.6,0.8,4-1.6,5.6l-13.6,8C382.909,114.757,382.109,115.557,381.309,115.557z M408.509,99.557
		c-1.6,0-2.4-0.8-3.2-1.6c-0.8-1.6-0.8-4,1.6-5.6l13.6-8c1.6-0.8,4-0.8,5.6,1.6c0.8,1.6,0.8,4-1.6,5.6l-13.6,8
		C409.309,99.557,409.309,99.557,408.509,99.557z M435.709,84.357c-1.6,0-2.4-0.8-3.2-1.6c-0.8-1.6-0.8-4,1.6-5.6l13.6-8
		c0.8-1.6,3.2-0.8,4.8,0.8c0.8,1.6,0.8,4-1.6,5.6l-13.6,8C436.509,83.557,435.709,84.357,435.709,84.357z M462.109,68.357
		c-1.6,0-2.4-0.8-3.2-1.6c-0.8-1.6-0.8-4,1.6-5.6l13.6-8c1.6-0.8,4-0.8,5.6,1.6c0.8,1.6,0.8,4-1.6,5.6l-13.6,8
		C463.709,68.357,462.909,68.357,462.109,68.357z"/>
</g>
<path style="fill:#C3D7DD;" d="M252.509,189.957c-0.8,0-1.6,0-1.6-0.8l-7.2-4c-1.6-0.8-2.4-3.2-1.6-5.6c0.8-1.6,3.2-2.4,5.6-1.6
	l4.8,3.2l4.8-3.2c1.6-0.8,4-0.8,5.6,1.6c0.8,1.6,0.8,4-1.6,5.6l-7.2,4C254.109,189.157,253.309,189.957,252.509,189.957z"/>
<g>
	<path id="SVGCleanerId_2_1_" style="fill:#C3D7DD;" d="M231.709,177.957c-0.8,0-1.6,0-1.6-0.8l-13.6-8c-1.6-0.8-2.4-3.2-1.6-5.6
		c0.8-1.6,3.2-2.4,5.6-1.6l13.6,8c1.6,0.8,2.4,3.2,1.6,5.6C234.909,177.157,233.309,177.957,231.709,177.957z M205.309,161.957
		c-0.8,0-1.6,0-1.6-0.8l-13.6-8c-1.6-0.8-2.4-3.2-1.6-5.6c0.8-1.6,3.2-2.4,5.6-1.6l13.6,8c1.6,0.8,2.4,3.2,1.6,5.6
		C207.709,161.157,206.109,161.957,205.309,161.957z M178.109,146.757c-0.8,0-1.6,0-1.6-0.8l-13.6-8c-1.6-0.8-2.4-3.2-1.6-5.6
		c0.8-1.6,3.2-2.4,5.6-1.6l13.6,8c1.6,0.8,2.4,3.2,1.6,5.6C180.509,145.957,178.909,146.757,178.109,146.757z M150.909,130.757
		c-0.8,0-1.6,0-1.6-0.8l-13.6-8c-1.6-0.8-2.4-3.2-1.6-5.6c0.8-1.6,3.2-2.4,5.6-1.6l13.6,8c1.6,0.8,2.4,3.2,1.6,5.6
		C153.309,129.957,152.509,130.757,150.909,130.757z M123.709,115.557c-0.8,0-1.6,0-1.6-0.8l-13.6-8c-1.6-0.8-2.4-3.2-1.6-5.6
		c0.8-1.6,3.2-2.4,5.6-1.6l13.6,8c1.6,0.8,2.4,3.2,1.6,5.6C126.109,114.757,125.309,115.557,123.709,115.557z M96.509,99.557
		c-0.8,0-1.6,0-1.6-0.8l-13.6-8c-1.6-0.8-2.4-3.2-1.6-5.6c0.8-1.6,3.2-2.4,5.6-1.6l13.6,8c1.6,0.8,2.4,3.2,1.6,5.6
		C98.909,98.757,98.109,99.557,96.509,99.557z M69.309,84.357c-0.8,0-1.6,0-1.6-0.8l-13.6-8c-2.4-0.8-2.4-3.2-1.6-5.6
		c0.8-1.6,3.2-2.4,5.6-0.8l13.6,8c1.6,0.8,2.4,3.2,1.6,5.6C72.509,83.557,70.909,84.357,69.309,84.357z M42.109,68.357
		c0,0-0.8,0-1.6-0.8l-13.6-7.2c-1.6-1.6-2.4-4-1.6-5.6c0.8-2.4,4-2.4,5.6-1.6l13.6,8c1.6,0.8,2.4,3.2,1.6,5.6
		C45.309,67.557,43.709,68.357,42.109,68.357z"/>
</g>
<g>
	<path style="fill:#C3D7DD;" d="M14.909,52.357c0,0-0.8,0-1.6,0l-7.2-4c-1.6-0.8-1.6-3.2-1.6-4.8c0.8-1.6,2.4-3.2,4-3.2h8
		c2.4,0.8,4,2.4,4,4.8c0,0.8-0.8,2.4-1.6,3.2c0,0.8,0,2.4,0,3.2C18.109,52.357,16.509,52.357,14.909,52.357z"/>
	<path style="fill:#C3D7DD;" d="M472.509,49.157h-16c-2.4,0-4-1.6-4-4s1.6-4,4-4h16c2.4,0,4,1.6,4,4
		C476.509,46.757,474.109,49.157,472.509,49.157z M439.709,49.157h-16c-2.4,0-4-1.6-4-4s1.6-4,4-4h16c2.4,0,4,1.6,4,4
		C443.709,46.757,442.109,49.157,439.709,49.157z M406.909,49.157h-16c-2.4,0-4-1.6-4-4s1.6-4,4-4h16c2.4,0,4,1.6,4,4
		C410.909,46.757,409.309,49.157,406.909,49.157z M374.909,49.157h-16c-2.4,0-4-1.6-4-4s1.6-4,4-4h16c2.4,0,4,1.6,4,4
		C378.109,46.757,376.509,49.157,374.909,49.157z M342.109,49.157h-16c-2.4,0-4-1.6-4-4s1.6-4,4-4h16c2.4,0,4,1.6,4,4
		C346.109,46.757,344.509,49.157,342.109,49.157z M309.309,49.157h-16c-2.4,0-4-1.6-4-4s1.6-4,4-4h16c2.4,0,4,1.6,4,4
		C313.309,46.757,311.709,49.157,309.309,49.157z M276.509,49.157h-16c-2.4,0-4-1.6-4-4s1.6-4,4-4h16c2.4,0,4,1.6,4,4
		C280.509,46.757,278.909,49.157,276.509,49.157z M244.509,49.157h-16c-2.4,0-4-1.6-4-4s1.6-4,4-4h16c2.4,0,4,1.6,4,4
		C248.509,46.757,246.109,49.157,244.509,49.157z M211.709,49.157h-16c-2.4,0-4-1.6-4-4s1.6-4,4-4h16c2.4,0,4,1.6,4,4
		C215.709,46.757,214.109,49.157,211.709,49.157z M178.909,49.157h-16c-2.4,0-4-1.6-4-4s1.6-4,4-4h16c2.4,0,4,1.6,4,4
		C182.909,46.757,181.309,49.157,178.909,49.157z M146.909,49.157h-16c-2.4,0-4-1.6-4-4s1.6-4,4-4h16c2.4,0,4,1.6,4,4
		C150.909,46.757,148.509,49.157,146.909,49.157z M114.109,49.157h-16c-2.4,0-4-1.6-4-4s1.6-4,4-4h16c2.4,0,4,1.6,4,4
		C118.109,46.757,116.509,49.157,114.109,49.157z M81.309,49.157h-16c-2.4,0-4-1.6-4-4s1.6-4,4-4h16c2.4,0,4,1.6,4,4
		C85.309,46.757,83.709,49.157,81.309,49.157z M49.309,49.157h-16c-3.2,0-4.8-2.4-4.8-4c0-2.4,1.6-4,4-4h16c2.4,0,4,1.6,4,4
		C52.509,46.757,50.909,49.157,49.309,49.157z"/>
</g>
<g>
	<path style="fill:#1AC4FF;" d="M8.509,467.557c-2.4,0-4-0.8-5.6-2.4c-2.4-2.4-3.2-6.4-1.6-9.6l244-414.4c1.6-3.2,5.6-4.8,8.8-4
		c3.2,0.8,5.6,4,5.6,8v274.4c0,3.2-1.6,5.6-4,7.2l-243.2,140C10.909,467.557,10.109,467.557,8.509,467.557z M244.509,73.957
		l-214.4,364l214.4-123.2V73.957z"/>
	<path style="fill:#1AC4FF;" d="M496.509,467.557c-1.6,0-2.4,0-4-0.8l-244-140.8c-2.4-1.6-4-4-4-7.2v-273.6c0-3.2,2.4-6.4,5.6-8
		c3.2-0.8,7.2,0.8,8.8,4l244,415.2c1.6,3.2,1.6,7.2-1.6,9.6C500.509,466.757,498.109,467.557,496.509,467.557z M260.509,314.757
		l213.6,123.2l-213.6-364V314.757z"/>
	<path style="fill:#1AC4FF;" d="M496.509,467.557L496.509,467.557h-488c-3.2,0-6.4-2.4-8-5.6s0.8-7.2,4-8.8l244-140.8
		c2.4-1.6,5.6-1.6,8,0l243.2,140c3.2,0.8,4.8,4,4.8,7.2C504.509,464.357,501.309,467.557,496.509,467.557z M38.109,452.357h428.8
		l-214.4-124L38.109,452.357z"/>
</g>
<g>
</g>
<g>
</g>
<g>
</g>
<g>
</g>
<g>
</g>
<g>
</g>
<g>
</g>
<g>
</g>
<g>
</g>
<g>
</g>
<g>
</g>
<g>
</g>
<g>
</g>
<g>
</g>
<g>
</g>
</svg>
