<?xml version="1.0" encoding="iso-8859-1"?>
<!-- Generator: Adobe Illustrator 19.0.0, SVG Export Plug-In . SVG Version: 6.00 Build 0)  -->
<svg version="1.1" id="Layer_1" xmlns="http://www.w3.org/2000/svg" xmlns:xlink="http://www.w3.org/1999/xlink" x="0px" y="0px"
	 viewBox="0 0 508.8 508.8" style="enable-background:new 0 0 508.8 508.8;" xml:space="preserve">
<path style="fill:#C3D7DD;" d="M254.8,463h-1.6c-2.4,0-4-1.6-4-4s1.6-4,4-4l0,0h1.6c4.8,0,9.6,0,13.6,0c2.4,0,4,1.6,4.8,4
	c0,2.4-1.6,4-3.2,4C264.4,463,259.6,463,254.8,463z M237.2,463L237.2,463c-5.6-0.8-11.2-1.6-16.8-3.2c-2.4-0.8-3.2-2.4-3.2-4.8
	c0.8-2.4,2.4-3.2,4.8-3.2c4.8,1.6,10.4,2.4,15.2,3.2c2.4,0,4,2.4,3.2,4.8C241.2,461.4,239.6,463,237.2,463z M285.2,460.6
	c-1.6,0-3.2-1.6-4-3.2c-0.8-2.4,0.8-4,3.2-4.8c4.8-0.8,10.4-2.4,15.2-4.8c2.4-0.8,4,0,4.8,2.4s0,4-2.4,4.8c-4.8,1.6-10.4,3.2-16,4.8
	C285.2,460.6,285.2,460.6,285.2,460.6z M206,455c-0.8,0-0.8,0-1.6,0c-4.8-2.4-10.4-4-15.2-7.2c-1.6-0.8-2.4-3.2-1.6-5.6
	c0.8-1.6,3.2-2.4,5.6-1.6c4.8,2.4,9.6,4.8,14.4,6.4c2.4,0.8,3.2,3.2,2.4,4.8C209.2,454.2,207.6,455,206,455z M314.8,449.4
	c-1.6,0-3.2-0.8-3.2-2.4c-0.8-1.6,0-4,1.6-5.6c4.8-2.4,8.8-4.8,13.6-8c1.6-1.6,4-0.8,5.6,0.8c1.6,1.6,0.8,4-0.8,5.6
	c-4.8,3.2-9.6,5.6-14.4,8.8C316.4,449.4,315.6,449.4,314.8,449.4z M178,439.8c-0.8,0-1.6,0-2.4-0.8c-4.8-3.2-8.8-6.4-12.8-10.4
	c-1.6-1.6-1.6-4,0-5.6s4-1.6,5.6,0c4,3.2,8,6.4,12,9.6c1.6,1.6,2.4,4,0.8,5.6C181.2,439,179.6,439.8,178,439.8z M341.2,431.8
	c-0.8,0-2.4-0.8-3.2-1.6c-1.6-1.6-1.6-4,0-5.6c4-3.2,8-7.2,11.2-11.2c1.6-1.6,4-1.6,5.6,0s1.6,4,0,5.6c-4,4-7.2,8-12,11.2
	C342.8,431.8,342,431.8,341.2,431.8z M154.8,418.2c-0.8,0-2.4-0.8-3.2-1.6c-3.2-4-7.2-8.8-9.6-12.8c-1.6-1.6-0.8-4,0.8-5.6
	s4-0.8,5.6,0.8c3.2,4,5.6,8.8,9.6,12c1.6,1.6,1.6,4-0.8,5.6C156.4,418.2,155.6,418.2,154.8,418.2z M362.8,407.8
	c-0.8,0-1.6,0-2.4-0.8c-1.6-1.6-2.4-4-0.8-5.6c3.2-4,5.6-8.8,8-13.6c0.8-1.6,3.2-2.4,5.6-1.6c1.6,0.8,2.4,3.2,1.6,5.6
	c-2.4,4.8-5.6,9.6-8.8,14.4C365.2,407.8,363.6,407.8,362.8,407.8z M137.2,391.8c-1.6,0-3.2-0.8-3.2-2.4c-2.4-4.8-4.8-9.6-6.4-15.2
	c-0.8-2.4,0-4,2.4-4.8s4,0,4.8,2.4c1.6,4.8,4,9.6,6.4,14.4c0.8,1.6,0,4-1.6,5.6C138.8,391.8,138,391.8,137.2,391.8z M377.2,379.8
	c-0.8,0-0.8,0-1.6,0c-2.4-0.8-3.2-3.2-2.4-4.8c1.6-4.8,3.2-9.6,4.8-14.4c0.8-2.4,2.4-3.2,4.8-3.2c2.4,0.8,3.2,2.4,3.2,4.8
	c-1.6,5.6-3.2,10.4-4.8,16C380.4,379,378.8,379.8,377.2,379.8z M126.8,361.4c-1.6,0-3.2-1.6-4-3.2c-0.8-5.6-2.4-11.2-2.4-16
	c0-2.4,1.6-4,4-4s4,1.6,4,4c0.8,4.8,1.6,10.4,2.4,15.2c0.8,2.4-0.8,4-3.2,4.8C126.8,361.4,126.8,361.4,126.8,361.4z M385.2,348.6
	L385.2,348.6c-2.4,0-4-2.4-4-4.8c0.8-4.8,0.8-10.4,0.8-15.2c0-2.4,1.6-4,4-4s4,1.6,4,4c0,5.6,0,11.2-0.8,16.8
	C389.2,347,386.8,348.6,385.2,348.6z M123.6,327L123.6,327c-2.4,0-4-0.8-4-2.4c0-5.6,0.8-10.4,1.6-16c0-2.4,2.4-3.2,4.8-3.2
	s4,2.4,3.2,4.8c-0.8,4.8-0.8,8.8-1.6,14.4C127.6,326.2,126,327,123.6,327z M386,327c-2.4,0-4-3.2-4-5.6c0-4.8-0.8-11.2-2.4-16
	c-0.8-2.4,0.8-4.8,3.2-4.8c2.4-0.8,4,0.8,4.8,3.2c0.8,5.6,1.6,12.8,2.4,18.4C390,323,388.4,327,386,327L386,327z M128.4,298.2h-0.8
	c-2.4-0.8-3.2-2.4-3.2-4.8c1.6-5.6,3.2-10.4,5.6-16c0.8-2.4,3.2-3.2,5.6-2.4c2.4,0.8,3.2,3.2,2.4,5.6c-1.6,4.8-4,9.6-4.8,14.4
	C131.6,296.6,130,298.2,128.4,298.2z M379.6,291.8c-1.6,0-3.2-0.8-4-2.4c-1.6-4.8-3.2-9.6-5.6-14.4c-0.8-1.6,0-4,1.6-5.6
	c1.6-0.8,4,0,5.6,1.6c2.4,4.8,4,10.4,6.4,15.2c0.8,2.4-0.8,4-2.4,4.8C380.4,291.8,380.4,291.8,379.6,291.8z M140.4,268.6
	c-0.8,0-1.6,0-1.6-0.8c-1.6-0.8-2.4-3.2-1.6-5.6c2.4-4.8,5.6-9.6,8.8-13.6c1.6-1.6,4-2.4,5.6-0.8c1.6,1.6,2.4,4,0.8,5.6
	c-3.2,4-5.6,8.8-8.8,12.8C142.8,267.8,142,268.6,140.4,268.6z M366,263c-1.6,0-2.4-0.8-3.2-1.6c-2.4-4-5.6-8.8-8.8-12.8
	c-1.6-1.6-0.8-4,0.8-5.6c1.6-1.6,4-0.8,5.6,0.8c3.2,4,6.4,8.8,9.6,13.6c0.8,1.6,0.8,4-1.6,5.6C367.6,263,366.8,263,366,263z
	 M158.8,243c-0.8,0-1.6,0-2.4-0.8c-1.6-1.6-1.6-4,0-5.6c4-4,8-8,12-11.2c1.6-1.6,4-1.6,5.6,0.8c1.6,1.6,0.8,4-0.8,5.6
	c-4,3.2-8,7.2-11.2,10.4C161.2,242.2,160.4,243,158.8,243z M346,238.2c-0.8,0-1.6,0-2.4-0.8c-4-3.2-8-7.2-12-10.4
	c-1.6-1.6-2.4-4-0.8-5.6s4-2.4,5.6-0.8c4,3.2,8.8,7.2,12.8,10.4c1.6,1.6,1.6,4,0,5.6C348.4,238.2,346.8,238.2,346,238.2z
	 M183.6,222.2c-1.6,0-2.4-0.8-3.2-1.6c-0.8-1.6-0.8-4,0.8-5.6c4.8-3.2,9.6-5.6,14.4-8c2.4-0.8,4,0,5.6,1.6c0.8,1.6,0,4-1.6,5.6
	c-4.8,2.4-8.8,4.8-13.6,7.2C185.2,222.2,184.4,222.2,183.6,222.2z M320.4,219c-0.8,0-1.6,0-1.6-0.8c-4.8-2.4-8.8-4.8-13.6-7.2
	c-2.4-0.8-3.2-3.2-2.4-5.6s3.2-3.2,5.6-2.4c4.8,2.4,9.6,4.8,14.4,7.2c1.6,0.8,2.4,3.2,1.6,5.6C322.8,218.2,322,219,320.4,219z
	 M212.4,208.6c-1.6,0-3.2-0.8-4-2.4c-0.8-2.4,0.8-4,2.4-4.8c4.8-1.6,10.4-3.2,16-4c2.4-0.8,4,0.8,4.8,3.2s-0.8,4-3.2,4.8
	c-4.8,0.8-10.4,2.4-15.2,4C213.2,208.6,212.4,208.6,212.4,208.6z M290.8,207H290c-4.8-1.6-10.4-2.4-15.2-3.2c-2.4,0-4-2.4-3.2-4.8
	c0-2.4,2.4-4,4.8-3.2c5.6,0.8,11.2,2.4,16,3.2c2.4,0.8,3.2,3.2,2.4,4.8C294.8,205.4,293.2,207,290.8,207z M243.6,202.2
	c-2.4,0-4-1.6-4-4s1.6-4,4-4c5.6-0.8,11.2-0.8,16.8-0.8c2.4,0,4,1.6,4,4s-1.6,4-4,4C254,201.4,249.2,201.4,243.6,202.2L243.6,202.2z
	"/>
<g>
	<path style="fill:#FF9700;" d="M501.2,471H8.4c-3.2,0-5.6-0.8-7.2-3.2c-1.6-2.4-1.6-5.6,0-8L247.6,41.4c3.2-4.8,11.2-4.8,13.6,0
		l246.4,419.2c1.6,2.4,1.6,4.8,0,7.2C506.8,470.2,503.6,471,501.2,471z M22.8,455h464l-232-395.2L22.8,455z"/>
	<path style="fill:#FF9700;" d="M254.8,423.8c-1.6,0-2.4,0-4-0.8l-73.6-43.2c-2.4-2.4-2.4-4.8-2.4-8v-86.4c0-3.2,0-5.6,2.4-7.2
		l74.4-43.2c2.4-1.6,4.8-1.6,8,0l73.6,43.2c2.4,1.6,2.4,4,2.4,7.2v86.4c0,3.2,0,5.6-2.4,7.2l-74.4,43.2
		C257.2,423,256.4,423.8,254.8,423.8z M190.8,367.8l64,38.4l64-38.4v-77.6l-64-38.4l-64,38.4V367.8z"/>
	<path style="fill:#FF9700;" d="M326.8,377.4c-1.6,0-5.6-0.8-6.4-1.6l-65.6-38.4l-71.2,40.8c-4,2.4-4,0-6.4-4s0.8-11.2,4.8-12.8
		l68.8-40c2.4-1.6,5.6-1.6,8,0l69.6,40c4,2.4,7.2,8.8,4.8,12.8C331.6,376.6,330,377.4,326.8,377.4z"/>
	<path style="fill:#FF9700;" d="M254.8,336.6c-4.8,0-8-3.2-8-8v-84.8c0-4.8,3.2-8,8-8c4.8,0,8,3.2,8,8v84.8
		C262.8,333.4,259.6,336.6,254.8,336.6z"/>
	<path style="fill:#FF9700;" d="M254.8,336.6c-1.6,0-2.4,0-4-0.8l-68.8-40c-4-2.4-5.6-8.8-4-12c2.4-4,6.4-4.8,10.4-2.4l66.4,38.4
		l67.2-38.4c4-2.4,8-1.6,10.4,2.4s0.8,9.6-3.2,12l-70.4,40.8C257.2,336.6,256.4,336.6,254.8,336.6z"/>
	<path style="fill:#FF9700;" d="M254.8,421.4c-4.8,0-8-3.2-8-8v-84.8c0-4.8,3.2-8,8-8c4.8,0,8,3.2,8,8v84.8
		C262.8,417.4,259.6,421.4,254.8,421.4z"/>
</g>
<g>
</g>
<g>
</g>
<g>
</g>
<g>
</g>
<g>
</g>
<g>
</g>
<g>
</g>
<g>
</g>
<g>
</g>
<g>
</g>
<g>
</g>
<g>
</g>
<g>
</g>
<g>
</g>
<g>
</g>
</svg>
