<?xml version="1.0" encoding="iso-8859-1"?>
<!-- Generator: Adobe Illustrator 19.0.0, SVG Export Plug-In . SVG Version: 6.00 Build 0)  -->
<svg version="1.1" id="Layer_1" xmlns="http://www.w3.org/2000/svg" xmlns:xlink="http://www.w3.org/1999/xlink" x="0px" y="0px"
	 viewBox="0 0 504 504" style="enable-background:new 0 0 504 504;" xml:space="preserve">
<g>
	<path style="fill:#C3D7DD;" d="M252,441.6c-4,0-8,0-12.8,0c-2.4,0-4-2.4-4-4c0-2.4,2.4-4,4-4c4,0,8,1.6,12,1.6l4,0.8l0,0
		c2.4,0,4,0.8,4,2.4c0,2.4-1.6,3.2-4,3.2H252z M272,440.8c-2.4,0-4-1.6-4-3.2c0-2.4,1.6-4,3.2-4c5.6-0.8,10.4-1.6,15.2-2.4
		c2.4,0,4,0.8,4.8,3.2c0.8,2.4-0.8,4-3.2,4.8C283.2,439.2,277.6,440,272,440.8L272,440.8z M224,439.2
		C224,439.2,223.2,439.2,224,439.2c-5.6-0.8-11.2-1.6-16.8-3.2c-2.4,0-3.2-2.4-3.2-4.8c0.8-2.4,2.4-3.2,4.8-3.2
		c4.8,1.6,10.4,2.4,15.2,3.2c2.4,0,4,2.4,3.2,4.8C227.2,438.4,225.6,439.2,224,439.2z M303.2,434.4c-1.6,0-3.2-0.8-4-3.2
		c-0.8-2.4,0.8-4,2.4-4.8c4.8-1.6,10.4-3.2,15.2-4.8c2.4-0.8,4,0,4.8,2.4s0,4-2.4,4.8c-4.8,1.6-10.4,4-15.2,4.8
		C304,434.4,303.2,434.4,303.2,434.4z M192.8,432c-0.8,0-0.8,0-1.6,0c-4.8-1.6-10.4-4-15.2-5.6c-2.4-0.8-3.2-3.2-2.4-5.6
		s3.2-3.2,5.6-2.4c4.8,2.4,9.6,4,14.4,5.6c2.4,0.8,3.2,3.2,2.4,4.8C196,431.2,194.4,432,192.8,432z M332.8,423.2
		c-1.6,0-3.2-0.8-3.2-2.4c-0.8-1.6,0-4,1.6-5.6c4.8-2.4,9.6-4.8,13.6-7.2c1.6-0.8,4-0.8,5.6,1.6c0.8,1.6,0.8,4-1.6,5.6
		c-4.8,2.4-9.6,5.6-14.4,8C334.4,423.2,333.6,423.2,332.8,423.2z M163.2,419.2c-0.8,0-1.6,0-1.6-0.8c-4.8-2.4-9.6-5.6-14.4-8.8
		c-1.6-1.6-2.4-4-0.8-5.6c1.6-1.6,4-2.4,5.6-0.8c4,3.2,8.8,5.6,13.6,8c1.6,0.8,2.4,3.2,1.6,5.6C166.4,418.4,164.8,419.2,163.2,419.2
		z M360,406.4c-1.6,0-2.4-0.8-3.2-1.6c-1.6-1.6-0.8-4,0.8-5.6c4-3.2,8-6.4,12-9.6c1.6-1.6,4-1.6,5.6,0.8c1.6,1.6,1.6,4-0.8,5.6
		c-4,3.2-8.8,7.2-12.8,10.4C361.6,406.4,360.8,406.4,360,406.4z M136.8,401.6c-0.8,0-1.6,0-2.4-0.8c-4-3.2-8.8-7.2-12-10.4
		c-1.6-1.6-1.6-4,0-5.6c1.6-1.6,4-1.6,5.6,0c4,3.2,8,7.2,12,10.4c1.6,1.6,2.4,4,0.8,5.6C139.2,400.8,138.4,401.6,136.8,401.6z
		 M384.8,385.6c-0.8,0-2.4,0-2.4-0.8c-1.6-1.6-1.6-4,0-5.6c4-4,7.2-8,10.4-12c1.6-1.6,4-1.6,5.6-0.8c1.6,1.6,1.6,4,0.8,5.6
		c-3.2,4-7.2,8-11.2,12C386.4,385.6,385.6,385.6,384.8,385.6z M113.6,380c-0.8,0-2.4-0.8-3.2-1.6c-4-4-7.2-8-10.4-12.8
		c-1.6-1.6-0.8-4,0.8-5.6c1.6-1.6,4-0.8,5.6,0.8c3.2,4,6.4,8,9.6,12c1.6,1.6,1.6,4,0,5.6C115.2,379.2,114.4,380,113.6,380z
		 M404.8,361.6c-0.8,0-1.6,0-2.4-0.8c-1.6-1.6-2.4-4-0.8-5.6c3.2-4,5.6-8.8,8-13.6c0.8-1.6,3.2-2.4,5.6-1.6c1.6,0.8,2.4,3.2,1.6,5.6
		c-2.4,4.8-5.6,9.6-8.8,13.6C407.2,360.8,406.4,361.6,404.8,361.6z M94.4,354.4c-1.6,0-2.4-0.8-3.2-1.6c-3.2-4.8-5.6-9.6-8-14.4
		c-0.8-1.6,0-4,1.6-5.6c1.6-0.8,4,0,5.6,1.6c2.4,4.8,4.8,8.8,8,13.6c0.8,1.6,0.8,4-1.6,5.6C96,354.4,95.2,354.4,94.4,354.4z
		 M420.8,333.6c-0.8,0-0.8,0-1.6,0c-2.4-0.8-3.2-3.2-1.6-5.6c2.4-4.8,4-9.6,5.6-14.4c0.8-2.4,3.2-3.2,4.8-2.4
		c2.4,0.8,3.2,3.2,2.4,4.8c-1.6,4.8-4,10.4-6.4,15.2C424,332.8,422.4,333.6,420.8,333.6z M80,325.6c-1.6,0-3.2-0.8-4-2.4
		c-2.4-4.8-4-10.4-5.6-15.2c-0.8-2.4,0.8-4,2.4-4.8c2.4-0.8,4,0.8,4.8,2.4c1.6,4.8,3.2,9.6,5.6,14.4c0.8,2.4,0,4-2.4,5.6H80z
		 M431.2,303.2h-0.8c-2.4-0.8-3.2-2.4-3.2-4.8c1.6-4.8,2.4-10.4,3.2-15.2c0-2.4,2.4-4,4.8-3.2c2.4,0,4,2.4,3.2,4.8
		c-0.8,5.6-2.4,10.4-3.2,16C435.2,302.4,433.6,303.2,431.2,303.2z M70.4,295.2c-1.6,0-3.2-1.6-4-3.2c-0.8-5.6-2.4-10.4-2.4-16
		c0-2.4,1.6-4,3.2-4.8c2.4,0,4,1.6,4.8,3.2c0.8,4.8,1.6,10.4,2.4,15.2c0.8,2.4-0.8,4-3.2,4.8C71.2,295.2,70.4,295.2,70.4,295.2z
		 M436.8,272L436.8,272c-2.4,0-4-2.4-4-4c0.8-4.8,0.8-10.4,0.8-16c0-4.8,0-9.6-0.8-14.4c0-2.4,1.6-4,4-4s4,1.6,4,4
		c0.8,4.8,0.8,10.4,0.8,15.2c0,5.6,0,11.2-0.8,16C440.8,270.4,439.2,272,436.8,272z M66.4,260c-2.4,0-4,0-4-2.4s0-4,0-7.2s0-5.6,0-8
		s1.6-4,4-3.2c2.4,0,4,2.4,4,4c0,2.4,0,5.6,0,8s0,3.2,0,5.6C70.4,260,68.8,260,66.4,260L66.4,260z M68,232C68,232,67.2,232,68,232
		c-2.4,0-4-2.4-4-4.8c0.8-5.6,1.6-11.2,3.2-16c0.8-2.4,2.4-3.2,4.8-3.2c2.4,0.8,3.2,2.4,3.2,4.8c-0.8,4.8-2.4,10.4-2.4,15.2
		C72,230.4,69.6,232,68,232z M435.2,224.8c-1.6,0-4-1.6-4-3.2c-0.8-4.8-1.6-10.4-3.2-15.2c-0.8-2.4,0.8-4,3.2-4.8
		c2.4-0.8,4,0.8,4.8,3.2c1.6,5.6,2.4,10.4,3.2,16C439.2,222.4,437.6,224.8,435.2,224.8L435.2,224.8z M74.4,200.8h-0.8
		c-2.4-0.8-3.2-3.2-2.4-4.8c1.6-4.8,3.2-10.4,5.6-15.2c0.8-2.4,3.2-3.2,5.6-2.4s3.2,3.2,2.4,5.6c-1.6,4.8-4,9.6-5.6,14.4
		C78.4,199.2,76.8,200.8,74.4,200.8z M427.2,194.4c-1.6,0-3.2-0.8-4-2.4c-1.6-4.8-4-9.6-5.6-14.4c-0.8-2.4,0-4,1.6-5.6
		c2.4-0.8,4,0,5.6,1.6c2.4,4.8,4,9.6,6.4,15.2c0.8,2.4,0,4-2.4,4.8C428,194.4,427.2,194.4,427.2,194.4z M87.2,171.2
		c-0.8,0-1.6,0-1.6-0.8c-1.6-0.8-2.4-3.2-1.6-5.6c2.4-4.8,5.6-9.6,8-14.4c0.8-1.6,4-2.4,5.6-1.6c1.6,0.8,2.4,4,1.6,5.6
		c-2.4,4.8-5.6,8.8-8,13.6C89.6,170.4,88,171.2,87.2,171.2z M413.6,164.8c-1.6,0-2.4-0.8-3.2-2.4c-2.4-4.8-5.6-8.8-8-13.6
		c-1.6-1.6-0.8-4,0.8-5.6c1.6-1.6,4-0.8,5.6,0.8c3.2,4.8,5.6,9.6,8.8,13.6c0.8,1.6,0,4-1.6,5.6C415.2,164.8,414.4,164.8,413.6,164.8
		z M104,144c-0.8,0-1.6,0-2.4-0.8c-1.6-1.6-2.4-4-0.8-5.6c3.2-4,6.4-8.8,10.4-12.8c1.6-1.6,4-1.6,5.6,0c1.6,1.6,1.6,4,0,5.6
		c-3.2,4-7.2,8-9.6,12C106.4,143.2,105.6,144,104,144z M396,138.4c-0.8,0-2.4-0.8-3.2-1.6c-3.2-4-7.2-8-10.4-12
		c-1.6-1.6-1.6-4,0-5.6s4-1.6,5.6,0c4,4,7.2,8,11.2,12c1.6,1.6,0.8,4-0.8,5.6C397.6,138.4,396.8,138.4,396,138.4z M125.6,120
		c-0.8,0-2.4-0.8-3.2-1.6c-1.6-1.6-1.6-4,0-5.6c4-4,8-7.2,12.8-10.4c1.6-1.6,4-0.8,5.6,0.8c1.6,1.6,0.8,4-0.8,5.6
		c-4,3.2-8,6.4-12,10.4C127.2,120,126.4,120,125.6,120z M373.6,116c-0.8,0-1.6,0-2.4-0.8c-4-3.2-8-6.4-12-9.6
		c-1.6-1.6-2.4-4-0.8-5.6s4-2.4,5.6-0.8c4.8,3.2,8.8,6.4,12.8,10.4c1.6,1.6,1.6,4,0,5.6C376,115.2,374.4,116,373.6,116z
		 M150.4,100.8c-1.6,0-2.4-0.8-3.2-1.6c-1.6-1.6-0.8-4,0.8-5.6c4.8-3.2,9.6-5.6,14.4-8c1.6-0.8,4,0,5.6,1.6c0.8,1.6,0,4-1.6,5.6
		c-4.8,2.4-8.8,4.8-13.6,8C152,100,151.2,100.8,150.4,100.8z M348,96.8c-0.8,0-1.6,0-2.4-0.8c-4-2.4-8.8-4.8-13.6-7.2
		c-1.6-0.8-2.4-3.2-1.6-5.6c0.8-1.6,3.2-2.4,5.6-1.6c4.8,2.4,9.6,4.8,14.4,8c1.6,0.8,2.4,3.2,1.6,5.6C350.4,96,348.8,96.8,348,96.8z
		 M178.4,85.6c-1.6,0-3.2-0.8-4-2.4c-0.8-2.4,0-4,2.4-5.6c4.8-2.4,10.4-4,15.2-5.6c2.4-0.8,4,0.8,4.8,2.4s-0.8,4-2.4,4.8
		c-4.8,1.6-9.6,3.2-14.4,5.6C180,85.6,179.2,85.6,178.4,85.6z M319.2,83.2c-0.8,0-0.8,0-1.6,0c-4.8-1.6-9.6-3.2-15.2-4.8
		c-2.4-0.8-3.2-3.2-2.4-4.8s3.2-3.2,4.8-2.4c5.6,1.6,10.4,3.2,15.2,5.6c2.4,0.8,3.2,3.2,2.4,4.8C322.4,81.6,320.8,83.2,319.2,83.2z
		 M208.8,75.2c-1.6,0-3.2-1.6-4-3.2c-0.8-2.4,0.8-4,3.2-4.8c5.6-1.6,10.4-2.4,16-3.2c2.4,0,4,1.6,4.8,3.2c0,2.4-0.8,4-3.2,4.8
		c-4.8,0.8-10.4,1.6-15.2,3.2C209.6,75.2,209.6,75.2,208.8,75.2z M288.8,73.6C288,73.6,288,73.6,288.8,73.6
		c-5.6-0.8-11.2-1.6-16-2.4c-2.4,0-4-2.4-3.2-4.8s2.4-4,4.8-3.2c5.6,0.8,11.2,1.6,16,2.4c2.4,0.8,3.2,2.4,3.2,4.8
		C292,72.8,290.4,73.6,288.8,73.6z M240.8,68c-2.4,0-4,0-4-2.4s1.6-3.2,4-3.2c5.6,0,11.2,0,16,0c2.4,0,4,2.4,4,4s-2.4,2.4-4,2.4
		C251.2,68.8,246.4,68,240.8,68L240.8,68z"/>
	<path style="fill:#C3D7DD;" d="M252,368.8c-1.6,0-2.4-0.8-3.2-1.6l-4.8-8.8c-0.8-1.6-0.8-4,1.6-5.6c1.6-0.8,4-0.8,5.6,1.6l1.6,3.2
		l4.8-8c0.8-1.6,4-2.4,5.6-1.6s2.4,3.2,1.6,5.6l-8,13.6C254.4,368,253.6,368.8,252,368.8z M238.4,346.4c-1.6,0-2.4-0.8-3.2-1.6
		l-8-13.6c-0.8-1.6-0.8-4,1.6-5.6c1.6-0.8,4-0.8,5.6,1.6l8,13.6c0.8,1.6,0.8,4-1.6,5.6C240,346.4,239.2,346.4,238.4,346.4z
		 M268,341.6c-0.8,0-1.6,0-2.4-0.8c-1.6-0.8-2.4-3.2-1.6-5.6l8-13.6c0.8-1.6,3.2-2.4,5.6-1.6c1.6,0.8,2.4,3.2,1.6,5.6l-8,13.6
		C271.2,340.8,269.6,341.6,268,341.6z M222.4,318.4c-1.6,0-2.4-0.8-3.2-1.6l-8-13.6c-0.8-1.6-0.8-4,1.6-5.6c1.6-0.8,4-0.8,5.6,1.6
		l8,13.6c0.8,1.6,0.8,4-1.6,5.6C224,318.4,223.2,318.4,222.4,318.4z M284.8,313.6c-0.8,0-1.6,0-2.4-0.8c-1.6-0.8-2.4-3.2-1.6-5.6
		l8-13.6c0.8-1.6,3.2-2.4,5.6-1.6c1.6,0.8,2.4,3.2,1.6,5.6l-8,13.6C287.2,312.8,285.6,313.6,284.8,313.6z M206.4,291.2
		c-1.6,0-2.4-0.8-3.2-1.6l-8-13.6c-0.8-1.6-0.8-4,1.6-5.6c1.6-0.8,4-0.8,5.6,1.6l8,13.6c0.8,1.6,0.8,4-1.6,5.6
		C208,291.2,207.2,291.2,206.4,291.2z M300.8,286.4c-0.8,0-1.6,0-2.4-0.8c-1.6-0.8-2.4-3.2-1.6-5.6l8-13.6c0.8-1.6,3.2-2.4,5.6-1.6
		c1.6,0.8,2.4,3.2,1.6,5.6l-8,13.6C303.2,285.6,302.4,286.4,300.8,286.4z M190.4,263.2c-1.6,0-2.4-0.8-3.2-1.6l-8-13.6
		c-0.8-1.6-0.8-4,1.6-5.6c1.6-0.8,4-0.8,5.6,1.6l8,13.6c0.8,1.6,0.8,4-1.6,5.6C191.2,263.2,190.4,263.2,190.4,263.2z M316.8,258.4
		c-0.8,0-1.6,0-2.4-0.8c-1.6-0.8-2.4-3.2-1.6-5.6l8-13.6c0.8-1.6,3.2-2.4,5.6-1.6c1.6,0.8,2.4,3.2,1.6,5.6l-8,13.6
		C319.2,257.6,318.4,258.4,316.8,258.4z M173.6,236c-1.6,0-2.4-0.8-3.2-1.6l-8-13.6c-0.8-1.6-0.8-4,1.6-5.6c1.6-0.8,4-0.8,5.6,1.6
		l8,13.6c0.8,1.6,0.8,4-1.6,5.6C175.2,236,174.4,236,173.6,236z M332.8,231.2c-0.8,0-1.6,0-2.4-0.8c-1.6-0.8-2.4-3.2-1.6-5.6l8-13.6
		c0.8-1.6,3.2-2.4,5.6-1.6c1.6,0.8,2.4,3.2,1.6,5.6l-8,13.6C336,230.4,334.4,231.2,332.8,231.2z M157.6,208c-1.6,0-2.4-0.8-3.2-1.6
		l-8-13.6c-0.8-1.6-0.8-4,1.6-5.6c1.6-0.8,4-0.8,5.6,1.6l8,13.6c0.8,1.6,0.8,4-1.6,5.6C159.2,208,158.4,208,157.6,208z M349.6,203.2
		c-0.8,0-1.6,0-2.4-0.8c-1.6-0.8-2.4-3.2-1.6-5.6l4-7.2c-0.8-0.8-0.8-3.2-0.8-4c0-2.4,1.6-5.6,4-5.6h3.2c1.6,0,2.4,2.4,3.2,4
		c0.8,1.6,0.8,4,0,4.8l-6.4,12C352,202.4,350.4,203.2,349.6,203.2z M336.8,188h-16c-2.4,0-4-1.6-4-4s1.6-4,4-4h16c2.4,0,4,1.6,4,4
		S339.2,188,336.8,188z M304.8,188h-16c-2.4,0-4-1.6-4-4s1.6-4,4-4h16c2.4,0,4,1.6,4,4S307.2,188,304.8,188z M272.8,188h-16
		c-2.4,0-4-1.6-4-4s1.6-4,4-4h16c2.4,0,4,1.6,4,4S275.2,188,272.8,188z M240.8,188h-16c-2.4,0-4-1.6-4-4s1.6-4,4-4h16
		c2.4,0,4,1.6,4,4S243.2,188,240.8,188z M208.8,188h-16c-2.4,0-4-1.6-4-4s1.6-4,4-4h16c2.4,0,4,1.6,4,4S211.2,188,208.8,188z
		 M176.8,188h-16c-2.4,0-4-1.6-4-4s1.6-4,4-4h16c2.4,0,4,1.6,4,4S179.2,188,176.8,188z"/>
</g>
<g>
	<path style="fill:#FF9700;" d="M252,504C112.8,504,0,391.2,0,252S112.8,0,252,0s252,112.8,252,252S391.2,504,252,504z M252,16
		C121.6,16,16,121.6,16,252s105.6,236,236,236s236-105.6,236-236S382.4,16,252,16z"/>
	<path style="fill:#FF9700;" d="M461.6,372H42.4c-3.2,0-5.6-0.8-7.2-4c-1.6-2.4-1.6-5.6,0-8L244.8,4c3.2-4.8,11.2-4.8,13.6,0
		L468,360.8c1.6,2.4,1.6,4.8,0,8C467.2,371.2,464.8,372,461.6,372z M56,356h391.2L252,23.2L56,356z"/>
</g>
<g>
</g>
<g>
</g>
<g>
</g>
<g>
</g>
<g>
</g>
<g>
</g>
<g>
</g>
<g>
</g>
<g>
</g>
<g>
</g>
<g>
</g>
<g>
</g>
<g>
</g>
<g>
</g>
<g>
</g>
</svg>
