<?xml version="1.0" encoding="iso-8859-1"?>
<!-- Generator: Adobe Illustrator 19.0.0, SVG Export Plug-In . SVG Version: 6.00 Build 0)  -->
<svg version="1.1" id="Layer_1" xmlns="http://www.w3.org/2000/svg" xmlns:xlink="http://www.w3.org/1999/xlink" x="0px" y="0px"
	 viewBox="0 0 504 504" style="enable-background:new 0 0 504 504;" xml:space="preserve">
<polygon style="fill:#76E83A;" points="252.4,44.6 8.4,459.8 496.4,459.8 "/>
<polygon style="fill:#3DCE20;" points="252.4,103 8.4,459.8 496.4,459.8 "/>
<polygon style="fill:#0FB213;" points="252.4,155 8.4,459.8 496.4,459.8 "/>
<path style="fill:#2F5068;" d="M496.4,467.8H8.4c-3.2,0-5.6-1.6-7.2-4s-1.6-5.6,0-8l244-416c3.2-4.8,11.2-4.8,13.6,0l244,415.2
	c1.6,2.4,1.6,5.6,0,8C502,466.2,499.6,467.8,496.4,467.8z M22,451.8h460.8l-230.4-392L22,451.8z"/>
<circle style="fill:#87C2CC;" cx="252.4" cy="325.4" r="130.4"/>
<path style="fill:#5F9AA0;" d="M252.4,195c72,0,130.4,58.4,130.4,130.4s-58.4,130.4-130.4,130.4"/>
<path style="fill:#2F5068;" d="M252.4,463c-76,0-138.4-61.6-138.4-138.4S176.4,187,252.4,187s138.4,61.6,138.4,138.4
	S328.4,463,252.4,463z M252.4,203C185.2,203,130,258.2,130,325.4S185.2,447,252.4,447s122.4-55.2,122.4-122.4S319.6,203,252.4,203z"
	/>
<polygon style="fill:#4DDFF7;" points="324.4,367.8 252.4,411 180.4,367.8 180.4,282.2 252.4,239 324.4,282.2 "/>
<polyline style="fill:#4BF9F4;" points="180.4,371.8 180.4,282.2 253.2,239 328.4,283.8 "/>
<g>
	<path style="fill:#2F5068;" d="M252.4,419c-1.6,0-2.4,0-4-0.8L174.8,375c-2.4-1.6-2.4-4-2.4-7.2v-85.6c0-3.2,0-5.6,3.2-7.2
		l73.6-43.2c2.4-1.6,4.8-1.6,8,0L330,275c2.4,1.6,2.4,4,2.4,7.2v85.6c0,3.2,0,5.6-3.2,7.2l-73.6,43.2C254.8,418.2,254,419,252.4,419
		z M188.4,363.8l64,38.4l64-38.4V287l-64-38.4l-64,38.4V363.8z"/>
	<path style="fill:#2F5068;" d="M324.4,371.8c-1.6,0-5.6,0-7.2-0.8l-64.8-37.6l-65.6,38.4c-4,2.4-8,0-10.4-4s-0.8-8,3.2-10.4
		l69.6-40c2.4-1.6,5.6-1.6,8,0l68,39.2c4,2.4,8,7.2,5.6,10.4C329.2,370.2,326.8,371.8,324.4,371.8z"/>
</g>
<g>
	<path style="fill:#2F5068;" d="M252.4,333.4c-4,0-8-3.2-8-8v-84.8c0-4,4-8,8-8s8,3.2,8,8v84C260.4,329.4,256.4,333.4,252.4,333.4z"
		/>
	<path style="fill:#2F5068;" d="M252.4,332.6c-1.6,0-2.4,0-4-0.8l-69.6-40c-4-2.4-4.8-8-2.4-11.2c2.4-4,5.6-4.8,9.6-2.4l66.4,37.6
		l64.8-37.6c4-2.4,7.2-0.8,9.6,3.2s2.4,8-1.6,10.4l-69.6,40C254.8,332.6,254,332.6,252.4,332.6z"/>
</g>
<path style="fill:#2F5068;" d="M252.4,416.6c-4,0-8-3.2-8-8v-84c0-4,4-8,8-8s8,3.2,8,8v84C260.4,413.4,256.4,416.6,252.4,416.6z"/>
<g>
</g>
<g>
</g>
<g>
</g>
<g>
</g>
<g>
</g>
<g>
</g>
<g>
</g>
<g>
</g>
<g>
</g>
<g>
</g>
<g>
</g>
<g>
</g>
<g>
</g>
<g>
</g>
<g>
</g>
</svg>
