<?xml version="1.0" encoding="iso-8859-1"?>
<!-- Generator: Adobe Illustrator 19.0.0, SVG Export Plug-In . SVG Version: 6.00 Build 0)  -->
<svg version="1.1" id="Layer_1" xmlns="http://www.w3.org/2000/svg" xmlns:xlink="http://www.w3.org/1999/xlink" x="0px" y="0px"
	 viewBox="0 0 512 512" style="enable-background:new 0 0 512 512;" xml:space="preserve">
<path style="fill:#334F55;" d="M453.667,422.175h-71.912h-17.965h-35.93v-47.903c37.716-23.902,62.877-65.895,62.877-113.746v-0.035
	h44.912c4.965,0,8.982-4.018,8.982-8.982V143.719c0-4.965-4.018-8.982-8.982-8.982h-22.604L408.693,8.675
	C408.526,3.833,404.561,0,399.719,0H157.193c-29.553,0-54.421,24-55.43,53.5l-2.808,81.237H76.351c-4.965,0-8.982,4.018-8.982,8.982
	v107.789c0,4.965,4.018,8.982,8.982,8.982h44.912v0.035c0,47.85,25.161,89.844,62.877,113.746v47.904h-35.93h-17.965H58.333
	c-24.737,0-44.86,20.149-44.86,44.912v35.93c0,4.965,4.018,8.982,8.982,8.982h467.088c4.965,0,8.982-4.018,8.982-8.982v-35.93
	C498.526,442.325,478.404,422.175,453.667,422.175z"/>
<path style="fill:#EAE8D2;" d="M139.228,260.526v-9.018v-89.851c0-55.281,13.272-76.904,50.368-80.518
	c34.386,35.562,56.719,53.588,66.395,53.597c0.035,0,0.07,0,0.114,0c4.553,0,15.974-0.439,37.798-56.447
	c1.342,2.167,2.675,4.526,3.789,6.474c7.676,13.509,18.193,32.009,39.149,32.009c24.175,0,35.93,14.684,35.93,44.886v89.851v9.018
	c0,64.368-52.386,116.737-116.772,116.737S139.228,324.895,139.228,260.526z"/>
<rect x="228.616" y="327.863" transform="matrix(-0.9806 0.1962 -0.1962 -0.9806 582.0218 616.0341)" style="fill:#334F55;" width="63.766" height="17.963"/>
<path style="fill:#EAE8D2;" d="M193.123,440.14h125.754h40.585C347.31,453.338,310.128,467.088,256,467.088
	s-91.31-13.749-103.463-26.947H193.123z"/>
<polygon style="fill:#C5D35E;" points="426.667,242.526 390.737,242.526 390.737,161.658 390.737,152.702 426.667,152.702 "/>
<path style="fill:#E987A6;" d="M119.711,54.114c0.693-19.93,17.5-36.149,37.482-36.149h233.851l4.025,116.772h-8.026
	c-7.18-23.128-24.606-35.93-50.201-35.93c-9.754,0-15.903-9.5-23.535-22.921c-6.132-10.781-11.921-20.965-22.658-21.719
	c-3.965-0.289-7.693,2.114-9.07,5.877c-8.289,22.728-20.316,49.088-26.518,55.982c-9.307-5.096-35.009-29.07-55.456-50.386
	c-1.825-1.895-4.29-2.833-7.026-2.746c-50.695,3.057-65.991,35.064-70.016,71.842h-5.631L119.711,54.114z"/>
<polygon style="fill:#C5D35E;" points="85.333,242.526 85.333,152.702 121.263,152.702 121.263,161.658 121.263,242.526 "/>
<path style="fill:#EAE8D2;" d="M202.105,383.903c16.521,7.242,34.73,11.325,53.895,11.325s37.373-4.083,53.895-11.325v38.272
	H202.105V383.903z"/>
<path style="fill:#C5D35E;" d="M480.561,494.035H31.439v-26.947c0-14.86,12.061-26.947,26.895-26.947h73.595
	c10.078,29.215,68.576,44.912,124.072,44.912s113.994-15.697,124.072-44.912h73.595c14.833,0,26.895,12.088,26.895,26.947V494.035z"
	/>
<g>
	<path style="fill:#334F55;" d="M309.895,251.509c9.904,0,17.965-8.061,17.965-17.965h8.982v-17.965h-62.877v17.965h17.965
		C291.93,243.447,299.991,251.509,309.895,251.509z"/>
	<path style="fill:#334F55;" d="M238.035,215.579h-62.877v17.965h8.982c0,9.904,8.061,17.965,17.965,17.965
		s17.965-8.061,17.965-17.965h17.965V215.579z"/>
</g>
<g>
</g>
<g>
</g>
<g>
</g>
<g>
</g>
<g>
</g>
<g>
</g>
<g>
</g>
<g>
</g>
<g>
</g>
<g>
</g>
<g>
</g>
<g>
</g>
<g>
</g>
<g>
</g>
<g>
</g>
</svg>
