<?xml version="1.0" encoding="iso-8859-1"?>
<!-- Generator: Adobe Illustrator 19.0.0, SVG Export Plug-In . SVG Version: 6.00 Build 0)  -->
<svg version="1.1" id="Layer_1" xmlns="http://www.w3.org/2000/svg" xmlns:xlink="http://www.w3.org/1999/xlink" x="0px" y="0px"
	 viewBox="0 0 512 512" style="enable-background:new 0 0 512 512;" xml:space="preserve">
<path style="fill:#334F55;" d="M464.509,402.963H344.1c38.43-27.549,63.604-72.475,63.604-123.259V146.972
	c0-73.194-59.574-132.75-132.796-132.75h-37.815c-73.222,0-132.796,59.556-132.796,132.75v132.732
	c0,50.785,25.174,95.71,63.604,123.259H47.407C21.269,402.963,0,424.232,0,450.37v37.926c0,5.241,4.241,9.481,9.481,9.481h493.037
	c5.241,0,9.481-4.241,9.481-9.481V450.37C512,424.232,490.694,402.963,464.509,402.963z"/>
<g>
	<path style="fill:#C59A83;" d="M123.259,279.704V146.972c0-62.741,51.065-113.787,113.833-113.787h37.815
		c62.769,0,113.833,51.046,113.833,113.787v132.732c0,73.194-59.546,132.741-132.741,132.741S123.259,352.898,123.259,279.704z"/>
	<path style="fill:#C59A83;" d="M18.963,450.37c0-15.685,12.759-28.444,28.444-28.444h155.296c0.232,0,0.425-0.115,0.652-0.131
		c16.43,6.109,34.115,9.613,52.645,9.613c18.395,0,35.957-3.457,52.286-9.481h36.355l-184.889,56.889H18.963V450.37z"/>
	<path style="fill:#C59A83;" d="M493.037,478.815H224.248l184.889-56.889h55.373c15.731,0,28.528,12.759,28.528,28.444V478.815z"/>
</g>
<path style="fill:#334F55;" d="M369.778,241.778V194.37c0-5.241-4.241-9.481-9.481-9.481H151.704c-5.241,0-9.481,4.241-9.481,9.481
	v47.407c0,5.241,4.241,9.481,9.481,9.481h208.593C365.537,251.259,369.778,247.018,369.778,241.778z"/>
<path style="fill:#EAE8D2;" d="M350.815,232.296h-189.63v-28.444h18.963c0,10.454,8.509,18.963,18.963,18.963
	s18.963-8.509,18.963-18.963h75.852c0,10.454,8.509,18.963,18.963,18.963c10.454,0,18.963-8.509,18.963-18.963h18.963V232.296z"/>
<g>
</g>
<g>
</g>
<g>
</g>
<g>
</g>
<g>
</g>
<g>
</g>
<g>
</g>
<g>
</g>
<g>
</g>
<g>
</g>
<g>
</g>
<g>
</g>
<g>
</g>
<g>
</g>
<g>
</g>
</svg>
