<?xml version="1.0" encoding="iso-8859-1"?>
<!-- Generator: Adobe Illustrator 19.0.0, SVG Export Plug-In . SVG Version: 6.00 Build 0)  -->
<svg version="1.1" id="Layer_1" xmlns="http://www.w3.org/2000/svg" xmlns:xlink="http://www.w3.org/1999/xlink" x="0px" y="0px"
	 viewBox="0 0 512 512" style="enable-background:new 0 0 512 512;" xml:space="preserve">
<g>
	<path style="fill:#334F55;" d="M453.597,422.175h-62.86v-89.825v-54.712c20.474-3.756,35.93-20.083,35.93-39.604
		s-15.456-35.848-35.93-39.604v-26.488l10.167-1.356c4.465-0.596,7.798-4.403,7.798-8.903V98.851c0-16.86-6.579-32.509-18.535-44.07
		c-11.947-11.553-27.886-17.649-44.632-17.044l-44.623,1.486V8.982c0-4.965-4.018-8.982-8.982-8.982h-44.912
		c-4.965,0-8.982,4.018-8.982,8.982v32.335l-54.202,1.805c-34.5,1.149-62.57,30.166-62.57,64.693v53.868v35.93v0.817
		c-20.474,3.756-35.93,20.083-35.93,39.604s15.456,35.848,35.93,39.604v54.712v89.825H58.395c-24.772,0-44.921,20.149-44.921,44.912
		v35.93c0,4.965,4.018,8.982,8.982,8.982h161.746h143.596h161.746c4.965,0,8.982-4.018,8.982-8.982v-35.93
		C498.526,442.325,478.368,422.175,453.597,422.175z"/>
	<rect x="211.088" y="350.316" style="fill:#334F55;" width="98.807" height="17.965"/>
</g>
<polygon style="fill:#EAE8D2;" points="372.772,197.614 372.772,215.579 372.772,260.491 372.772,278.456 372.772,323.368 
	139.228,323.368 139.228,278.456 139.228,260.491 139.228,215.579 139.228,205.478 372.772,174.339 "/>
<path style="fill:#334F55;" d="M193.123,278.456c9.904,0,17.965-8.061,17.965-17.965c0-9.904-8.061-17.965-17.965-17.965
	s-17.965,8.061-17.965,17.965C175.158,270.395,183.219,278.456,193.123,278.456z"/>
<g>
	<rect x="256" y="17.965" style="fill:#EAE8D2;" width="26.947" height="17.965"/>
	<path style="fill:#EAE8D2;" d="M408.702,238.035c0,9.748-7.532,17.978-17.965,21.077v-42.155
		C401.17,220.057,408.702,228.287,408.702,238.035z"/>
</g>
<path style="fill:#E987A6;" d="M139.228,107.816c0-24.939,20.281-45.912,45.202-46.746l161.702-5.386
	c0.509-0.018,1.017-0.018,1.526-0.018c11.351,0,21.965,4.237,30.018,12.026c8.421,8.149,13.061,19.211,13.061,31.158v54.965
	l-251.509,33.535v-25.667V107.816z"/>
<path style="fill:#EAE8D2;" d="M103.298,238.035c0-9.748,7.532-17.978,17.965-21.077v42.155
	C110.83,256.013,103.298,247.783,103.298,238.035z"/>
<path style="fill:#77C9C9;" d="M31.439,494.035v-26.947c0-14.86,12.096-26.947,26.956-26.947h62.868v8.991
	c0,17.584,7.285,33.483,18.973,44.904H31.439z"/>
<path style="fill:#C5D35E;" d="M184.202,494.035c-24.798,0-44.974-20.14-44.974-44.904v-8.991h0.351v-17.965h-0.351v-80.842h233.544
	v107.798c0,24.763-20.176,44.904-44.974,44.904H184.202z"/>
<path style="fill:#77C9C9;" d="M480.561,494.035H371.764c11.688-11.421,18.973-27.32,18.973-44.904v-8.991h62.86
	c14.868,0,26.965,12.088,26.965,26.947V494.035z"/>
<path style="fill:#334F55;" d="M318.877,278.456c9.904,0,17.965-8.061,17.965-17.965c0-9.904-8.061-17.965-17.965-17.965
	c-9.904,0-17.965,8.061-17.965,17.965C300.912,270.395,308.974,278.456,318.877,278.456z"/>
<g>
</g>
<g>
</g>
<g>
</g>
<g>
</g>
<g>
</g>
<g>
</g>
<g>
</g>
<g>
</g>
<g>
</g>
<g>
</g>
<g>
</g>
<g>
</g>
<g>
</g>
<g>
</g>
<g>
</g>
</svg>
