<?xml version="1.0" encoding="iso-8859-1"?>
<!-- Generator: Adobe Illustrator 19.0.0, SVG Export Plug-In . SVG Version: 6.00 Build 0)  -->
<svg version="1.1" id="Layer_1" xmlns="http://www.w3.org/2000/svg" xmlns:xlink="http://www.w3.org/1999/xlink" x="0px" y="0px"
	 viewBox="0 0 512 512" style="enable-background:new 0 0 512 512;" xml:space="preserve">
<path style="fill:#334F55;" d="M446.966,425.221h-52.119h-69.424v-26.037c33.498-0.033,60.746-27.263,60.746-60.726v-43.63
	l12.263-13.285l-0.165-0.152c13.405-6.652,22.614-19.344,22.614-34.068c0-18.859-14.932-34.632-34.712-38.261v-44.18v-26.034h22.085
	c1.78,0,3.517-0.551,4.975-1.568l47.339-33.136c2.314-1.619,3.695-4.254,3.703-7.076c0.008-2.822-1.347-5.466-3.644-7.102
	l-97.203-69.17c-1.026-0.729-2.195-1.229-3.432-1.458L257.602,0.153c-1.076-0.203-2.169-0.203-3.229,0L154.068,19.339
	c-1.203,0.229-2.33,0.712-3.331,1.407L51.449,89.916c-2.33,1.619-3.72,4.271-3.72,7.11c0,2.831,1.381,5.491,3.703,7.119
	l47.33,33.136c1.458,1.017,3.195,1.568,4.975,1.568h22.093v26.034v44.18c-19.78,3.629-34.712,19.402-34.712,38.261
	s14.932,34.632,34.712,38.261v52.874c0,33.463,27.248,60.693,60.746,60.726v26.037h-69.424H65.034
	c-23.898,0-43.339,19.466-43.339,43.39v34.712c0,4.797,3.881,8.678,8.678,8.678h199.593h52.068h199.593
	c4.797,0,8.678-3.881,8.678-8.678v-34.712C490.305,444.687,470.865,425.221,446.966,425.221z"/>
<path style="fill:#EAE8D2;" d="M143.187,338.458v-52.085v-17.356v-43.39v-17.356v-25.941
	c20.093,13.534,59.907,34.619,112.814,34.619s92.72-21.085,112.814-34.619v25.941v17.356v43.39v17.356v1.669l-38.509,41.72H299.39
	v17.356h34.712c2.424,0,4.737-1.008,6.373-2.788l28.339-30.701v24.828c0,23.915-19.492,43.373-43.449,43.373h-17.297H203.932
	h-17.297C162.678,381.831,143.187,362.373,143.187,338.458z"/>
<g>
	<rect x="229.966" y="329.763" style="fill:#334F55;" width="52.068" height="17.356"/>
	<path style="fill:#334F55;" d="M212.61,242.983c0-9.568-7.788-17.356-17.356-17.356c-9.568,0-17.356,7.788-17.356,17.356
		c0,9.568,7.788,17.356,17.356,17.356C204.822,260.339,212.61,252.551,212.61,242.983z"/>
</g>
<g>
	<path style="fill:#EAEAEA;" d="M272.441,464.729c-1.475-2.941-4.475-4.797-7.763-4.797h-17.356c-3.288,0-6.288,1.856-7.763,4.797
		l-0.915,1.831v-23.983h34.712v23.983L272.441,464.729z"/>
	<polygon style="fill:#EAEAEA;" points="290.712,442.577 316.746,442.577 348.11,442.577 290.712,464.653 	"/>
</g>
<path style="fill:#EAE8D2;" d="M403.526,247.322c0,9.417-7.276,17.369-17.356,20.363V226.96
	C396.249,229.954,403.526,237.905,403.526,247.322z"/>
<g>
	<polygon style="fill:#EAEAEA;" points="71.56,97.051 159.136,36.043 256.017,17.509 354.916,36.043 440.543,96.975 
		405.517,121.492 377.492,121.492 134.509,121.492 106.475,121.492 	"/>
	<rect x="143.187" y="138.848" style="fill:#EAEAEA;" width="225.627" height="17.356"/>
</g>
<path style="fill:#FFFFFF;" d="M349.974,173.56c-19.985,11.742-52.708,26.034-93.974,26.034c-41.08,0-73.835-14.291-93.881-26.034
	H349.974z"/>
<g>
	<path style="fill:#EAE8D2;" d="M108.475,247.322c0-9.417,7.276-17.369,17.356-20.363v40.726
		C115.751,264.691,108.475,256.74,108.475,247.322z"/>
	<polygon style="fill:#EAE8D2;" points="203.932,399.187 308.068,399.187 308.068,425.221 282.034,425.221 229.966,425.221 
		203.932,425.221 	"/>
</g>
<g>
	<polygon style="fill:#EAEAEA;" points="195.254,442.577 221.288,442.577 221.288,464.653 163.89,442.577 	"/>
	<path style="fill:#EAEAEA;" d="M39.051,468.611c0-14.356,11.653-26.034,25.983-26.034h50.498l111.315,42.814
		c0.705,0.272,1.446,0.324,2.18,0.403l-4.426,8.851H39.051V468.611z"/>
	<polygon style="fill:#EAEAEA;" points="244.009,494.644 252.687,477.288 259.314,477.288 267.992,494.644 	"/>
	<path style="fill:#EAEAEA;" d="M472.949,494.644H287.399l-4.426-8.851c0.734-0.082,1.475-0.137,2.18-0.403l111.315-42.814h50.498
		c14.331,0,25.983,11.678,25.983,26.034V494.644z"/>
</g>
<g>
	<path style="fill:#334F55;" d="M316.746,260.339c9.568,0,17.356-7.788,17.356-17.356c0-9.568-7.788-17.356-17.356-17.356
		c-9.568,0-17.356,7.788-17.356,17.356C299.39,252.551,307.178,260.339,316.746,260.339z"/>
	<path style="fill:#334F55;" d="M167.865,91.009l78.03,12.322l2.343,4.687c1.475,2.941,4.475,4.797,7.763,4.797
		c3.288,0,6.288-1.856,7.763-4.797l2.329-4.657l78.213-12.351c4.212-0.661,7.322-4.297,7.322-8.568V60.746
		c0-4.797-3.881-8.678-8.678-8.678h-52.275c0-1.585-0.396-3.166-1.259-4.559c-1.585-2.559-4.373-4.119-7.381-4.119h-52.068
		c-3.008,0-5.797,1.559-7.381,4.119c-0.863,1.394-1.258,2.974-1.259,4.559h-52.106c-4.797,0-8.678,3.881-8.678,8.678v21.695
		C160.543,86.712,163.653,90.348,167.865,91.009z"/>
</g>
<g>
	<polygon style="fill:#E6D764;" points="334.271,75.026 275.629,84.284 283.06,69.424 334.271,69.424 	"/>
	<polygon style="fill:#E6D764;" points="267.992,60.746 256,84.729 244.009,60.746 	"/>
	<polygon style="fill:#E6D764;" points="177.898,69.424 228.941,69.424 236.356,84.254 177.898,75.026 	"/>
</g>
<g>
</g>
<g>
</g>
<g>
</g>
<g>
</g>
<g>
</g>
<g>
</g>
<g>
</g>
<g>
</g>
<g>
</g>
<g>
</g>
<g>
</g>
<g>
</g>
<g>
</g>
<g>
</g>
<g>
</g>
</svg>
