<?xml version="1.0" encoding="iso-8859-1"?>
<!-- Generator: Adobe Illustrator 19.0.0, SVG Export Plug-In . SVG Version: 6.00 Build 0)  -->
<svg version="1.1" id="Layer_1" xmlns="http://www.w3.org/2000/svg" xmlns:xlink="http://www.w3.org/1999/xlink" x="0px" y="0px"
	 viewBox="0 0 512 512" style="enable-background:new 0 0 512 512;" xml:space="preserve">
<path style="fill:#334F55;" d="M505.759,138.445c-8.12-8.495-21.841-9.796-40.779-3.869c-61.394,19.181-81.803,22.407-85.595,22.887
	V85.732c0-26.123-9.969-48.025-28.066-61.673c-18.059-13.613-41.77-17.171-67.36-9.831c-4.971,1.792-19.713,6.445-28.092,6.445
	c-8.345,0-23.005-4.627-28.566-6.6c-25.223-7.082-49.077-3.403-67.136,10.313c-17.938,13.605-27.817,35.394-27.817,61.346v71.697
	c-4.457-0.596-25.328-4.103-85.328-22.853c-18.946-5.928-32.659-4.618-40.779,3.869c-6.932,7.263-8.133,18.455-3.382,31.517
	c10.399,28.596,46.462,61.759,92.811,66.911c0.332,0.034,0.659,0.052,0.987,0.052c0.311,0,0.584-0.133,0.888-0.166
	c1.936,15.739,14.003,28.613,30.288,33.306L76.077,364.95c-1.491,2.731-1.43,6.048,0.159,8.728c1.59,2.671,4.472,4.317,7.586,4.317
	H192.62c3.353,1.497,6.778,2.851,10.31,3.982v31.309h-61.759H97.057H79.498c-24.37,0-44.2,19.791-44.2,44.114v35.291
	c0,4.877,3.95,8.823,8.823,8.823h52.936h44.114h229.391h44.114h52.936c4.872,0,8.823-3.946,8.823-8.823v-35.291
	c0-24.323-19.83-44.114-44.2-44.114h-17.559h-44.114h-61.759v-31.31c3.53-1.131,6.955-2.485,10.306-3.981H427.91
	c3.115,0,5.997-1.646,7.586-4.317c1.59-2.679,1.65-5.997,0.159-8.728l-51.756-94.885c16.302-4.697,28.377-17.594,30.294-33.355
	c0.39,0.053,0.747,0.215,1.15,0.215c0.327,0,0.655-0.017,0.986-0.052c46.35-5.152,82.412-38.315,92.811-66.911
	C513.893,156.9,512.691,145.708,505.759,138.445z"/>
<path style="fill:#EAE8D2;" d="M277.919,369.171H233.81c-46.216,0-83.816-37.6-83.816-83.816v-13.234v-17.645v-44.114v-8.823
	h211.746v8.823v44.114v17.645v13.234C361.739,331.571,324.139,369.171,277.919,369.171z"/>
<g>
	<rect x="229.391" y="316.239" style="fill:#334F55;" width="52.936" height="17.645"/>
	<path style="fill:#334F55;" d="M194.107,210.362c-9.732,0-17.645,7.918-17.645,17.645s7.914,17.645,17.645,17.645
		c9.732,0,17.645-7.918,17.645-17.645S203.839,210.362,194.107,210.362z"/>
	<path style="fill:#334F55;" d="M317.626,210.362c-9.732,0-17.645,7.918-17.645,17.645s7.914,17.645,17.645,17.645
		c9.732,0,17.646-7.918,17.646-17.645S327.357,210.362,317.626,210.362z"/>
</g>
<g>
	<rect x="149.987" y="175.076" style="fill:#C59A83;" width="211.746" height="8.823"/>
	<path style="fill:#C59A83;" d="M170.831,38.439c13.561-10.279,31.918-12.915,51.097-7.573c2.115,0.767,21.01,7.453,33.938,7.453
		c12.924,0,31.952-6.729,33.512-7.306c19.571-5.6,37.794-3.059,51.317,7.134c13.57,10.236,21.044,27.132,21.044,47.586v71.693
		H149.993V85.732C149.993,65.433,157.395,48.64,170.831,38.439z"/>
	<path style="fill:#C59A83;" d="M99.507,219.937c-0.624-0.22-1.204-0.529-1.89-0.606c-41.706-4.635-70.823-35.188-78.173-55.401
		c-2.206-6.048-2.378-11.27-0.444-13.294c2.141-2.249,9.383-3.395,22.755,0.776c70.741,22.108,89.455,23.677,90.213,23.728
		c0.133,0.012,0.247-0.05,0.379-0.044v17.62v0.803C116.839,196.365,104.449,206.627,99.507,219.937z"/>
</g>
<path style="fill:#EAE8D2;" d="M114.702,232.419c0-9.574,7.398-17.659,17.645-20.703v41.405
	C122.1,250.077,114.702,241.993,114.702,232.419z"/>
<path style="fill:#E4AD4B;" d="M98.685,360.349l34.421-63.108c2.926,24.924,14.937,47.05,32.604,63.108H98.685z"/>
<g>
	<polygon style="fill:#EAE8D2;" points="361.739,430.931 361.739,483.867 149.993,483.867 149.993,430.931 211.753,430.931 
		299.98,430.931 	"/>
	<path style="fill:#EAE8D2;" d="M52.943,457.399c0-14.595,11.912-26.468,26.554-26.468h8.737v52.936H52.943
		C52.943,483.867,52.943,457.399,52.943,457.399z"/>
</g>
<rect x="105.873" y="430.935" style="fill:#C5D35E;" width="26.468" height="52.936"/>
<path style="fill:#EAE8D2;" d="M458.79,457.399v26.468h-35.291v-52.936h8.737C446.878,430.931,458.79,442.803,458.79,457.399z"/>
<rect x="379.378" y="430.935" style="fill:#C5D35E;" width="26.468" height="52.936"/>
<path style="fill:#EAE8D2;" d="M291.157,413.285h-70.582v-27.433c4.343,0.57,8.739,0.965,13.234,0.965h44.109
	c4.497,0,8.894-0.396,13.239-0.965V413.285z"/>
<path style="fill:#E4AD4B;" d="M346.02,360.349c17.668-16.058,29.679-38.183,32.606-63.108l34.421,63.108H346.02z"/>
<path style="fill:#EAE8D2;" d="M379.385,253.121v-41.405c10.248,3.044,17.646,11.128,17.646,20.703
	C397.03,241.993,389.632,250.077,379.385,253.121z"/>
<path style="fill:#C59A83;" d="M492.556,163.93c-7.349,20.213-36.467,50.765-78.173,55.401c-0.773,0.087-1.437,0.416-2.13,0.683
	c-4.923-13.348-17.329-23.644-32.868-26.495v-0.803v-17.656c0.223,0,0.42,0.097,0.646,0.079c0.758-0.052,19.472-1.62,90.213-23.728
	c13.363-4.17,20.605-3.024,22.755-0.776C494.933,152.661,494.761,157.882,492.556,163.93z"/>
<g>
</g>
<g>
</g>
<g>
</g>
<g>
</g>
<g>
</g>
<g>
</g>
<g>
</g>
<g>
</g>
<g>
</g>
<g>
</g>
<g>
</g>
<g>
</g>
<g>
</g>
<g>
</g>
<g>
</g>
</svg>
