<?xml version="1.0" encoding="iso-8859-1"?>
<!-- Generator: Adobe Illustrator 19.0.0, SVG Export Plug-In . SVG Version: 6.00 Build 0)  -->
<svg version="1.1" id="Layer_1" xmlns="http://www.w3.org/2000/svg" xmlns:xlink="http://www.w3.org/1999/xlink" x="0px" y="0px"
	 viewBox="0 0 512 512" style="enable-background:new 0 0 512 512;" xml:space="preserve">
<path style="fill:#334F55;" d="M460.854,418.909H330.473v-27.931c35.939-0.035,65.164-29.245,65.164-65.142v-56.72
	c21.218-3.893,37.236-20.813,37.236-41.044s-16.018-37.151-37.236-41.044v-19.465v-48.088l1.514-0.276l-15.291-84.109
	C378.277,15.409,359.832,0,339.864,0H172.136c-19.968,0-38.413,15.409-41.995,35.091L114.85,119.2l1.514,0.276v48.088v19.465
	c-21.218,3.893-37.236,20.813-37.236,41.044s16.018,37.151,37.236,41.044v56.72c0,35.897,29.225,65.107,65.164,65.142v27.931H51.146
	c-25.637,0-46.491,20.882-46.491,46.545v37.236c0,5.145,4.168,9.309,9.309,9.309h484.073c5.141,0,9.309-4.164,9.309-9.309v-37.236
	C507.345,439.791,486.491,418.909,460.854,418.909z"/>
<path style="fill:#EAE8D2;" d="M134.982,325.836v-55.873v-18.618V204.8v-18.618v-9.309h65.164h2.456
	C214.392,193.728,233.914,204.8,256,204.8c22.086,0,41.608-11.072,53.399-27.927h2.456h65.164v9.309V204.8v46.545v18.618v55.873
	c0,25.654-20.909,46.527-46.609,46.527h-18.555H200.145h-18.555C155.891,372.364,134.982,351.491,134.982,325.836z"/>
<g>
	<rect x="228.073" y="307.2" style="fill:#334F55;" width="84.706" height="18.618"/>
	<path style="fill:#334F55;" d="M209.455,223.418c0-10.264-8.35-18.618-18.618-18.618c-10.268,0-18.618,8.354-18.618,18.618
		c0,10.264,8.35,18.618,18.618,18.618C201.105,242.036,209.455,233.682,209.455,223.418z"/>
</g>
<path style="fill:#EAE8D2;" d="M414.255,228.073c0,10.102-7.806,18.632-18.618,21.844v-43.688
	C406.449,209.441,414.255,217.971,414.255,228.073z"/>
<path style="fill:#C5D35E;" d="M134.982,121.018h58.599c-1.765,5.905-2.745,12.146-2.745,18.618s0.98,12.713,2.745,18.618h-58.599
	V121.018z"/>
<path style="fill:#F1854C;" d="M213.4,158.255c-2.507-5.712-3.945-11.992-3.945-18.618c0-25.664,20.882-46.545,46.545-46.545
	s46.545,20.882,46.545,46.545c0,6.626-1.438,12.906-3.945,18.618h-0.709v1.304c-7.495,15.682-23.383,26.623-41.891,26.623
	s-34.395-10.941-41.891-26.623v-1.304H213.4z"/>
<path style="fill:#C5D35E;" d="M318.419,121.018h58.599v37.236h-58.599c1.765-5.906,2.745-12.147,2.745-18.618
	S320.184,126.923,318.419,121.018z"/>
<path style="fill:#EAEAEA;" d="M148.459,38.418c1.955-10.727,12.796-19.8,23.677-19.8h167.727c10.882,0,21.723,9.073,23.677,19.8
	l11.631,63.982h-63.317c-0.757,0-1.429,0.26-2.133,0.43C297.964,85.725,278.279,74.473,256,74.473s-41.964,11.252-53.721,28.357
	c-0.704-0.17-1.377-0.43-2.133-0.43h-63.317L148.459,38.418z"/>
<g>
	<path style="fill:#EAE8D2;" d="M97.745,228.073c0-10.102,7.806-18.632,18.618-21.844v43.688
		C105.551,246.705,97.745,238.175,97.745,228.073z"/>
	<rect x="200.145" y="390.982" style="fill:#EAE8D2;" width="111.709" height="27.927"/>
</g>
<path style="fill:#EAEAEA;" d="M488.727,493.382H23.273v-27.927c0-15.4,12.504-27.927,27.873-27.927h139.691h130.327h139.691
	c15.368,0,27.873,12.527,27.873,27.927V493.382z"/>
<g>
	<path style="fill:#334F55;" d="M321.164,242.036c10.268,0,18.618-8.354,18.618-18.618c0-10.264-8.35-18.618-18.618-18.618
		c-10.268,0-18.618,8.354-18.618,18.618C302.545,233.682,310.895,242.036,321.164,242.036z"/>
	<path style="fill:#334F55;" d="M256,176.873c20.532,0,37.236-16.7,37.236-37.236S276.532,102.4,256,102.4
		c-20.532,0-37.236,16.7-37.236,37.236C218.764,160.173,235.468,176.873,256,176.873z"/>
</g>
<path style="fill:#F1854C;" d="M256,121.018c10.268,0,18.618,8.354,18.618,18.618c0,10.264-8.35,18.618-18.618,18.618
	c-10.268,0-18.618-8.354-18.618-18.618C237.382,129.373,245.732,121.018,256,121.018z"/>
<g>
</g>
<g>
</g>
<g>
</g>
<g>
</g>
<g>
</g>
<g>
</g>
<g>
</g>
<g>
</g>
<g>
</g>
<g>
</g>
<g>
</g>
<g>
</g>
<g>
</g>
<g>
</g>
<g>
</g>
</svg>
