<?xml version="1.0" encoding="iso-8859-1"?>
<!-- Generator: Adobe Illustrator 19.0.0, SVG Export Plug-In . SVG Version: 6.00 Build 0)  -->
<svg version="1.1" id="Layer_1" xmlns="http://www.w3.org/2000/svg" xmlns:xlink="http://www.w3.org/1999/xlink" x="0px" y="0px"
	 viewBox="0 0 512 512" style="enable-background:new 0 0 512 512;" xml:space="preserve">
<path style="fill:#334F55;" d="M438.857,420.571h-36.571h-73.143v-27.432c35.292-0.035,64-28.741,64-64.032v-19.082
	c11.882-2.18,22.096-8.521,28.688-17.252c1.475-0.008,2.955-0.247,4.339-1.005c37.661-20.794,58.402-48.107,58.402-76.911
	c0-38.153-35.589-71.377-91.429-92.024V68.571C393.143,30.116,349.009,0,292.661,0h-73.322c-56.348,0-100.482,30.116-100.482,68.571
	v54.262c-55.839,20.647-91.429,53.871-91.429,92.024c0,29.33,21.402,57,60.277,77.929c1.076,0.58,2.22,0.853,3.368,0.973
	c6.604,8.189,16.384,14.175,27.784,16.266v19.082c0,35.291,28.708,63.998,64,64.033v27.432h-73.143H73.143
	c-25.205,0-45.714,20.509-45.714,45.714v36.571c0,5.053,4.089,9.143,9.143,9.143h73.143h292.571h73.143
	c5.053,0,9.143-4.089,9.143-9.143v-36.571C484.571,441.08,464.062,420.571,438.857,420.571z"/>
<path style="fill:#E65F58;" d="M137.143,68.571c0-27.259,37.643-50.286,82.196-50.286h73.321c44.554,0,82.197,23.027,82.197,50.286
	v48.171C340.422,106.45,299.839,100.571,256,100.571s-84.422,5.878-118.857,16.171V68.571z"/>
<path style="fill:#334F55;" d="M278.991,82.813c2.75-1.652,4.438-4.625,4.438-7.839V45.714c0-5.053-4.089-9.143-9.143-9.143h-36.571
	c-5.053,0-9.143,4.089-9.143,9.143v29.259c0,3.214,1.688,6.187,4.437,7.839c3.366,2.018,14.982,8.616,22.991,8.616
	C264.009,91.429,275.625,84.83,278.991,82.813z"/>
<path style="fill:#E4AD4B;" d="M246.857,54.857h18.286v14.714c-3.902,1.982-7.679,3.5-9.098,3.571
	c-1.482-0.071-5.277-1.589-9.187-3.571V54.857z"/>
<path style="fill:#EAE8D2;" d="M137.143,329.107v-18.25v-18.286v-45.714v-18.286v-31.509c9.821-5.268,42.491-18.777,118.857-18.777
	c76.536,0,109.179,13.571,118.857,18.759v31.527v18.286v45.714v18.286v18.25c0,25.223-20.536,45.75-45.777,45.75h-18.223H201.143
	H182.92C157.679,374.857,137.143,354.33,137.143,329.107z"/>
<g>
	<rect x="228.571" y="320" style="fill:#334F55;" width="54.857" height="18.286"/>
	<rect x="182.857" y="292.571" style="fill:#334F55;" width="146.286" height="18.286"/>
	<path style="fill:#334F55;" d="M210.286,228.571c0-10.08-8.205-18.286-18.286-18.286c-10.08,0-18.286,8.205-18.286,18.286
		s8.205,18.286,18.286,18.286C202.08,246.857,210.286,238.652,210.286,228.571z"/>
	<path style="fill:#334F55;" d="M320,246.857c10.08,0,18.286-8.205,18.286-18.286S330.08,210.286,320,210.286
		c-10.08,0-18.286,8.205-18.286,18.286S309.92,246.857,320,246.857z"/>
</g>
<path style="fill:#EAE8D2;" d="M393.143,291.168v-42.907c10.619,3.155,18.286,11.532,18.286,21.454S403.762,288.013,393.143,291.168
	z"/>
<path style="fill:#E65F58;" d="M45.714,214.857c0-31.542,35.416-60.098,88.675-77.714h2.754v-0.902
	c34.073-10.904,75.151-17.384,118.857-17.384s84.784,6.48,118.857,17.384v0.902h2.754c53.259,17.617,88.675,46.172,88.675,77.714
	c0,18.824-12.97,37.465-36.734,53.411c-0.758-19.211-16.089-35.137-36.409-38.865V192c0-2.714-1.205-5.286-3.286-7.027
	C386.786,182.42,356.964,160,256,160s-130.786,22.42-133.857,24.973c-2.08,1.741-3.286,4.312-3.286,7.027v37.403
	c-20.304,3.725-35.624,19.629-36.404,38.821C58.715,252.294,45.714,233.709,45.714,214.857z"/>
<g>
	<path style="fill:#EAE8D2;" d="M100.571,269.714c0-9.922,7.666-18.299,18.286-21.454v42.907
		C108.238,288.013,100.571,279.636,100.571,269.714z"/>
	<rect x="201.143" y="393.143" style="fill:#EAE8D2;" width="109.714" height="27.429"/>
</g>
<path style="fill:#D8D8D8;" d="M45.714,466.286c0-15.125,12.304-27.429,27.429-27.429h27.429v54.857H45.714V466.286z"/>
<polygon style="fill:#E65F58;" points="118.857,438.857 192,438.857 320,438.857 393.143,438.857 393.143,493.714 118.857,493.714 
	"/>
<path style="fill:#D8D8D8;" d="M466.286,493.714h-54.857v-54.857h27.429c15.125,0,27.429,12.304,27.429,27.429V493.714z"/>
<g>
</g>
<g>
</g>
<g>
</g>
<g>
</g>
<g>
</g>
<g>
</g>
<g>
</g>
<g>
</g>
<g>
</g>
<g>
</g>
<g>
</g>
<g>
</g>
<g>
</g>
<g>
</g>
<g>
</g>
</svg>
