<?xml version="1.0" encoding="iso-8859-1"?>
<!-- Generator: Adobe Illustrator 19.0.0, SVG Export Plug-In . SVG Version: 6.00 Build 0)  -->
<svg version="1.1" id="Layer_1" xmlns="http://www.w3.org/2000/svg" xmlns:xlink="http://www.w3.org/1999/xlink" x="0px" y="0px"
	 viewBox="0 0 512 512" style="enable-background:new 0 0 512 512;" xml:space="preserve">
<path style="fill:#334F55;" d="M429.401,423.727h-52.877h-70.618v-31.325c3.533-1.132,6.961-2.486,10.314-3.984h108.855
	c3.112,0,6-1.646,7.595-4.319c1.586-2.681,1.646-6,0.155-8.732l-51.782-94.934c17.789-5.126,30.792-19.975,30.792-37.665
	c0-18.573-14.294-34.086-33.459-38.412C486.063,84.284,481.257,73.214,478.882,67.902c-1.672-3.758-5.379-6.095-9.672-6.095h-81.299
	l27.025-43.921c1.914-3.103,1.715-7.06-0.483-9.965c-2.207-2.896-5.974-4.129-9.457-3.155c0,0-30.861,8.819-79.342,22.042
	c-25.31,6.905-48.076,14.913-64.325,21.103l21.198-34.439c1.853-3.009,1.733-6.836-0.31-9.724c-2.034-2.879-5.586-4.327-9.06-3.534
	c-5.224,1.121-128.194,28.008-151.831,80.006c-19.088,41.992,0.57,97.218,9.502,118.236c-0.849,1.356-1.468,2.868-1.468,4.588v0.803
	c-20.12,3.691-35.309,19.736-35.309,38.92c0,17.691,13.002,32.539,30.792,37.665L73.06,375.366
	c-1.491,2.733-1.431,6.052,0.155,8.732c1.595,2.672,4.482,4.319,7.595,4.319h108.855c3.353,1.497,6.781,2.852,10.314,3.984v31.325
	h-52.964H76.482c-24.387,0-44.223,19.801-44.223,44.136v35.309c0,4.879,3.948,8.827,8.827,8.827h423.71
	c4.879,0,8.827-3.948,8.827-8.827v-35.309C473.624,443.528,453.788,423.727,429.401,423.727z"/>
<path style="fill:#E6D764;" d="M147.014,295.731V282.49v-17.655v-44.136v-8.827h211.855v8.827v44.136v17.655v13.241
	c0,46.24-37.62,83.859-83.859,83.859h-44.136C184.634,379.59,147.014,341.971,147.014,295.731z"/>
<g>
	<rect x="226.46" y="326.632" style="fill:#334F55;" width="52.964" height="17.655"/>
	<path style="fill:#334F55;" d="M191.151,238.354c-9.733,0-17.655,7.922-17.655,17.655c0,9.733,7.922,17.655,17.655,17.655
		c9.733,0,17.655-7.922,17.655-17.655C208.805,246.276,200.883,238.354,191.151,238.354z"/>
</g>
<path style="fill:#E987A6;" d="M343.142,370.763c17.676-16.066,29.694-38.203,32.622-63.14l34.439,63.14H343.142z"/>
<path style="fill:#E6D764;" d="M394.178,242.767c0,9.579-7.402,17.668-17.655,20.713v-41.426
	C386.777,225.1,394.178,233.188,394.178,242.767z"/>
<path style="fill:#E987A6;" d="M137.394,87.531c13.818-30.395,78.437-53.843,118.789-64.929l-23.999,38.99
	c-2.026,3.302-1.672,7.526,0.871,10.439c2.552,2.914,6.689,3.81,10.232,2.258c0.388-0.172,39.654-17.534,87.006-30.447
	c24.163-6.586,43.956-12.086,57.757-15.948l-23.456,38.111c-1.681,2.724-1.75,6.146-0.19,8.939c1.56,2.784,4.509,4.517,7.707,4.517
	h86.144c-12.925,20.408-54.496,70.154-94.501,114.755H148.265C141.202,178.171,120.409,124.896,137.394,87.531z"/>
<path style="fill:#E6D764;" d="M111.705,242.767c0-9.579,7.402-17.668,17.655-20.713v41.426
	C119.107,260.435,111.705,252.347,111.705,242.767z"/>
<path style="fill:#E987A6;" d="M95.68,370.763l34.439-63.14c2.928,24.937,14.946,47.074,32.622,63.14H95.68z"/>
<g>
	<path style="fill:#E6D764;" d="M217.632,396.279c4.345,0.57,8.743,0.965,13.241,0.965h44.136c4.498,0,8.896-0.395,13.241-0.965
		v27.447h-70.618V396.279z"/>
	<polygon style="fill:#E6D764;" points="208.805,441.381 297.078,441.381 345.335,441.381 261.769,492.811 178.203,441.381 	"/>
</g>
<g>
	<path style="fill:#C59A83;" d="M49.914,467.863c0-14.603,11.922-26.482,26.568-26.482h68.032l86.066,52.964H49.914V467.863z"/>
	<path style="fill:#C59A83;" d="M455.969,494.345H292.958l86.066-52.964h50.378c14.646,0,26.568,11.879,26.568,26.482
		L455.969,494.345L455.969,494.345z"/>
</g>
<path style="fill:#334F55;" d="M314.733,273.663c9.733,0,17.655-7.922,17.655-17.655c0-9.733-7.922-17.655-17.655-17.655
	c-9.733,0-17.655,7.922-17.655,17.655C297.078,265.741,305,273.663,314.733,273.663z"/>
<g>
</g>
<g>
</g>
<g>
</g>
<g>
</g>
<g>
</g>
<g>
</g>
<g>
</g>
<g>
</g>
<g>
</g>
<g>
</g>
<g>
</g>
<g>
</g>
<g>
</g>
<g>
</g>
<g>
</g>
</svg>
