<?xml version="1.0" encoding="iso-8859-1"?>
<!-- Generator: Adobe Illustrator 19.0.0, SVG Export Plug-In . SVG Version: 6.00 Build 0)  -->
<svg version="1.1" id="Layer_1" xmlns="http://www.w3.org/2000/svg" xmlns:xlink="http://www.w3.org/1999/xlink" x="0px" y="0px"
	 viewBox="0 0 512 512" style="enable-background:new 0 0 512 512;" xml:space="preserve">
<path style="fill:#334F55;" d="M429.475,425.22h-34.627h-86.78v-32.129c2.473-0.88,4.923-1.802,7.307-2.86
	c0.465,0.077,0.885,0.277,1.371,0.277h108.475c3.064,0,5.898-1.619,7.462-4.246c1.564-2.635,1.623-5.898,0.157-8.585l-50.907-93.328
	c17.488-5.039,30.271-19.637,30.271-37.028c0-18.859-14.932-34.633-34.712-38.261v-44.18v-26.034h30.767
	c1.78,0,3.517-0.551,4.975-1.568l47.335-33.136c2.314-1.619,3.691-4.254,3.703-7.076c0.013-2.822-1.347-5.466-3.648-7.102
	l-97.204-69.17c-1.026-0.729-2.195-1.229-3.432-1.458L257.597,0.149c-1.059-0.203-2.161-0.195-3.229,0L154.063,19.336
	c-1.195,0.229-2.33,0.712-3.331,1.407l-99.289,69.17c-2.326,1.618-3.712,4.271-3.716,7.11c-0.004,2.831,1.377,5.491,3.703,7.119
	l47.335,33.136c1.458,1.017,3.195,1.568,4.975,1.568h30.767v26.034v44.18c-19.78,3.629-34.712,19.402-34.712,38.261
	c0,17.392,12.782,31.989,30.271,37.028L79.16,377.677c-1.466,2.686-1.407,5.949,0.157,8.585c1.564,2.627,4.398,4.246,7.462,4.246
	h108.475c0.487,0,0.907-0.2,1.371-0.277c2.384,1.058,4.833,1.98,7.307,2.86v32.129h-86.78H82.524
	c-23.97,0-43.475,19.466-43.475,43.39v34.712c0,4.797,3.886,8.678,8.678,8.678h416.545c4.792,0,8.678-3.881,8.678-8.678V468.61
	C472.95,444.686,453.446,425.22,429.475,425.22z"/>
<path style="fill:#EAE8D2;" d="M151.864,294.982v-8.61v-17.356v-43.39v-17.356v-25.754c19.585,13.534,57.394,34.432,104.136,34.432
	s84.551-20.898,104.136-34.432v25.754v17.356v43.39v17.356v8.61c0,47.89-38.958,86.848-86.844,86.848h-34.585
	C190.821,381.83,151.864,342.872,151.864,294.982z"/>
<g>
	<path style="fill:#334F55;" d="M278.564,336.702l6.937-5.203l-10.398-13.873l-6.945,5.186c-4.521,3.381-10.415,6.695-11.941,6.958
		c-1.958-0.263-7.852-3.576-12.373-6.958l-6.945-5.186L226.5,331.499l6.937,5.203c4.178,3.136,14.733,10.415,22.564,10.415
		S274.386,339.838,278.564,336.702z"/>
	<path style="fill:#334F55;" d="M195.254,225.625c-9.572,0-17.356,7.788-17.356,17.356c0,9.568,7.784,17.356,17.356,17.356
		c9.572,0,17.356-7.788,17.356-17.356C212.61,233.413,204.826,225.625,195.254,225.625z"/>
</g>
<polygon style="fill:#EAE8D2;" points="264.678,442.576 299.39,442.576 337.983,442.576 264.678,465.483 "/>
<path style="fill:#FCFCFC;" d="M170.152,173.557h171.695C322.687,185.3,292.035,199.591,256,199.591
	S189.313,185.301,170.152,173.557z"/>
<path style="fill:#E4AD4B;" d="M341.966,373.152c18.114-15.935,30.616-38.011,34.289-62.972l34.347,62.972H341.966z"/>
<path style="fill:#EAE8D2;" d="M394.848,247.32c0,9.417-7.277,17.369-17.356,20.363v-40.726
	C387.572,229.952,394.848,237.903,394.848,247.32z"/>
<g>
	<polygon style="fill:#83A6E2;" points="71.562,97.048 159.139,36.039 256.017,17.506 354.916,36.039 440.543,96.972 
		405.522,121.489 368.814,121.489 143.186,121.489 106.478,121.489 	"/>
	<rect x="151.864" y="138.844" style="fill:#83A6E2;" width="208.272" height="17.356"/>
</g>
<path style="fill:#EAE8D2;" d="M117.152,247.32c0-9.417,7.277-17.369,17.356-20.363v40.726
	C124.428,264.689,117.152,256.738,117.152,247.32z"/>
<path style="fill:#E4AD4B;" d="M101.397,373.152l34.347-62.972c3.673,24.961,16.175,47.037,34.289,62.972H101.397z"/>
<g>
	<path style="fill:#EAE8D2;" d="M221.288,397.609c5.677,0.962,11.473,1.577,17.42,1.577h34.585c5.947,0,11.742-0.615,17.42-1.577
		v27.611H256h-34.712V397.609z"/>
	<polygon style="fill:#EAE8D2;" points="212.61,442.576 247.322,442.576 247.322,465.483 174.016,442.576 	"/>
</g>
<path style="fill:#83A6E2;" d="M455.594,494.644H56.405V468.61c0-14.356,11.716-26.034,26.119-26.034h33.313l137.461,42.956
	c0.01,0.003,0.02,0.006,0.031,0.01l0.083,0.026c0.847,0.271,1.72,0.398,2.589,0.398c0.869,0,1.741-0.127,2.589-0.398l0.083-0.026
	c0.011-0.003,0.021-0.006,0.031-0.01l137.461-42.956h33.313c14.403,0,26.119,11.678,26.119,26.034L455.594,494.644L455.594,494.644z
	"/>
<g>
	<path style="fill:#334F55;" d="M316.746,260.337c9.572,0,17.356-7.788,17.356-17.356c0-9.568-7.784-17.356-17.356-17.356
		s-17.356,7.788-17.356,17.356C299.39,252.549,307.174,260.337,316.746,260.337z"/>
	<path style="fill:#334F55;" d="M247.305,104.133h17.39c14.348,0,26.017-11.695,26.017-26.076V52.065
		c0-3.008-1.559-5.797-4.114-7.381c-2.564-1.585-5.754-1.72-8.445-0.381c-6.259,3.127-17.632,7.763-22.153,7.763
		c-4.504,0-15.881-4.636-22.157-7.763c-2.682-1.339-5.881-1.187-8.441,0.381c-2.555,1.585-4.114,4.373-4.114,7.381v25.992
		C221.288,92.438,232.957,104.133,247.305,104.133z"/>
</g>
<path style="fill:#E4AD4B;" d="M238.644,65.311c5.75,2.161,12.318,4.11,17.356,4.11s11.606-1.949,17.356-4.11v12.746
	c0,4.805-3.886,8.72-8.661,8.72h-17.39c-4.776,0-8.661-3.915-8.661-8.72V65.311z"/>
<g>
</g>
<g>
</g>
<g>
</g>
<g>
</g>
<g>
</g>
<g>
</g>
<g>
</g>
<g>
</g>
<g>
</g>
<g>
</g>
<g>
</g>
<g>
</g>
<g>
</g>
<g>
</g>
<g>
</g>
</svg>
