<?xml version="1.0" encoding="iso-8859-1"?>
<!-- Generator: Adobe Illustrator 19.0.0, SVG Export Plug-In . SVG Version: 6.00 Build 0)  -->
<svg version="1.1" id="Layer_1" xmlns="http://www.w3.org/2000/svg" xmlns:xlink="http://www.w3.org/1999/xlink" x="0px" y="0px"
	 viewBox="0 0 512 512" style="enable-background:new 0 0 512 512;" xml:space="preserve">
<path style="fill:#334F55;" d="M438.857,420.571h-36.571h-91.429v-33.843c2.611-0.928,5.196-1.901,7.713-3.017
	c0.485,0.079,0.923,0.288,1.43,0.288h114.286c3.696,0,7.036-2.223,8.446-5.643c1.42-3.42,0.634-7.348-1.982-9.964l-44.337-44.337
	c13.314-6.478,22.57-18.621,23.803-32.893c35.581-20.731,55.213-47.793,55.213-76.306c0-36.827-31.864-69.043-82.286-89.808V68.571
	C393.143,30.116,349.009,0,292.661,0h-73.322c-56.348,0-100.482,30.116-100.482,68.571v56.478
	c-50.421,20.765-82.286,52.981-82.286,89.808c0,28.531,19.653,55.485,55.203,76.224c1.204,14.307,10.473,26.485,23.813,32.975
	L71.25,368.393c-2.616,2.616-3.402,6.545-1.982,9.964c1.411,3.419,4.75,5.643,8.446,5.643H192c0.507,0,0.945-0.209,1.43-0.288
	c2.517,1.115,5.101,2.089,7.713,3.017v33.843h-91.429H73.143c-25.205,0-45.714,20.509-45.714,45.714v36.571
	c0,5.053,4.089,9.143,9.143,9.143h73.143h292.571h73.143c5.053,0,9.143-4.089,9.143-9.143v-36.571
	C484.571,441.08,464.062,420.571,438.857,420.571z"/>
<path style="fill:#EAE8D2;" d="M146.286,283.5v-18.357v-18.286v-49.375c12.875-6.429,52.857-23.768,109.714-23.768
	s96.839,17.339,109.714,23.768v49.375v18.286V283.5c0,50.375-41.045,91.357-91.5,91.357h-36.429
	C187.33,374.857,146.286,333.875,146.286,283.5z"/>
<path style="fill:#E6D764;" d="M412.214,365.714h-65.608c11.486-10.1,20.825-22.527,27.3-36.571h0.951
	c0.247,0,0.475-0.062,0.72-0.065L412.214,365.714z"/>
<path style="fill:#EAE8D2;" d="M380.531,310.353c2.183-8.611,3.469-17.574,3.469-26.853v-16.954
	c10.619,3.155,18.286,11.532,18.286,21.454C402.286,298.984,392.939,308.167,380.531,310.353z"/>
<g>
	<path style="fill:#E65F58;" d="M137.143,68.571c0-27.259,37.643-50.286,82.196-50.286h73.321c44.554,0,82.197,23.027,82.197,50.286
		v49.726C340.8,107.057,300.134,100.571,256,100.571s-84.8,6.485-118.857,17.726V68.571z"/>
	<path style="fill:#E65F58;" d="M54.857,214.857c0-52.036,92.116-96,201.143-96s201.143,43.964,201.143,96
		c0,20.245-14.35,40.224-40.331,56.876C410.96,259.556,398.777,250.4,384,247.689V192c0-3.214-1.688-6.187-4.438-7.839
		c-1.955-1.17-48.75-28.732-123.563-28.732s-121.607,27.563-123.563,28.732c-2.75,1.652-4.437,4.625-4.437,7.839v55.689
		c-14.784,2.712-26.971,11.874-32.821,24.059C69.176,255.097,54.857,235.15,54.857,214.857z"/>
</g>
<path style="fill:#EAE8D2;" d="M128,266.546V283.5c0,9.278,1.286,18.242,3.469,26.853c-12.408-2.185-21.755-11.368-21.755-22.352
	C109.714,278.078,117.381,269.701,128,266.546z"/>
<path style="fill:#E6D764;" d="M99.786,365.714l36.637-36.637c0.245,0.003,0.474,0.065,0.72,0.065h0.951
	c6.474,14.045,15.814,26.472,27.3,36.571H99.786z"/>
<path style="fill:#EAE8D2;" d="M219.429,391.483c5.983,1.012,12.09,1.66,18.357,1.66h36.429c6.267,0,12.374-0.647,18.357-1.66
	v29.088h-73.143V391.483z"/>
<path style="fill:#D8D8D8;" d="M45.714,466.286c0-15.125,12.304-27.429,27.429-27.429h27.429v54.857H45.714V466.286z"/>
<polygon style="fill:#E65F58;" points="118.857,438.857 210.286,438.857 301.714,438.857 393.143,438.857 393.143,493.714 
	118.857,493.714 "/>
<path style="fill:#D8D8D8;" d="M466.286,493.714h-54.857v-54.857h27.429c15.125,0,27.429,12.304,27.429,27.429V493.714z"/>
<path style="fill:#334F55;" d="M278.991,82.813c2.75-1.652,4.438-4.625,4.438-7.839V45.714c0-5.053-4.089-9.143-9.143-9.143h-36.571
	c-5.053,0-9.143,4.089-9.143,9.143v29.259c0,3.214,1.688,6.187,4.437,7.839c3.366,2.018,14.982,8.616,22.991,8.616
	C264.009,91.429,275.625,84.83,278.991,82.813z"/>
<path style="fill:#E4AD4B;" d="M246.857,54.857h18.286v14.714c-3.902,1.982-7.679,3.5-9.098,3.571
	c-1.482-0.071-5.277-1.589-9.187-3.571V54.857z"/>
<g>
	<rect x="228.571" y="320" style="fill:#334F55;" width="54.857" height="18.286"/>
	<path style="fill:#334F55;" d="M192,210.286c-10.08,0-18.286,8.205-18.286,18.286s8.205,18.286,18.286,18.286
		c10.08,0,18.286-8.205,18.286-18.286S202.08,210.286,192,210.286z"/>
	<path style="fill:#334F55;" d="M320,246.857c10.08,0,18.286-8.205,18.286-18.286S330.08,210.286,320,210.286
		c-10.08,0-18.286,8.205-18.286,18.286S309.92,246.857,320,246.857z"/>
</g>
<g>
</g>
<g>
</g>
<g>
</g>
<g>
</g>
<g>
</g>
<g>
</g>
<g>
</g>
<g>
</g>
<g>
</g>
<g>
</g>
<g>
</g>
<g>
</g>
<g>
</g>
<g>
</g>
<g>
</g>
</svg>
