<?xml version="1.0" encoding="iso-8859-1"?>
<!-- Generator: Adobe Illustrator 19.0.0, SVG Export Plug-In . SVG Version: 6.00 Build 0)  -->
<svg version="1.1" id="Layer_1" xmlns="http://www.w3.org/2000/svg" xmlns:xlink="http://www.w3.org/1999/xlink" x="0px" y="0px"
	 viewBox="0 0 512 512" style="enable-background:new 0 0 512 512;" xml:space="preserve">
<path style="fill:#334F55;" d="M446.967,425.22h-52.119h-69.424v-26.037c33.502-0.033,60.746-27.263,60.746-60.726v-52.875
	c19.78-3.629,34.712-19.402,34.712-38.261s-14.932-34.633-34.712-38.261v-44.18v-26.034h22.089c1.78,0,3.517-0.551,4.975-1.568
	l47.335-33.136c2.314-1.619,3.691-4.254,3.703-7.076c0.013-2.822-1.347-5.466-3.648-7.102l-97.204-69.17
	c-1.026-0.729-2.195-1.229-3.432-1.458L257.598,0.149c-1.059-0.203-2.161-0.195-3.229,0L154.063,19.336
	c-1.195,0.229-2.33,0.712-3.331,1.407l-99.289,69.17c-2.326,1.618-3.712,4.271-3.716,7.11c-0.004,2.831,1.377,5.491,3.703,7.119
	l47.335,33.136c1.458,1.017,3.195,1.568,4.975,1.568h22.089v26.034v44.18c-19.78,3.629-34.712,19.402-34.712,38.261
	s14.932,34.633,34.712,38.261v52.875c0,33.463,27.244,60.693,60.746,60.726v26.037h-69.424H65.033
	c-23.898,0-43.339,19.466-43.339,43.39v34.712c0,4.797,3.886,8.678,8.678,8.678h451.257c4.792,0,8.678-3.881,8.678-8.678V468.61
	C490.306,444.686,470.866,425.22,446.967,425.22z"/>
<path style="fill:#C59A83;" d="M143.186,338.457v-52.085v-17.356v-43.39V208.27v-25.941c20.093,13.534,59.903,34.619,112.814,34.619
	s92.721-21.085,112.814-34.619v25.941v17.356v43.39v17.356v52.085c0,23.915-19.492,43.373-43.449,43.373h-17.297H203.932h-17.297
	C162.677,381.83,143.186,362.372,143.186,338.457z"/>
<g>
	<rect x="229.966" y="329.765" style="fill:#334F55;" width="52.068" height="17.356"/>
	<path style="fill:#334F55;" d="M308.068,364.474h17.356v-52.068c0-4.797-3.886-8.678-8.678-8.678h-52.068v17.356h43.39V364.474z"/>
	<path style="fill:#334F55;" d="M203.932,321.084h43.39v-17.356h-52.068c-4.792,0-8.678,3.881-8.678,8.678v52.068h17.356V321.084z"
		/>
	<path style="fill:#334F55;" d="M212.61,242.981c0-9.568-7.784-17.356-17.356-17.356c-9.572,0-17.356,7.788-17.356,17.356
		c0,9.568,7.784,17.356,17.356,17.356C204.826,260.337,212.61,252.549,212.61,242.981z"/>
</g>
<g>
	<polygon style="fill:#C59A83;" points="264.678,442.576 316.746,442.576 337.984,442.576 264.678,465.483 	"/>
	<path style="fill:#C59A83;" d="M403.526,247.32c0,9.417-7.277,17.369-17.356,20.363v-40.726
		C396.25,229.952,403.526,237.903,403.526,247.32z"/>
</g>
<g>
	<polygon style="fill:#83A6E2;" points="71.562,97.048 159.139,36.039 256.017,17.506 354.916,36.039 440.543,96.972 
		405.522,121.489 377.492,121.489 134.508,121.489 106.478,121.489 	"/>
	<rect x="143.186" y="138.844" style="fill:#83A6E2;" width="225.628" height="17.356"/>
</g>
<path style="fill:#FCFCFC;" d="M349.975,173.557c-19.985,11.742-52.708,26.034-93.975,26.034c-41.08,0-73.835-14.291-93.88-26.034
	H349.975z"/>
<g>
	<path style="fill:#C59A83;" d="M108.474,247.32c0-9.417,7.277-17.369,17.356-20.363v40.726
		C115.75,264.689,108.474,256.738,108.474,247.32z"/>
	<polygon style="fill:#C59A83;" points="203.932,399.186 308.068,399.186 308.068,425.22 256,425.22 203.932,425.22 	"/>
	<polygon style="fill:#C59A83;" points="195.254,442.576 247.322,442.576 247.322,465.483 174.016,442.576 	"/>
</g>
<path style="fill:#83A6E2;" d="M472.95,494.644H39.049V468.61c0-14.356,11.657-26.034,25.983-26.034h50.804l137.461,42.956
	c0.01,0.003,0.02,0.006,0.031,0.01l0.083,0.026c0.847,0.271,1.72,0.398,2.589,0.398c0.869,0,1.741-0.127,2.589-0.398l0.083-0.026
	c0.011-0.003,0.021-0.006,0.031-0.01l137.461-42.956h50.804c14.326,0,25.983,11.678,25.983,26.034L472.95,494.644L472.95,494.644z"
	/>
<g>
	<path style="fill:#334F55;" d="M316.746,260.337c9.572,0,17.356-7.788,17.356-17.356c0-9.568-7.784-17.356-17.356-17.356
		c-9.572,0-17.356,7.788-17.356,17.356C299.39,252.549,307.174,260.337,316.746,260.337z"/>
	<path style="fill:#334F55;" d="M247.305,104.133h17.39c14.348,0,26.017-11.695,26.017-26.076V52.065
		c0-3.008-1.559-5.797-4.114-7.381c-2.563-1.585-5.763-1.72-8.445-0.381c-6.259,3.127-17.632,7.763-22.153,7.763
		c-4.504,0-15.881-4.636-22.157-7.763c-2.691-1.339-5.881-1.187-8.441,0.381c-2.555,1.585-4.114,4.373-4.114,7.381v25.992
		C221.288,92.438,232.957,104.133,247.305,104.133z"/>
</g>
<path style="fill:#E4AD4B;" d="M238.644,65.311c5.75,2.161,12.318,4.11,17.356,4.11s11.606-1.949,17.356-4.11v12.746
	c0,4.805-3.886,8.72-8.661,8.72h-17.39c-4.776,0-8.661-3.915-8.661-8.72L238.644,65.311L238.644,65.311z"/>
<g>
</g>
<g>
</g>
<g>
</g>
<g>
</g>
<g>
</g>
<g>
</g>
<g>
</g>
<g>
</g>
<g>
</g>
<g>
</g>
<g>
</g>
<g>
</g>
<g>
</g>
<g>
</g>
<g>
</g>
</svg>
