<?xml version="1.0" encoding="iso-8859-1"?>
<!-- Generator: Adobe Illustrator 19.0.0, SVG Export Plug-In . SVG Version: 6.00 Build 0)  -->
<svg version="1.1" id="Layer_1" xmlns="http://www.w3.org/2000/svg" xmlns:xlink="http://www.w3.org/1999/xlink" x="0px" y="0px"
	 viewBox="0 0 512 512" style="enable-background:new 0 0 512 512;" xml:space="preserve">
<g>
	<rect x="228.571" y="320" style="fill:#334F55;" width="54.857" height="18.286"/>
	<path style="fill:#334F55;" d="M457.196,420.571H329.143v-48.761c38.389-24.329,64-67.072,64-115.775v-19.153
		c20.839-3.823,36.571-20.441,36.571-40.311c0-11.795-5.617-22.37-14.48-29.878l5.266-42.131c0.049-0.375,0.071-0.759,0.071-1.134
		C420.571,47.295,382.036,0,320,0c-0.312,0-0.629,0.018-0.942,0.045l-132.107,13.67c-63.384,0.187-95.522,37.098-95.522,109.714
		c0,0.375,0.022,0.759,0.071,1.134l5.266,42.131c-8.864,7.508-14.48,18.084-14.48,29.878c0,19.869,15.732,36.488,36.571,40.311
		v19.153c0,48.704,25.611,91.446,64,115.775v48.761H54.804c-25.179,0-45.661,20.509-45.661,45.714v36.571
		c0,5.053,4.094,9.143,9.143,9.143h475.429c5.049,0,9.143-4.089,9.143-9.143v-36.571
		C502.857,441.08,482.375,420.571,457.196,420.571z"/>
</g>
<path style="fill:#E6D764;" d="M393.143,218.025v-42.907c10.619,3.155,18.286,11.532,18.286,21.454
	C411.429,206.493,403.762,214.871,393.143,218.025z"/>
<path style="fill:#C59A83;" d="M109.714,122.866C109.857,60.036,133.844,32,187.429,32c0.312,0,0.629-0.018,0.942-0.045
	l132.089-13.67c75.353,0.321,81.732,79.33,81.826,104.58l-4.341,34.728c-1.594-0.464-3.137-1.028-4.802-1.333v-0.859
	c0-57.321-44.75-105.375-101.875-109.411c-0.21-0.018-0.424-0.027-0.634-0.027l-68.813-0.045
	c-57.737,3.482-102.964,51.571-102.964,109.482v0.859c-1.665,0.305-3.208,0.869-4.802,1.333L109.714,122.866z"/>
<g>
	<path style="fill:#E6D764;" d="M100.571,196.571c0-9.922,7.666-18.299,18.286-21.454v42.907
		C108.238,214.871,100.571,206.493,100.571,196.571z"/>
	<path style="fill:#E6D764;" d="M137.143,256.036v-18.321v-18.286v-45.714v-18.286v-0.027c0-48.259,37.679-88.33,85.219-91.214
		l67.929,0.062c47.446,3.518,84.567,43.491,84.567,91.152v0.027v18.286v45.714v18.286v18.321
		c0,65.518-53.317,118.821-118.857,118.821S137.143,321.554,137.143,256.036z"/>
	<path style="fill:#E6D764;" d="M201.143,381.615c16.816,7.372,35.35,11.528,54.857,11.528s38.041-4.156,54.857-11.528v38.957
		H201.143V381.615z"/>
	<polygon style="fill:#E6D764;" points="285.603,438.857 256,463.527 226.397,438.857 	"/>
</g>
<path style="fill:#D26CBA;" d="M484.571,493.714H27.429v-27.429c0-15.125,12.281-27.429,27.375-27.429H192h5.829l52.318,43.598
	c1.696,1.411,3.772,2.116,5.853,2.116c2.08,0,4.156-0.705,5.853-2.116l52.318-43.598H320h137.196
	c15.094,0,27.375,12.304,27.375,27.429V493.714z"/>
<path style="fill:#334F55;" d="M292.554,283.429h36.607c15.116,0,27.411-12.295,27.411-27.411v-36.589
	c0-5.053-4.094-9.143-9.143-9.143h-73.143c-5.049,0-9.143,4.089-9.143,9.143v36.589
	C265.143,271.134,277.438,283.429,292.554,283.429z"/>
<path style="fill:#EAE8D2;" d="M283.429,228.571c0,10.08,8.201,18.286,18.286,18.286c10.085,0,18.286-8.205,18.286-18.286h18.286
	v27.446c0,5.116-4.009,9.125-9.125,9.125h-36.607c-5.031,0-9.125-4.089-9.125-9.125L283.429,228.571L283.429,228.571z"/>
<path style="fill:#334F55;" d="M246.857,256.018v-36.589c0-5.053-4.094-9.143-9.143-9.143h-73.143c-5.049,0-9.143,4.089-9.143,9.143
	v36.589c0,15.116,12.295,27.411,27.411,27.411h36.607C234.563,283.429,246.857,271.134,246.857,256.018z"/>
<path style="fill:#EAE8D2;" d="M228.571,256.018c0,5.116-4.009,9.125-9.125,9.125h-36.607c-5.031,0-9.125-4.089-9.125-9.125v-27.446
	H192c0,10.08,8.201,18.286,18.286,18.286s18.286-8.205,18.286-18.286V256.018z"/>
<g>
</g>
<g>
</g>
<g>
</g>
<g>
</g>
<g>
</g>
<g>
</g>
<g>
</g>
<g>
</g>
<g>
</g>
<g>
</g>
<g>
</g>
<g>
</g>
<g>
</g>
<g>
</g>
<g>
</g>
</svg>
