<?xml version="1.0" encoding="iso-8859-1"?>
<!-- Generator: Adobe Illustrator 19.0.0, SVG Export Plug-In . SVG Version: 6.00 Build 0)  -->
<svg version="1.1" id="Layer_1" xmlns="http://www.w3.org/2000/svg" xmlns:xlink="http://www.w3.org/1999/xlink" x="0px" y="0px"
	 viewBox="0 0 512 512" style="enable-background:new 0 0 512 512;" xml:space="preserve">
<path style="fill:#334F55;" d="M450.259,423.724h-88.328h-35.31v-34.608c36.29-15.501,61.793-51.521,61.793-93.392v-14.045
	c20.121-3.691,35.31-19.736,35.31-38.921c0-12.543-6.62-23.611-16.739-30.897h43.222c4.875,0,8.828-3.948,8.828-8.828v-30.897
	c0-21.905-17.849-39.724-39.793-39.724h-39.655V75.034C379.586,33.664,345.914,0,304.526,0h-97.052
	c-41.388,0-75.06,33.664-75.06,75.034v57.379H92.759c-21.944,0-39.793,17.819-39.793,39.724v30.897c0,4.879,3.953,8.828,8.828,8.828
	h43.222c-10.119,7.286-16.739,18.353-16.739,30.897c0,19.184,15.19,35.23,35.31,38.921v14.045c0,41.871,25.503,77.891,61.793,93.392
	v34.608h-35.31H61.741c-24.311,0-44.086,19.802-44.086,44.138v35.31c0,4.879,3.953,8.828,8.828,8.828h459.034
	c4.875,0,8.828-3.948,8.828-8.828v-35.31C494.345,443.526,474.569,423.724,450.259,423.724z"/>
<path style="fill:#C59A83;" d="M141.241,295.724v-13.241v-17.655V220.69v-8.828h229.517v8.828v44.138v17.655v13.241
	c0,46.241-37.642,83.862-83.914,83.862h-61.69C178.884,379.586,141.241,341.965,141.241,295.724z"/>
<g>
	<rect x="229.517" y="335.448" style="fill:#334F55;" width="52.966" height="17.655"/>
	<path style="fill:#334F55;" d="M194.207,256c9.737,0,17.655-7.922,17.655-17.655c0-9.733-7.918-17.655-17.655-17.655
		c-9.737,0-17.655,7.922-17.655,17.655C176.552,248.078,184.47,256,194.207,256z"/>
</g>
<g>
	<polygon style="fill:#E4AD4B;" points="247.172,463.448 194.207,441.379 247.172,441.379 	"/>
	<polygon style="fill:#E4AD4B;" points="264.828,441.379 317.793,441.379 264.828,463.448 	"/>
</g>
<path style="fill:#C59A83;" d="M388.414,263.473v-41.428c10.253,3.046,17.655,11.134,17.655,20.714S398.667,260.427,388.414,263.473
	z"/>
<g>
	<path style="fill:#E4AD4B;" d="M150.069,75.034c0-31.638,25.75-57.379,57.405-57.379h97.052c31.655,0,57.405,25.741,57.405,57.379
		v57.379H150.069V75.034z"/>
	<path style="fill:#E4AD4B;" d="M70.621,172.138c0-12.172,9.931-22.069,22.138-22.069h48.483h229.517h48.483
		c12.207,0,22.138,9.897,22.138,22.069v22.069h-61.793H132.414H70.621V172.138z"/>
</g>
<g>
	<path style="fill:#C59A83;" d="M105.931,242.759c0-9.58,7.402-17.668,17.655-20.714v41.428
		C113.333,260.427,105.931,252.338,105.931,242.759z"/>
	<path style="fill:#C59A83;" d="M203.034,394.743c7.131,1.592,14.517,2.498,22.121,2.498h61.69c7.604,0,14.989-0.907,22.121-2.498
		v28.981H256h-52.965V394.743z"/>
</g>
<path style="fill:#E4AD4B;" d="M476.69,494.345H35.31v-26.483c0-14.603,11.858-26.483,26.431-26.483h86.566l104.296,43.457
	c0.113,0.047,0.235,0.028,0.349,0.07c0.985,0.365,2.003,0.611,3.047,0.611c1.041,0,2.06-0.246,3.045-0.61
	c0.114-0.043,0.238-0.023,0.351-0.071l104.296-43.457h86.566c14.573,0,26.431,11.879,26.431,26.483V494.345z"/>
<g>
	<path style="fill:#334F55;" d="M317.793,256c9.737,0,17.655-7.922,17.655-17.655c0-9.733-7.918-17.655-17.655-17.655
		c-9.737,0-17.655,7.922-17.655,17.655C300.138,248.078,308.056,256,317.793,256z"/>
	<path style="fill:#334F55;" d="M249.785,319.646l6.215,6.216l6.241-6.241c0.116-0.112,11.961-11.414,27.603-9.81
		c13.276,1.422,26.121,11.655,38.177,30.414l4.776,7.422l14.849-9.543l-4.772-7.431c-15.086-23.465-32.293-36.388-51.142-38.414
		c-15.886-1.746-28.599,4.889-35.729,9.869c-7.122-4.975-19.826-11.603-35.736-9.869c-18.849,2.026-36.056,14.948-51.142,38.414
		l-4.772,7.431l14.849,9.543l4.776-7.422c12-18.672,24.789-28.897,38-30.396C237.599,308.017,249.375,319.259,249.785,319.646z"/>
</g>
<g>
</g>
<g>
</g>
<g>
</g>
<g>
</g>
<g>
</g>
<g>
</g>
<g>
</g>
<g>
</g>
<g>
</g>
<g>
</g>
<g>
</g>
<g>
</g>
<g>
</g>
<g>
</g>
<g>
</g>
</svg>
