<?xml version="1.0" encoding="iso-8859-1"?>
<!-- Generator: Adobe Illustrator 19.0.0, SVG Export Plug-In . SVG Version: 6.00 Build 0)  -->
<svg version="1.1" id="Layer_1" xmlns="http://www.w3.org/2000/svg" xmlns:xlink="http://www.w3.org/1999/xlink" x="0px" y="0px"
	 viewBox="0 0 512 512" style="enable-background:new 0 0 512 512;" xml:space="preserve">
<path style="fill:#334F55;" d="M450.259,423.724h-79.5h-44.138v-47.078c37.066-23.49,61.793-64.759,61.793-111.784v-18.493
	c20.121-3.691,35.31-19.736,35.31-38.921s-15.19-35.23-35.31-38.921v-0.829c0-53.062-39.751-97.791-91.636-104.833l3.343-53.486
	c0.155-2.431-0.707-4.819-2.379-6.595C296.078,1.009,293.75,0,291.31,0H220.69c-2.44,0-4.767,1.009-6.431,2.784
	c-1.672,1.776-2.534,4.164-2.379,6.595l3.342,53.462c-51.962,7.002-91.635,51.579-91.635,104.857v0.829
	c-20.121,3.691-35.31,19.736-35.31,38.921s15.19,35.23,35.31,38.921v18.493c0,47.025,24.727,88.295,61.793,111.784v47.078h-44.138
	h-79.5c-24.311,0-44.086,19.802-44.086,44.138v35.31c0,4.879,3.948,8.828,8.828,8.828h459.034c4.879,0,8.828-3.948,8.828-8.828
	v-35.31C494.345,443.526,474.569,423.724,450.259,423.724z"/>
<path style="fill:#E6D764;" d="M141.241,264.862v-17.69v-17.655v-44.138v-17.655v-0.026c0-43.969,32.407-80.863,75.08-87.239
	l4.385,70.162c0.293,4.655,4.146,8.276,8.81,8.276h52.966c4.664,0,8.517-3.621,8.81-8.276l4.384-70.134
	c42.609,6.416,75.082,43.43,75.082,87.212v0.026v17.655v44.138v17.655v17.69c0,63.259-51.483,114.724-114.759,114.724
	S141.241,328.121,141.241,264.862z"/>
<g>
	<rect x="229.517" y="326.621" style="fill:#334F55;" width="52.966" height="17.655"/>
	<rect x="397.241" y="247.172" style="fill:#334F55;" width="17.655" height="35.31"/>
</g>
<path style="fill:#E6D764;" d="M406.069,207.448c0,9.58-7.402,17.668-17.655,20.714v-41.428
	C398.667,189.78,406.069,197.869,406.069,207.448z"/>
<polygon style="fill:#D26CBA;" points="281.914,17.655 274.19,141.241 237.81,141.241 230.086,17.655 "/>
<g>
	<path style="fill:#E6D764;" d="M105.931,207.448c0-9.58,7.402-17.668,17.655-20.714v41.428
		C113.333,225.116,105.931,217.028,105.931,207.448z"/>
	<path style="fill:#E6D764;" d="M203.034,386.112c16.237,7.117,34.131,11.13,52.966,11.13s36.729-4.012,52.966-11.129v37.612
		H203.034V386.112z"/>
	<polygon style="fill:#E6D764;" points="194.207,441.379 317.793,441.379 339.569,441.379 256,492.81 172.431,441.379 	"/>
</g>
<g>
	<path style="fill:#C59A83;" d="M35.31,467.862c0-14.603,11.853-26.483,26.431-26.483h77l86.069,52.966H35.31V467.862z"/>
	<path style="fill:#C59A83;" d="M476.69,494.345h-189.5l86.069-52.966h77c14.578,0,26.431,11.879,26.431,26.483V494.345z"/>
</g>
<g>
	<path style="fill:#334F55;" d="M300.138,256c9.733,0,17.655-7.922,17.655-17.655h17.655V220.69h-52.966v17.655
		C282.483,248.078,290.405,256,300.138,256z"/>
	<path style="fill:#334F55;" d="M229.517,220.69h-52.966v17.655h17.655c0,9.733,7.922,17.655,17.655,17.655
		c9.733,0,17.655-7.922,17.655-17.655V220.69z"/>
</g>
<g>
</g>
<g>
</g>
<g>
</g>
<g>
</g>
<g>
</g>
<g>
</g>
<g>
</g>
<g>
</g>
<g>
</g>
<g>
</g>
<g>
</g>
<g>
</g>
<g>
</g>
<g>
</g>
<g>
</g>
</svg>
