<?xml version="1.0" encoding="iso-8859-1"?>
<!-- Generator: Adobe Illustrator 19.0.0, SVG Export Plug-In . SVG Version: 6.00 Build 0)  -->
<svg version="1.1" id="Layer_1" xmlns="http://www.w3.org/2000/svg" xmlns:xlink="http://www.w3.org/1999/xlink" x="0px" y="0px"
	 viewBox="0 0 512 512" style="enable-background:new 0 0 512 512;" xml:space="preserve">
<path style="fill:#334F55;" d="M450.259,423.724h-35.362h-44.138h-0.99c11.486-11.223,18.645-26.845,18.645-44.121v-70.638v-27.286
	c20.121-3.691,35.31-19.736,35.31-38.921s-15.19-35.23-35.31-38.921v-18.458h79.448c4.879,0,8.828-3.948,8.828-8.828v-22.069
	c0-17.035-13.836-30.897-30.836-30.897h-57.887C383.39,54.688,326.038,0,256,0c-73.017,0-132.414,59.397-132.414,132.414v8.828
	v35.31v27.286c-20.121,3.691-35.31,19.736-35.31,38.921s15.19,35.23,35.31,38.921v27.286v70.638
	c0,17.276,7.159,32.898,18.645,44.121h-0.99H97.103H61.741c-24.311,0-44.086,19.802-44.086,44.138v35.31
	c0,4.879,3.948,8.828,8.828,8.828h70.621h317.793h70.621c4.879,0,8.828-3.948,8.828-8.828v-35.31
	C494.345,443.526,474.569,423.724,450.259,423.724z"/>
<path style="fill:#C59A83;" d="M141.241,379.603v-61.81h229.517v61.81c0,24.328-19.828,44.121-44.198,44.121H185.44
	C161.069,423.724,141.241,403.931,141.241,379.603z"/>
<polygon style="fill:#EAE8D2;" points="370.759,203.034 370.759,220.69 370.759,264.828 370.759,282.483 370.759,300.138 
	141.241,300.138 141.241,282.483 141.241,264.828 141.241,220.69 141.241,203.034 141.241,185.379 370.759,185.379 "/>
<g>
	<rect x="229.517" y="335.448" style="fill:#334F55;" width="52.966" height="17.655"/>
	<path style="fill:#334F55;" d="M194.207,256c9.733,0,17.655-7.922,17.655-17.655c0-9.733-7.922-17.655-17.655-17.655
		s-17.655,7.922-17.655,17.655C176.552,248.078,184.474,256,194.207,256z"/>
</g>
<polygon style="fill:#C5D35E;" points="150.069,441.379 185.44,441.379 326.56,441.379 361.931,441.379 361.931,459.034 
	150.069,459.034 "/>
<path style="fill:#EAE8D2;" d="M406.069,242.759c0,9.58-7.402,17.668-17.655,20.714v-41.428
	C398.667,225.09,406.069,233.179,406.069,242.759z"/>
<path style="fill:#E4AD4B;" d="M256,17.655c60.296,0,109.775,46.777,114.311,105.931H141.688
	C146.225,64.432,195.704,17.655,256,17.655z"/>
<path style="fill:#E65F58;" d="M370.759,141.241h17.655h57.44c7.267,0,13.181,5.94,13.181,13.241v13.241h-79.448H141.241v-26.483
	H370.759z"/>
<path style="fill:#EAE8D2;" d="M105.931,242.759c0-9.58,7.402-17.668,17.655-20.714v41.428
	C113.333,260.427,105.931,252.338,105.931,242.759z"/>
<path style="fill:#C5D35E;" d="M35.31,467.862c0-14.603,11.853-26.483,26.431-26.483h26.534v52.966H35.31V467.862z"/>
<path style="fill:#E4AD4B;" d="M105.931,494.345v-52.966h26.483v26.483c0,4.879,3.948,8.828,8.828,8.828h229.517
	c4.879,0,8.828-3.948,8.828-8.828v-26.483h26.483v52.966H105.931z"/>
<path style="fill:#C5D35E;" d="M476.69,494.345h-52.966v-52.966h26.534c14.578,0,26.431,11.879,26.431,26.483V494.345z"/>
<g>
	<path style="fill:#334F55;" d="M317.793,256c9.733,0,17.655-7.922,17.655-17.655c0-9.733-7.922-17.655-17.655-17.655
		c-9.733,0-17.655,7.922-17.655,17.655C300.138,248.078,308.06,256,317.793,256z"/>
	<path style="fill:#334F55;" d="M229.517,105.931h52.966c4.879,0,8.828-3.948,8.828-8.828v-35.31c0-4.879-3.948-8.828-8.828-8.828
		h-52.966c-4.879,0-8.828,3.948-8.828,8.828v35.31C220.69,101.983,224.638,105.931,229.517,105.931z"/>
</g>
<rect x="238.345" y="70.621" style="fill:#C5D35E;" width="35.31" height="17.655"/>
<g>
</g>
<g>
</g>
<g>
</g>
<g>
</g>
<g>
</g>
<g>
</g>
<g>
</g>
<g>
</g>
<g>
</g>
<g>
</g>
<g>
</g>
<g>
</g>
<g>
</g>
<g>
</g>
<g>
</g>
</svg>
